<?xml version="1.0" encoding="UTF-8"?>
<svg id="Layer_1" xmlns="http://www.w3.org/2000/svg" xmlns:xlink="http://www.w3.org/1999/xlink" version="1.1" viewBox="0 0 1256.9 403">
  <!-- Generator: Adobe Illustrator 29.3.0, SVG Export Plug-In . SVG Version: 2.1.0 Build 146)  -->
  <defs>
    <style>
      .st0, .st1, .st2 {
        fill: none;
      }

      .st3 {
        isolation: isolate;
      }

      .st4 {
        fill: #fff;
      }

      .st1 {
        stroke: #000;
      }

      .st1, .st2 {
        stroke-miterlimit: 10;
      }

      .st5 {
        fill: #221f1f;
      }

      .st2 {
        stroke: #221f1f;
        stroke-width: 2px;
      }
    </style>
  </defs>
  <g class="st3">
    <g class="st3">
      <g class="st3">
        <path class="st5" d="M863.5,368.9v-10.4h3.4c1.3,0,2.1,0,2.5.2.6.2,1.1.5,1.5,1s.6,1.2.6,2-.1,1.2-.3,1.6c-.2.4-.5.8-.9,1s-.7.4-1.1.5c-.5.1-1.2.1-2.2.1h-1.4v3.9h-2.1,0ZM865.6,360.3v3h1.2c.8,0,1.4,0,1.7-.2.3-.1.5-.3.7-.5s.2-.5.2-.8-.1-.7-.3-.9c-.2-.2-.5-.4-.8-.5-.2,0-.8,0-1.5,0h-1,0Z"/>
        <path class="st5" d="M878.1,368.9v-1.1c-.3.4-.6.7-1.1,1s-.9.4-1.4.4-1-.1-1.4-.3c-.4-.2-.7-.5-.9-.9-.2-.4-.3-1-.3-1.7v-4.8h2v3.5c0,1.1,0,1.7.1,2,0,.2.2.4.4.6s.4.2.7.2.7,0,.9-.3c.3-.2.5-.4.6-.7s.2-1,.2-2v-3.2h2v7.6h-1.9Z"/>
        <path class="st5" d="M884,368.9h-2v-7.6h1.9v1.1c.3-.5.6-.8.9-1,.2-.2.5-.2.9-.2s.9.1,1.3.4l-.6,1.7c-.3-.2-.7-.3-.9-.3s-.5,0-.7.2-.3.4-.5.8c-.1.4-.2,1.2-.2,2.5v2.3h0Z"/>
        <path class="st5" d="M887.7,360.3v-1.9h2v1.9h-2ZM887.7,368.9v-7.6h2v7.6h-2Z"/>
        <path class="st5" d="M890.9,361.4h1.1v-.6c0-.6,0-1.1.2-1.4.1-.3.4-.6.8-.8.4-.2.8-.3,1.4-.3s1.1,0,1.7.3l-.3,1.4c-.3,0-.6-.1-.9-.1s-.5,0-.6.2c-.1.1-.2.4-.2.8v.5h1.5v1.6h-1.5v6h-2v-6h-1.1v-1.6h0Z"/>
        <path class="st5" d="M896.6,360.3v-1.9h2v1.9h-2ZM896.6,368.9v-7.6h2v7.6h-2Z"/>
        <path class="st5" d="M907.3,363.6l-2,.4c0-.4-.2-.7-.5-.9-.2-.2-.5-.3-.9-.3s-.9.2-1.2.5c-.3.3-.4.9-.4,1.7s.2,1.5.5,1.9.7.6,1.2.6.7-.1.9-.3.4-.6.5-1.1l2,.3c-.2.9-.6,1.6-1.2,2-.6.5-1.3.7-2.3.7s-2-.4-2.6-1c-.7-.7-1-1.7-1-2.9s.3-2.2,1-2.9c.7-.7,1.5-1,2.7-1s1.7.2,2.2.6c.5.4.9,1,1.2,1.8h0Z"/>
        <path class="st5" d="M910.3,363.7l-1.8-.3c.2-.7.6-1.3,1-1.6.5-.4,1.2-.5,2.2-.5s1.6.1,2,.3.7.5.9.8.3.9.3,1.8v2.3c0,.7,0,1.1,0,1.5,0,.3.2.6.4,1h-2c0-.1-.1-.3-.2-.6,0-.1,0-.2,0-.2-.3.3-.7.6-1.1.8-.4.2-.8.2-1.2.2-.8,0-1.4-.2-1.8-.6s-.7-1-.7-1.6,0-.8.3-1.1c.2-.3.5-.6.9-.8s.9-.3,1.6-.5c.9-.2,1.6-.3,1.9-.5v-.2c0-.4,0-.7-.3-.8s-.5-.2-1.1-.2-.6,0-.8.2c-.2.1-.4.4-.5.7h0ZM912.9,365.3c-.3,0-.7.2-1.2.3-.5.1-.9.2-1.1.4-.3.2-.4.4-.4.7s0,.5.3.7c.2.2.5.3.8.3s.7-.1,1-.4c.2-.2.4-.4.5-.7,0-.2,0-.5,0-1v-.4h0Z"/>
        <path class="st5" d="M920.3,361.4v1.6h-1.4v3c0,.6,0,1,0,1.1,0,.1,0,.2.2.2,0,0,.2.1.3.1s.5,0,.8-.2l.2,1.5c-.5.2-1,.3-1.6.3s-.7,0-1-.2c-.3-.1-.5-.3-.6-.5s-.2-.5-.3-.8c0-.2,0-.7,0-1.4v-3.3h-.9v-1.6h.9v-1.5l2-1.2v2.7h1.4,0Z"/>
        <path class="st5" d="M921.7,360.3v-1.9h2v1.9h-2ZM921.7,368.9v-7.6h2v7.6h-2Z"/>
        <path class="st5" d="M925.3,365c0-.7.2-1.3.5-1.9s.8-1.1,1.4-1.4c.6-.3,1.3-.5,2-.5,1.1,0,2.1.4,2.8,1.1s1.1,1.7,1.1,2.8-.4,2.1-1.1,2.8-1.7,1.1-2.8,1.1-1.3-.2-2-.5-1.1-.8-1.4-1.4c-.3-.6-.5-1.3-.5-2.2h0ZM927.4,365.1c0,.8.2,1.3.5,1.7s.8.6,1.3.6,1-.2,1.3-.6.5-1,.5-1.7-.2-1.3-.5-1.7-.8-.6-1.3-.6-1,.2-1.3.6-.5,1-.5,1.7h0Z"/>
        <path class="st5" d="M941.6,368.9h-2v-3.9c0-.8,0-1.3-.1-1.6s-.2-.4-.4-.6c-.2-.1-.4-.2-.7-.2s-.7,0-.9.3-.5.4-.6.8c0,.3-.2.9-.2,1.7v3.4h-2v-7.6h1.9v1.1c.7-.9,1.5-1.3,2.5-1.3s.8,0,1.2.2.6.4.8.6.3.5.4.8.1.8.1,1.3v4.7h0Z"/>
      </g>
    </g>
  </g>
  <rect class="st4" x="815.7" y="228.8" width="4.5" height="11.5" rx=".2" ry=".2"/>
  <g>
    <line class="st2" x1="1072.4" y1="261.5" x2="1116.1" y2="261.5"/>
    <polygon class="st5" points="1126.7 261.5 1111.8 267.6 1115.3 261.5 1111.8 255.4 1126.7 261.5"/>
  </g>
  <g>
    <line class="st2" x1="785.6" y1="258.4" x2="829.3" y2="258.4"/>
    <polygon class="st5" points="839.9 258.4 824.9 264.5 828.5 258.4 824.9 252.3 839.9 258.4"/>
  </g>
  <g class="st3">
    <g>
      <path d="M329.1,25.9l3.9,1.2c-.6,2.2-1.6,3.8-3,4.9-1.4,1.1-3.2,1.6-5.3,1.6s-4.9-.9-6.6-2.7-2.6-4.3-2.6-7.5.9-5.9,2.6-7.8,4-2.8,6.8-2.8,4.4.7,6,2.2c.9.9,1.6,2.1,2,3.7l-4,1c-.2-1-.7-1.9-1.5-2.5s-1.7-.9-2.7-.9-2.7.5-3.6,1.6-1.4,2.8-1.4,5.2.5,4.3,1.4,5.4c.9,1.1,2.1,1.6,3.5,1.6s2-.3,2.8-1c.8-.7,1.3-1.8,1.7-3.2h0Z"/>
      <path d="M336.5,13.3h4v10.9c0,1.7,0,2.8.1,3.3.2.8.6,1.5,1.2,2s1.5.8,2.7.8,2-.2,2.6-.7c.6-.5.9-1,1-1.7s.2-1.8.2-3.4v-11.1h4v10.5c0,2.4-.1,4.1-.3,5.1-.2,1-.6,1.8-1.2,2.5s-1.4,1.2-2.4,1.6-2.3.6-3.9.6-3.4-.2-4.4-.7c-1-.4-1.8-1-2.3-1.7-.6-.7-1-1.5-1.1-2.2-.3-1.2-.4-2.8-.4-5.1v-10.7h0Z"/>
      <path d="M355.7,26.8l3.9-.4c.2,1.3.7,2.3,1.4,2.9s1.7.9,2.9.9,2.3-.3,3-.8c.7-.5,1-1.2,1-1.9s-.1-.9-.4-1.2c-.3-.3-.8-.6-1.5-.9-.5-.2-1.5-.5-3.2-.9-2.2-.5-3.7-1.2-4.6-2-1.2-1.1-1.9-2.5-1.9-4s.3-2,.9-2.9c.6-.9,1.4-1.6,2.5-2s2.4-.7,3.9-.7c2.5,0,4.4.5,5.7,1.7,1.3,1.1,1.9,2.6,2,4.4l-4,.2c-.2-1-.5-1.8-1.1-2.2-.6-.5-1.4-.7-2.6-.7s-2.1.2-2.8.7c-.4.3-.6.7-.6,1.2s.2.9.6,1.2c.5.4,1.8.9,3.7,1.3s3.4,1,4.4,1.4c.9.5,1.7,1.2,2.2,2s.8,1.9.8,3.2-.3,2.2-1,3.2c-.6,1-1.5,1.8-2.7,2.2-1.2.5-2.6.7-4.4.7-2.5,0-4.5-.6-5.8-1.8s-2.2-2.9-2.4-5.1h0Z"/>
      <path d="M379.9,33.3v-16.6h-6v-3.4h15.9v3.4h-5.9v16.7s-4,0-4,0Z"/>
      <path d="M391.2,23.4c0-2,.3-3.8.9-5.1.5-1,1.1-1.9,1.9-2.8s1.6-1.4,2.6-1.8c1.2-.5,2.7-.8,4.3-.8,3,0,5.3.9,7.1,2.8s2.7,4.4,2.7,7.6-.9,5.8-2.6,7.6c-1.8,1.8-4.1,2.7-7,2.7s-5.4-.9-7.1-2.7c-1.8-1.8-2.6-4.3-2.6-7.5h0ZM395.3,23.3c0,2.3.5,4,1.6,5.2,1,1.2,2.4,1.8,4,1.8s2.9-.6,4-1.7,1.5-2.9,1.5-5.2-.5-4-1.5-5.1-2.3-1.7-4-1.7-3,.6-4,1.7c-1,1.1-1.5,2.9-1.5,5.2h0Z"/>
      <path d="M413.7,33.3V13.3h6.1l3.6,13.7,3.6-13.7h6.1v20h-3.8v-15.8l-4,15.8h-3.9l-4-15.8v15.8h-3.8Z"/>
      <path d="M461.9,33.3h-4.4l-1.8-4.5h-8l-1.6,4.5h-4.3l7.8-20h4.3l8,20h0ZM454.5,25.4l-2.8-7.4-2.7,7.4h5.5Z"/>
      <path d="M464.1,33.3V13.3h3.9l8.2,13.4v-13.4h3.8v20h-4.1l-8.1-13.1v13.1h-3.8Z"/>
      <path d="M488.8,33.3v-16.6h-6v-3.4h15.9v3.4h-5.9v16.7s-4,0-4,0Z"/>
      <path d="M501.3,33.3V13.3h4v20h-4Z"/>
      <path d="M518.5,25.9v-3.4h8.7v8c-.9.8-2.1,1.5-3.7,2.2-1.6.6-3.2.9-4.9.9s-3.9-.4-5.5-1.3-2.7-2.1-3.5-3.8c-.8-1.6-1.2-3.4-1.2-5.3s.4-3.9,1.3-5.6c.9-1.6,2.2-2.9,3.8-3.7,1.3-.7,2.9-1,4.8-1s4.4.5,5.8,1.6c1.4,1,2.3,2.5,2.7,4.3l-4,.8c-.3-1-.8-1.8-1.6-2.3-.8-.6-1.8-.8-2.9-.8-1.8,0-3.2.6-4.2,1.7-1,1.1-1.6,2.8-1.6,5s.5,4.2,1.6,5.3,2.4,1.8,4.2,1.8,1.7-.2,2.5-.5c.9-.3,1.6-.7,2.2-1.2v-2.5h-4.6,0Z"/>
      <path d="M530.9,33.3V13.3h14.9v3.4h-10.8v4.4h10.1v3.4h-10.1v5.5h11.2v3.4h-15.2Z"/>
      <path d="M549.7,33.3V13.3h3.9l8.2,13.4v-13.4h3.8v20h-4.1l-8.1-13.1v13.1h-3.8Z"/>
      <path d="M576.6,26.8l3.9-.4c.2,1.3.7,2.3,1.4,2.9.7.6,1.7.9,2.9.9s2.3-.3,3-.8c.7-.5,1-1.2,1-1.9s-.1-.9-.4-1.2c-.3-.3-.8-.6-1.5-.9-.5-.2-1.5-.5-3.2-.9-2.2-.5-3.7-1.2-4.6-2-1.2-1.1-1.8-2.5-1.8-4s.3-2,.9-2.9c.6-.9,1.4-1.6,2.5-2s2.4-.7,3.9-.7c2.5,0,4.4.5,5.7,1.7,1.3,1.1,1.9,2.6,2,4.4l-4,.2c-.2-1-.5-1.8-1.1-2.2s-1.4-.7-2.6-.7-2.1.2-2.8.7c-.4.3-.6.7-.6,1.2s.2.9.6,1.2c.5.4,1.8.9,3.7,1.3s3.4,1,4.4,1.4c.9.5,1.7,1.2,2.2,2s.8,1.9.8,3.2-.3,2.2-1,3.2c-.6,1-1.5,1.8-2.7,2.2-1.2.5-2.6.7-4.4.7-2.5,0-4.5-.6-5.8-1.8-1.4-1.2-2.2-2.9-2.4-5.1h0Z"/>
      <path d="M596.3,13.3h4v10.9c0,1.7,0,2.8.2,3.3.2.8.6,1.5,1.2,2,.7.5,1.5.8,2.7.8s2-.2,2.6-.7c.6-.5.9-1,1-1.7s.2-1.8.2-3.4v-11.1h4v10.5c0,2.4-.1,4.1-.3,5.1-.2,1-.6,1.8-1.2,2.5s-1.4,1.2-2.4,1.6-2.3.6-3.9.6-3.4-.2-4.3-.7c-1-.4-1.8-1-2.3-1.7-.6-.7-1-1.5-1.1-2.2-.3-1.2-.4-2.8-.4-5.1v-10.7h0Z"/>
      <path d="M616.5,33.3V13.3h6.5c2.5,0,4.1,0,4.8.3,1.2.3,2.1,1,2.9,2,.8,1,1.2,2.3,1.2,3.9s-.2,2.3-.7,3.1c-.5.8-1,1.5-1.7,2s-1.4.8-2.1,1c-1,.2-2.4.3-4.2.3h-2.6v7.6h-4,0ZM620.6,16.7v5.7h2.2c1.6,0,2.7,0,3.2-.3.5-.2,1-.5,1.3-1,.3-.5.5-1,.5-1.6s-.2-1.3-.6-1.8c-.4-.5-1-.8-1.6-.9-.5,0-1.5-.1-2.9-.1h-2,0Z"/>
      <path d="M635.2,33.3V13.3h6.5c2.5,0,4.1,0,4.8.3,1.2.3,2.1,1,2.9,2,.8,1,1.2,2.3,1.2,3.9s-.2,2.3-.7,3.1c-.5.8-1,1.5-1.7,2s-1.4.8-2.1,1c-1,.2-2.4.3-4.2.3h-2.6v7.6h-4,0ZM639.2,16.7v5.7h2.2c1.6,0,2.7,0,3.2-.3.5-.2,1-.5,1.3-1,.3-.5.5-1,.5-1.6s-.2-1.3-.6-1.8c-.4-.5-1-.8-1.6-.9-.5,0-1.5-.1-2.9-.1h-2,0Z"/>
      <path d="M654,33.3V13.4h4v16.5h10.1v3.4h-14.1Z"/>
      <path d="M673.7,33.3v-8.4l-7.3-11.6h4.7l4.7,7.9,4.6-7.9h4.7l-7.4,11.6v8.4h-4,0Z"/>
      <path d="M701.7,28v-3.8h7.5v3.8h-7.5Z"/>
      <path d="M727,13.3h7.4c1.7,0,2.9.1,3.8.4,1.2.3,2.2,1,3,1.8.8.9,1.5,2,1.9,3.2.4,1.3.7,2.9.7,4.7s-.2,3.1-.6,4.3c-.5,1.5-1.2,2.6-2.2,3.5-.7.7-1.7,1.2-2.8,1.6-.9.3-2.1.4-3.6.4h-7.6V13.3h0ZM731,16.7v13.3h3c1.1,0,2,0,2.5-.2.7-.2,1.2-.4,1.6-.8.4-.4.8-1,1.1-1.9.3-.9.4-2.1.4-3.7s-.1-2.7-.4-3.6c-.3-.8-.7-1.5-1.2-1.9s-1.1-.8-1.9-.9c-.6-.1-1.7-.2-3.3-.2h-1.8Z"/>
      <path d="M755.6,28.7l3.8.6c-.5,1.4-1.3,2.5-2.3,3.2-1.1.7-2.4,1.1-4,1.1-2.5,0-4.4-.8-5.6-2.5-1-1.3-1.4-3-1.4-5s.6-4.3,1.9-5.7,2.8-2,4.8-2,3.9.7,5.1,2.1,1.8,3.6,1.8,6.6h-9.6c0,1.1.3,2,.9,2.7.6.6,1.3,1,2.2,1s1.1-.2,1.5-.5.7-.9.9-1.6h0ZM755.8,24.8c0-1.1-.3-2-.9-2.5s-1.2-.9-2-.9-1.5.3-2.1.9c-.5.6-.8,1.4-.8,2.5h5.8Z"/>
      <path d="M761.4,29.2l3.9-.6c.2.8.5,1.3,1,1.7s1.2.6,2.1.6,1.7-.2,2.2-.5c.3-.2.5-.6.5-1s0-.5-.3-.7c-.2-.2-.6-.3-1.3-.5-3.1-.7-5.1-1.3-5.9-1.9-1.2-.8-1.7-1.9-1.7-3.3s.5-2.3,1.5-3.2,2.5-1.3,4.6-1.3,3.5.3,4.4,1,1.6,1.6,2,2.9l-3.6.7c-.2-.6-.5-1-.9-1.3s-1-.5-1.8-.5-1.7.1-2.2.4c-.3.2-.4.5-.4.8s.1.5.4.7c.3.3,1.5.6,3.6,1.1,2,.5,3.5,1,4.3,1.7.8.7,1.2,1.6,1.2,2.9s-.6,2.5-1.7,3.4-2.8,1.4-4.9,1.4-3.5-.4-4.7-1.2c-1.2-.8-1.9-1.9-2.3-3.3h0Z"/>
      <path d="M778.3,16.8v-3.5h3.8v3.5h-3.8ZM778.3,33.3v-14.5h3.8v14.5h-3.8Z"/>
      <path d="M785.8,34.3l4.4.5c0,.5.2.9.5,1,.4.3.9.4,1.7.4s1.8-.2,2.3-.5c.3-.2.6-.5.8-1,.1-.3.2-.9.2-1.8v-2.1c-1.2,1.6-2.6,2.3-4.3,2.3s-3.5-.8-4.6-2.5c-.9-1.3-1.3-2.9-1.3-4.9s.6-4.3,1.8-5.6c1.2-1.3,2.6-1.9,4.4-1.9s3.3.8,4.4,2.4v-2h3.6v13c0,1.7-.1,3-.4,3.8-.3.8-.7,1.5-1.2,2-.5.5-1.2.9-2,1.1s-1.9.4-3.2.4c-2.5,0-4.2-.4-5.2-1.3-1-.8-1.5-1.9-1.5-3.2s0-.3,0-.5h0ZM789.2,25.7c0,1.5.3,2.7.9,3.4.6.7,1.3,1.1,2.2,1.1s1.7-.4,2.4-1.1,1-1.8,1-3.3-.3-2.6-.9-3.3-1.4-1.1-2.3-1.1-1.7.4-2.3,1.1c-.6.7-.9,1.8-.9,3.3h0Z"/>
      <path d="M816.4,33.3h-3.8v-7.4c0-1.6,0-2.6-.2-3-.2-.5-.4-.8-.8-1.1s-.8-.4-1.3-.4-1.3.2-1.8.5c-.5.4-.9.8-1.1,1.5-.2.6-.3,1.7-.3,3.3v6.6h-3.8v-14.5h3.6v2.1c1.3-1.6,2.9-2.5,4.8-2.5s1.6.2,2.3.5c.7.3,1.2.7,1.6,1.2.4.5.6,1,.8,1.6.1.6.2,1.5.2,2.6v9h0Z"/>
      <path d="M834.8,18.8v3.1h-2.6v5.8c0,1.2,0,1.9,0,2.1,0,.2.2.4.3.5.2.1.4.2.7.2s.9-.1,1.5-.4l.3,3c-.9.4-1.9.6-3,.6s-1.3-.1-1.9-.3c-.6-.2-1-.5-1.2-.9s-.4-.9-.5-1.5c0-.5-.1-1.3-.1-2.7v-6.3h-1.8v-3.1h1.8v-2.9l3.9-2.2v5.1h2.6,0Z"/>
      <path d="M836.5,25.8c0-1.3.3-2.5.9-3.7.6-1.2,1.5-2.1,2.7-2.7,1.2-.6,2.4-.9,3.9-.9,2.2,0,4,.7,5.4,2.1s2.1,3.2,2.1,5.4-.7,4-2.1,5.5-3.2,2.2-5.3,2.2-2.6-.3-3.8-.9c-1.2-.6-2.1-1.5-2.8-2.7s-.9-2.6-.9-4.2ZM840.5,26c0,1.4.3,2.5,1,3.3s1.5,1.2,2.5,1.2,1.8-.4,2.5-1.2,1-1.9,1-3.3-.3-2.5-1-3.3c-.7-.8-1.5-1.2-2.5-1.2s-1.8.4-2.5,1.2-1,1.9-1,3.3Z"/>
      <path d="M862.3,13.3h7.4c1.7,0,2.9.1,3.8.4,1.2.3,2.2,1,3,1.8.8.9,1.5,2,1.9,3.2.4,1.3.7,2.9.7,4.7s-.2,3.1-.6,4.3c-.5,1.5-1.2,2.6-2.2,3.5-.7.7-1.7,1.2-2.8,1.6-.9.3-2.1.4-3.6.4h-7.6V13.3h0ZM866.4,16.7v13.3h3c1.1,0,2,0,2.5-.2.7-.2,1.2-.4,1.6-.8.4-.4.8-1,1.1-1.9.3-.9.4-2.1.4-3.7s-.1-2.7-.4-3.6c-.3-.8-.7-1.5-1.2-1.9s-1.1-.8-1.9-.9c-.6-.1-1.7-.2-3.3-.2h-1.8Z"/>
      <path d="M890.9,28.7l3.8.6c-.5,1.4-1.3,2.5-2.3,3.2-1.1.7-2.4,1.1-4,1.1-2.5,0-4.4-.8-5.6-2.5-1-1.3-1.4-3-1.4-5s.6-4.3,1.9-5.7,2.8-2,4.8-2,3.9.7,5.1,2.1,1.8,3.6,1.8,6.6h-9.6c0,1.1.3,2,.9,2.7.6.6,1.3,1,2.2,1s1.1-.2,1.5-.5.7-.9.9-1.6h0ZM891.2,24.8c0-1.1-.3-2-.9-2.5s-1.2-.9-2-.9-1.5.3-2.1.9c-.5.6-.8,1.4-.8,2.5h5.8Z"/>
      <path d="M898.1,33.3V13.3h3.8v20h-3.8Z"/>
      <path d="M905.9,16.8v-3.5h3.8v3.5h-3.8ZM905.9,33.3v-14.5h3.8v14.5h-3.8Z"/>
      <path d="M917.7,33.3l-5.8-14.5h4l2.7,7.4.8,2.5c.2-.6.3-1,.4-1.2.1-.4.3-.8.4-1.2l2.8-7.4h4l-5.8,14.5h-3.5,0Z"/>
      <path d="M937.6,28.7l3.8.6c-.5,1.4-1.3,2.5-2.3,3.2-1.1.7-2.4,1.1-4,1.1-2.5,0-4.4-.8-5.6-2.5-1-1.3-1.4-3-1.4-5s.6-4.3,1.9-5.7,2.8-2,4.8-2,3.9.7,5.1,2.1,1.8,3.6,1.8,6.6h-9.6c0,1.1.3,2,.9,2.7.6.6,1.3,1,2.2,1s1.1-.2,1.5-.5.7-.9.9-1.6h0ZM937.9,24.8c0-1.1-.3-2-.9-2.5s-1.2-.9-2-.9-1.5.3-2.1.9c-.5.6-.8,1.4-.8,2.5h5.8Z"/>
      <path d="M948.5,33.3h-3.8v-14.5h3.6v2.1c.6-1,1.2-1.6,1.7-1.9.5-.3,1-.5,1.7-.5.9,0,1.7.2,2.5.7l-1.2,3.3c-.7-.4-1.2-.6-1.8-.6s-1,.2-1.4.4c-.4.3-.7.8-.9,1.6-.2.8-.3,2.4-.3,4.9v4.5h0Z"/>
      <path d="M953.9,18.8h4.1l3.5,10.3,3.4-10.3h4l-5.1,14-.9,2.5c-.3.8-.7,1.5-1,1.9-.3.4-.7.8-1,1.1-.4.3-.9.5-1.5.7-.6.2-1.2.2-2,.2s-1.5,0-2.2-.2l-.3-3c.6.1,1.1.2,1.6.2.9,0,1.5-.3,2-.8.4-.5.8-1.2,1-2l-5.5-14.6h0Z"/>
    </g>
  </g>
  <rect class="st1" x="865.5" y="275.7" width="73.9" height="70.6" rx="8.5" ry="8.5"/>
  <g class="st3">
    <g class="st3">
      <g class="st3">
        <path class="st5" d="M879.2,242.3h3.8c.9,0,1.5,0,2,.2.6.2,1.1.5,1.6,1s.8,1,1,1.7.3,1.5.3,2.5-.1,1.6-.3,2.2c-.3.8-.6,1.4-1.1,1.8-.4.4-.9.6-1.5.8-.5.1-1.1.2-1.9.2h-4v-10.4h0ZM881.3,244v6.9h1.6c.6,0,1,0,1.3-.1.3,0,.6-.2.8-.4.2-.2.4-.5.5-1s.2-1.1.2-1.9,0-1.4-.2-1.9-.3-.8-.6-1c-.3-.2-.6-.4-1-.5-.3,0-.9-.1-1.7-.1h-1,0Z"/>
        <path class="st5" d="M894.1,250.3l2,.3c-.3.7-.7,1.3-1.2,1.7-.5.4-1.2.6-2.1.6-1.3,0-2.3-.4-2.9-1.3-.5-.7-.8-1.6-.8-2.6s.3-2.2,1-2.9c.7-.7,1.5-1.1,2.5-1.1s2,.4,2.7,1.1c.7.7,1,1.9.9,3.4h-5c0,.6.2,1,.5,1.4.3.3.7.5,1.2.5s.6,0,.8-.3c.2-.2.4-.5.5-.8h0ZM894.2,248.3c0-.6-.2-1-.5-1.3-.3-.3-.6-.5-1-.5s-.8.2-1.1.5c-.3.3-.4.8-.4,1.3h3Z"/>
        <path class="st5" d="M897.1,250.5l2-.3c0,.4.3.7.5.9.3.2.6.3,1.1.3s.9,0,1.2-.3c.2-.1.3-.3.3-.5s0-.3-.1-.4c0,0-.3-.2-.7-.3-1.6-.4-2.6-.7-3.1-1-.6-.4-.9-1-.9-1.7s.3-1.2.8-1.6c.5-.5,1.3-.7,2.4-.7s1.8.2,2.3.5.8.8,1,1.5l-1.9.4c0-.3-.2-.5-.5-.7-.2-.2-.5-.2-1-.2s-.9,0-1.1.2c-.2.1-.2.2-.2.4s0,.3.2.4c.2.1.8.3,1.9.6,1.1.2,1.8.5,2.2.9.4.4.6.9.6,1.5s-.3,1.3-.9,1.8-1.4.8-2.6.8-1.8-.2-2.4-.6-1-1-1.2-1.7h0Z"/>
        <path class="st5" d="M905.9,244.1v-1.9h2v1.9h-2ZM905.9,252.7v-7.6h2v7.6h-2Z"/>
        <path class="st5" d="M909.8,253.2l2.3.3c0,.3.1.5.3.5.2.1.5.2.9.2s.9,0,1.2-.2c.2-.1.3-.3.4-.5,0-.2,0-.5,0-.9v-1.1c-.6.8-1.3,1.2-2.3,1.2s-1.8-.4-2.4-1.3c-.5-.7-.7-1.5-.7-2.5s.3-2.2.9-2.9c.6-.7,1.4-1,2.3-1s1.7.4,2.3,1.2v-1.1h1.9v6.8c0,.9,0,1.6-.2,2-.2.4-.3.8-.6,1s-.6.5-1.1.6c-.4.1-1,.2-1.7.2-1.3,0-2.2-.2-2.7-.7-.5-.4-.8-1-.8-1.7v-.2h0ZM911.6,248.7c0,.8.2,1.4.5,1.8s.7.6,1.2.6.9-.2,1.2-.6c.3-.4.5-1,.5-1.7s-.2-1.4-.5-1.7-.7-.6-1.2-.6-.9.2-1.2.6-.5.9-.5,1.7h0Z"/>
        <path class="st5" d="M925.8,252.7h-2v-3.9c0-.8,0-1.3-.1-1.6s-.2-.4-.4-.6c-.2-.1-.4-.2-.7-.2s-.7,0-.9.3-.5.4-.6.8c0,.3-.2.9-.2,1.7v3.4h-2v-7.6h1.9v1.1c.7-.9,1.5-1.3,2.5-1.3s.8,0,1.2.2.6.4.8.6.3.5.4.8.1.8.1,1.3v4.7h0Z"/>
      </g>
    </g>
  </g>
  <rect class="st1" x="865.5" y="159.4" width="73.9" height="70.6" rx="8.6" ry="8.6"/>
  <g class="st3">
    <g class="st3">
      <g class="st3">
        <path class="st5" d="M984,252.7v-10.4h7.7v1.8h-5.6v2.3h5.2v1.8h-5.2v2.8h5.8v1.8h-7.9Z"/>
        <path class="st5" d="M992.7,252.7l2.7-3.9-2.6-3.7h2.4l1.3,2.1,1.4-2.1h2.3l-2.6,3.6,2.8,4h-2.5l-1.5-2.3-1.5,2.3h-2.3Z"/>
        <path class="st5" d="M1001.7,245.1h1.9v1.1c.2-.4.6-.7,1-.9.4-.2.9-.4,1.4-.4.9,0,1.6.3,2.2,1s.9,1.6.9,2.9-.3,2.2-.9,2.9c-.6.7-1.4,1-2.2,1s-.8,0-1.1-.2-.7-.5-1.1-.9v3.8h-2v-10.4h0ZM1003.7,248.8c0,.9.2,1.5.5,1.9.3.4.8.6,1.2.6s.8-.2,1.2-.6.5-1,.5-1.8-.2-1.4-.5-1.8-.7-.6-1.2-.6-.9.2-1.2.6-.5.9-.5,1.7h0Z"/>
        <path class="st5" d="M1012.6,252.7h-2v-7.6h1.9v1.1c.3-.5.6-.8.9-1s.5-.2.9-.2c.5,0,.9.1,1.3.4l-.6,1.7c-.3-.2-.7-.3-.9-.3s-.5,0-.7.2-.3.4-.5.8-.2,1.2-.2,2.5v2.3h0Z"/>
        <path class="st5" d="M1020.7,250.3l2,.3c-.3.7-.7,1.3-1.2,1.7-.5.4-1.2.6-2.1.6-1.3,0-2.3-.4-2.9-1.3-.5-.7-.8-1.6-.8-2.6s.3-2.2,1-2.9,1.5-1.1,2.5-1.1,2,.4,2.7,1.1,1,1.9.9,3.4h-5c0,.6.2,1,.5,1.4.3.3.7.5,1.2.5s.6,0,.8-.3.4-.5.5-.8h0ZM1020.8,248.3c0-.6-.2-1-.5-1.3-.3-.3-.6-.5-1-.5s-.8.2-1.1.5-.4.8-.4,1.3h3Z"/>
        <path class="st5" d="M1023.7,250.5l2-.3c0,.4.3.7.5.9.3.2.6.3,1.1.3s.9,0,1.2-.3c.2-.1.3-.3.3-.5s0-.3-.1-.4c0,0-.3-.2-.7-.3-1.6-.4-2.6-.7-3.1-1-.6-.4-.9-1-.9-1.7s.3-1.2.8-1.6c.5-.5,1.3-.7,2.4-.7s1.8.2,2.3.5.8.8,1,1.5l-1.9.4c0-.3-.2-.5-.5-.7-.2-.2-.5-.2-1-.2s-.9,0-1.1.2c-.2.1-.2.2-.2.4s0,.3.2.4c.2.1.8.3,1.9.6s1.8.5,2.2.9c.4.4.6.9.6,1.5s-.3,1.3-.9,1.8-1.4.8-2.6.8-1.8-.2-2.4-.6-1-1-1.2-1.7h0Z"/>
        <path class="st5" d="M1031.8,250.5l2-.3c0,.4.3.7.5.9.3.2.6.3,1.1.3s.9,0,1.2-.3c.2-.1.3-.3.3-.5s0-.3-.1-.4c0,0-.3-.2-.7-.3-1.6-.4-2.6-.7-3.1-1-.6-.4-.9-1-.9-1.7s.3-1.2.8-1.6c.5-.5,1.3-.7,2.4-.7s1.8.2,2.3.5.8.8,1,1.5l-1.9.4c0-.3-.2-.5-.5-.7-.2-.2-.5-.2-1-.2s-.9,0-1.1.2c-.2.1-.2.2-.2.4s0,.3.2.4c.2.1.8.3,1.9.6s1.8.5,2.2.9c.4.4.6.9.6,1.5s-.3,1.3-.9,1.8-1.4.8-2.6.8-1.8-.2-2.4-.6-1-1-1.2-1.7h0Z"/>
        <path class="st5" d="M1040.7,244.1v-1.9h2v1.9h-2ZM1040.7,252.7v-7.6h2v7.6h-2Z"/>
        <path class="st5" d="M1044.2,248.8c0-.7.2-1.3.5-1.9s.8-1.1,1.4-1.4c.6-.3,1.3-.5,2-.5,1.1,0,2.1.4,2.8,1.1s1.1,1.7,1.1,2.8-.4,2.1-1.1,2.8-1.7,1.1-2.8,1.1-1.3-.2-2-.5-1.1-.8-1.4-1.4c-.3-.6-.5-1.3-.5-2.2h0ZM1046.3,248.9c0,.8.2,1.3.5,1.7s.8.6,1.3.6,1-.2,1.3-.6.5-1,.5-1.7-.2-1.3-.5-1.7-.8-.6-1.3-.6-1,.2-1.3.6-.5,1-.5,1.7h0Z"/>
        <path class="st5" d="M1060.5,252.7h-2v-3.9c0-.8,0-1.3-.1-1.6s-.2-.4-.4-.6c-.2-.1-.4-.2-.7-.2s-.7,0-.9.3-.5.4-.6.8c0,.3-.2.9-.2,1.7v3.4h-2v-7.6h1.9v1.1c.7-.9,1.5-1.3,2.5-1.3s.8,0,1.2.2.6.4.8.6.3.5.4.8.1.8.1,1.3v4.7h0Z"/>
      </g>
    </g>
  </g>
  <image class="st3" width="112" height="165" transform="translate(999.2 180.4) scale(.3 .2)" xlink:href="Antigens-1.png"/>
  <rect class="st1" x="980.4" y="159.4" width="73.9" height="70.6" rx="8.6" ry="8.6"/>
  <g class="st3">
    <g class="st3">
      <g class="st3">
        <path class="st5" d="M998.4,365c.5.4,1.1.7,1.7.9l-.8,1.5c-.3,0-.6-.2-.9-.4,0,0-.5-.3-1.4-.9-.7.3-1.4.5-2.3.5-1.6,0-2.9-.5-3.8-1.4-.9-.9-1.4-2.3-1.4-4s.5-3,1.4-4c.9-1,2.2-1.4,3.7-1.4s2.8.5,3.7,1.4,1.4,2.3,1.4,4-.1,1.7-.4,2.4c-.2.5-.5,1-.9,1.5h0ZM996.7,363.8c.3-.3.5-.7.6-1.1.1-.5.2-1,.2-1.5,0-1.2-.3-2.1-.8-2.7-.5-.6-1.2-.9-2.1-.9s-1.5.3-2.1.9c-.5.6-.8,1.5-.8,2.7s.3,2.1.8,2.7c.5.6,1.2.9,2,.9s.6,0,.9-.1c-.4-.3-.9-.5-1.3-.6l.6-1.2c.7.2,1.3.6,2,1.1h0Z"/>
        <path class="st5" d="M1008.1,362.5l2,.6c-.3,1.1-.8,2-1.6,2.5-.7.5-1.7.8-2.8.8s-2.5-.5-3.4-1.4-1.3-2.2-1.3-3.9.5-3.1,1.3-4c.9-1,2.1-1.4,3.5-1.4s2.3.4,3.1,1.1c.5.5.8,1.1,1.1,1.9l-2.1.5c-.1-.5-.4-1-.8-1.3s-.9-.5-1.4-.5-1.4.3-1.9.8-.7,1.5-.7,2.7.2,2.3.7,2.8c.5.6,1.1.8,1.8.8s1-.2,1.4-.5c.4-.4.7-.9.9-1.7h0Z"/>
        <path class="st5" d="M1019.4,358.8v1.6h-1.4v3c0,.6,0,1,0,1.1,0,.1,0,.2.2.2,0,0,.2.1.3.1.2,0,.5,0,.8-.2l.2,1.5c-.5.2-1,.3-1.6.3s-.7,0-1-.2-.5-.3-.6-.5c-.1-.2-.2-.5-.3-.8,0-.2,0-.7,0-1.4v-3.3h-.9v-1.6h.9v-1.5l2-1.2v2.7h1.4,0Z"/>
        <path class="st5" d="M1025.2,363.9l2,.3c-.3.7-.7,1.3-1.2,1.7-.5.4-1.2.6-2.1.6-1.3,0-2.3-.4-2.9-1.3-.5-.7-.8-1.6-.8-2.6s.3-2.2,1-2.9c.7-.7,1.5-1.1,2.5-1.1s2,.4,2.7,1.1c.7.7,1,1.9.9,3.4h-5c0,.6.2,1,.5,1.4.3.3.7.5,1.2.5s.6,0,.8-.3c.2-.2.4-.5.5-.8h0ZM1025.3,361.9c0-.6-.2-1-.5-1.3-.3-.3-.6-.5-1-.5s-.8.2-1.1.5c-.3.3-.4.8-.4,1.3h3Z"/>
        <path class="st5" d="M1028.2,364.2l2-.3c0,.4.3.7.5.9.3.2.6.3,1.1.3s.9,0,1.2-.3c.2-.1.3-.3.3-.5s0-.3-.1-.4c0,0-.3-.2-.7-.3-1.6-.4-2.6-.7-3.1-1-.6-.4-.9-1-.9-1.7s.3-1.2.8-1.6c.5-.5,1.3-.7,2.4-.7s1.8.2,2.3.5.8.8,1,1.5l-1.9.4c0-.3-.2-.5-.5-.7-.2-.2-.5-.2-1-.2s-.9,0-1.1.2c-.2.1-.2.2-.2.4s0,.3.2.4c.2.1.8.3,1.9.6,1.1.2,1.8.5,2.2.9.4.4.6.9.6,1.5s-.3,1.3-.9,1.8-1.4.8-2.6.8-1.8-.2-2.4-.6-1-1-1.2-1.7h0Z"/>
        <path class="st5" d="M1040.5,358.8v1.6h-1.4v3c0,.6,0,1,0,1.1,0,.1,0,.2.2.2,0,0,.2.1.3.1s.5,0,.8-.2l.2,1.5c-.5.2-1,.3-1.6.3s-.7,0-1-.2c-.3-.1-.5-.3-.6-.5s-.2-.5-.3-.8c0-.2,0-.7,0-1.4v-3.3h-.9v-1.6h.9v-1.5l2-1.2v2.7h1.4,0Z"/>
        <path class="st5" d="M1055.1,365.1l-1.2,1.5c-.6-.3-1.2-.7-1.7-1.2-.4.4-.9.7-1.3.8s-1,.3-1.7.3c-1.3,0-2.3-.4-2.9-1.1-.5-.6-.8-1.2-.8-2s.2-1.3.6-1.8,1-1,1.8-1.4c-.4-.4-.6-.8-.8-1.2-.2-.4-.3-.7-.3-1.1,0-.6.2-1.2.8-1.6.5-.4,1.2-.7,2.2-.7s1.6.2,2.1.7c.5.5.8,1,.8,1.7s-.1.8-.4,1.2-.8.8-1.5,1.3l1.4,1.9c.2-.3.3-.7.4-1.2l1.8.4c-.2.6-.3,1.1-.5,1.4-.1.3-.3.5-.4.7.2.2.5.4.9.7s.6.4.8.5h0ZM1048.9,361.6c-.5.2-.8.5-1,.8s-.3.7-.3,1,.1.8.4,1.1c.3.3.7.4,1.1.4s.6,0,.9-.2.6-.3.9-.6l-2-2.5h0ZM1049.7,359.4l.5-.4c.4-.3.6-.6.6-.9s0-.5-.3-.7c-.2-.2-.4-.3-.8-.3s-.6,0-.8.2-.3.3-.3.5.2.5.5.9l.5.6h0Z"/>
        <path class="st5" d="M991.5,383.8l-3.7-10.4h2.3l2.6,7.7,2.5-7.7h2.2l-3.7,10.4h-2.2,0Z"/>
        <path class="st5" d="M999.2,378.6l-1.8-.3c.2-.7.5-1.3,1-1.6s1.2-.5,2.2-.5,1.6.1,2,.3c.4.2.7.5.9.8s.3.9.3,1.8v2.3c0,.7,0,1.1,0,1.5,0,.3.2.6.4,1h-2c0-.1-.1-.3-.2-.6,0-.1,0-.2,0-.2-.3.3-.7.6-1.1.8s-.8.2-1.2.2c-.8,0-1.4-.2-1.8-.6s-.7-1-.7-1.6,0-.8.3-1.1c.2-.3.5-.6.9-.8s.9-.3,1.6-.5c.9-.2,1.6-.3,1.9-.5v-.2c0-.4,0-.7-.3-.8s-.5-.2-1.1-.2-.6,0-.8.2c-.2.1-.4.4-.5.7h0ZM1001.9,380.2c-.3,0-.7.2-1.2.3s-.9.2-1.1.4c-.3.2-.4.4-.4.7s0,.5.3.7.5.3.8.3.7-.1,1-.4c.2-.2.4-.4.5-.7,0-.2,0-.5,0-1v-.4h0Z"/>
        <path class="st5" d="M1005.8,383.8v-10.4h2v10.4h-2Z"/>
        <path class="st5" d="M1009.9,375.2v-1.9h2v1.9h-2ZM1009.9,383.8v-7.6h2v7.6h-2Z"/>
        <path class="st5" d="M1020.9,383.8h-1.9v-1.1c-.3.4-.7.8-1.1,1-.4.2-.8.3-1.3.3-.9,0-1.6-.4-2.2-1-.6-.7-.9-1.7-.9-2.9s.3-2.2.9-2.9,1.4-1,2.3-1,1.6.4,2.2,1v-3.8h2v10.4h0ZM1015.5,379.9c0,.8.1,1.4.3,1.8.3.5.8.8,1.3.8s.8-.2,1.2-.6c.3-.4.5-1,.5-1.8s-.2-1.5-.5-1.9c-.3-.4-.7-.6-1.2-.6s-.9.2-1.2.6-.5.9-.5,1.7h0Z"/>
        <path class="st5" d="M1024.3,378.6l-1.8-.3c.2-.7.6-1.3,1-1.6.5-.4,1.2-.5,2.2-.5s1.6.1,2,.3.7.5.9.8.3.9.3,1.8v2.3c0,.7,0,1.1,0,1.5,0,.3.2.6.4,1h-2c0-.1-.1-.3-.2-.6,0-.1,0-.2,0-.2-.3.3-.7.6-1.1.8-.4.2-.8.2-1.2.2-.8,0-1.4-.2-1.8-.6s-.7-1-.7-1.6,0-.8.3-1.1c.2-.3.5-.6.9-.8s.9-.3,1.6-.5c.9-.2,1.6-.3,1.9-.5v-.2c0-.4,0-.7-.3-.8s-.5-.2-1.1-.2-.6,0-.8.2c-.2.1-.4.4-.5.7h0ZM1027,380.2c-.3,0-.7.2-1.2.3-.5.1-.9.2-1.1.4-.3.2-.4.4-.4.7s0,.5.3.7c.2.2.5.3.8.3s.7-.1,1-.4c.2-.2.4-.4.5-.7,0-.2,0-.5,0-1v-.4h0Z"/>
        <path class="st5" d="M1034.4,376.3v1.6h-1.4v3c0,.6,0,1,0,1.1,0,.1,0,.2.2.2,0,0,.2.1.3.1s.5,0,.8-.2l.2,1.5c-.5.2-1,.3-1.6.3s-.7,0-1-.2c-.3-.1-.5-.3-.6-.5s-.2-.5-.3-.8c0-.2,0-.7,0-1.4v-3.3h-.9v-1.6h.9v-1.5l2-1.2v2.7h1.4,0Z"/>
        <path class="st5" d="M1035.8,375.2v-1.9h2v1.9h-2ZM1035.8,383.8v-7.6h2v7.6h-2Z"/>
        <path class="st5" d="M1039.4,379.9c0-.7.2-1.3.5-1.9s.8-1.1,1.4-1.4c.6-.3,1.3-.5,2-.5,1.1,0,2.1.4,2.8,1.1s1.1,1.7,1.1,2.8-.4,2.1-1.1,2.8-1.7,1.1-2.8,1.1-1.3-.2-2-.5-1.1-.8-1.4-1.4c-.3-.6-.5-1.3-.5-2.2h0ZM1041.4,380c0,.8.2,1.3.5,1.7s.8.6,1.3.6,1-.2,1.3-.6.5-1,.5-1.7-.2-1.3-.5-1.7-.8-.6-1.3-.6-1,.2-1.3.6-.5,1-.5,1.7h0Z"/>
        <path class="st5" d="M1055.6,383.8h-2v-3.9c0-.8,0-1.3-.1-1.6s-.2-.4-.4-.6c-.2-.1-.4-.2-.7-.2s-.7,0-.9.3-.5.4-.6.8c0,.3-.2.9-.2,1.7v3.4h-2v-7.6h1.9v1.1c.7-.9,1.5-1.3,2.5-1.3s.8,0,1.2.2.6.4.8.6.3.5.4.8.1.8.1,1.3v4.7h0Z"/>
      </g>
    </g>
  </g>
  <rect class="st1" x="980.4" y="275.7" width="73.9" height="70.6" rx="8.5" ry="8.5"/>
  <image class="st3" width="179" height="154" transform="translate(872 167.3) scale(.3)" xlink:href="Antigens-2.png"/>
  <image class="st3" width="142" height="180" transform="translate(882.6 279.4) scale(.3)" xlink:href="Antigens-3.png"/>
  <image class="st3" width="180" height="164" transform="translate(986.7 285.2) scale(.3)" xlink:href="Antigens-4.png"/>
  <g class="st3">
    <g class="st3">
      <g class="st3">
        <path class="st5" d="M1159.5,325.3l2.1-.2c.1.7.4,1.2.8,1.5.4.3.9.5,1.5.5s1.2-.1,1.5-.4c.3-.3.5-.6.5-1s0-.5-.2-.6-.4-.3-.8-.5c-.2,0-.8-.2-1.7-.5-1.1-.3-1.9-.6-2.4-1-.6-.6-1-1.3-1-2.1s.2-1,.4-1.5c.3-.5.7-.8,1.3-1.1.6-.2,1.2-.4,2.1-.4,1.3,0,2.3.3,3,.9.7.6,1,1.3,1,2.3h-2.1c0-.5-.3-.8-.6-1.1-.3-.2-.7-.4-1.3-.4s-1.1.1-1.4.4c-.2.2-.3.4-.3.6s0,.5.3.6c.3.2.9.5,1.9.7,1,.2,1.8.5,2.3.8s.9.6,1.2,1.1c.3.5.4,1,.4,1.7s-.2,1.2-.5,1.7-.8.9-1.4,1.2-1.4.4-2.3.4c-1.3,0-2.3-.3-3-.9-.7-.6-1.1-1.5-1.3-2.7h0Z"/>
        <path class="st5" d="M1174.8,328.7v-1.1c-.3.4-.6.7-1.1,1s-.9.4-1.4.4-1-.1-1.4-.3c-.4-.2-.7-.5-.9-.9-.2-.4-.3-1-.3-1.7v-4.8h2v3.5c0,1.1,0,1.7.1,2,0,.2.2.4.4.6s.4.2.7.2.7,0,.9-.3.5-.4.6-.7.2-1,.2-2v-3.2h2v7.6h-1.9Z"/>
        <path class="st5" d="M1178.6,321.1h1.9v1.1c.2-.4.6-.7,1-.9.4-.2.9-.4,1.4-.4.9,0,1.6.3,2.2,1s.9,1.6.9,2.9-.3,2.2-.9,2.9c-.6.7-1.4,1-2.2,1s-.8,0-1.1-.2-.7-.5-1.1-.9v3.8h-2v-10.4h0ZM1180.6,324.8c0,.9.2,1.5.5,1.9.3.4.8.6,1.2.6s.8-.2,1.2-.6.5-1,.5-1.8-.2-1.4-.5-1.8-.7-.6-1.2-.6-.9.2-1.2.6-.5.9-.5,1.7h0Z"/>
        <path class="st5" d="M1187.5,321.1h1.9v1.1c.2-.4.6-.7,1-.9.4-.2.9-.4,1.4-.4.9,0,1.6.3,2.2,1s.9,1.6.9,2.9-.3,2.2-.9,2.9c-.6.7-1.4,1-2.2,1s-.8,0-1.1-.2-.7-.5-1.1-.9v3.8h-2v-10.4h0ZM1189.5,324.8c0,.9.2,1.5.5,1.9.3.4.8.6,1.2.6s.8-.2,1.2-.6.5-1,.5-1.8-.2-1.4-.5-1.8-.7-.6-1.2-.6-.9.2-1.2.6c-.3.4-.5.9-.5,1.7h0Z"/>
        <path class="st5" d="M1196.5,328.7v-10.4h2v10.4h-2Z"/>
        <path class="st5" d="M1199.6,321.1h2.1l1.8,5.4,1.8-5.4h2.1l-2.7,7.3-.5,1.3c-.2.4-.3.8-.5,1s-.3.4-.6.6c-.2.1-.5.3-.8.3s-.6.1-1,.1-.8,0-1.1-.1l-.2-1.6c.3,0,.6,0,.8,0,.5,0,.8-.1,1-.4s.4-.6.5-1l-2.9-7.6h0Z"/>
      </g>
    </g>
  </g>
  <rect class="st1" x="1134.1" y="214.5" width="98.4" height="94" rx="8.6" ry="8.6"/>
  <image class="st3" width="210" height="152" transform="translate(1142.8 228.3) scale(.4)" xlink:href="Antigens-5.png"/>
  <image class="st3" width="160" height="164" transform="translate(579 304.5) scale(.3)" xlink:href="Antigens-6.png"/>
  <image class="st3" width="316" height="177" transform="translate(18.8 179.4) scale(.6)" xlink:href="Antigens-7.png"/>
  <image class="st3" width="247" height="216" transform="translate(491.5 126.5) scale(.5)" xlink:href="Antigens-8.png"/>
  <g class="st3">
    <g class="st3">
      <path class="st5" d="M27.4,305.1v-12.9h5.5c1.4,0,2.4.1,3,.4s1.1.6,1.5,1.2.6,1.3.6,2-.3,1.8-.9,2.4-1.4,1-2.6,1.2c.6.3,1,.7,1.4,1.1s.9,1.1,1.5,2.1l1.6,2.5h-3.1l-1.9-2.8c-.7-1-1.1-1.6-1.4-1.9s-.5-.4-.8-.5c-.3-.1-.7-.1-1.3-.1h-.5v5.4h-2.6,0ZM30,297.6h1.9c1.2,0,2,0,2.3-.2s.5-.3.7-.5.3-.6.3-1-.1-.8-.4-1-.6-.4-1-.5c-.2,0-.8,0-1.9,0h-2v3.3h0Z"/>
      <path class="st5" d="M45.8,302.1l2.5.4c-.3.9-.8,1.6-1.5,2.1s-1.5.7-2.6.7c-1.6,0-2.8-.5-3.6-1.6-.6-.9-.9-1.9-.9-3.2s.4-2.8,1.2-3.6,1.8-1.3,3.1-1.3,2.5.5,3.3,1.4c.8.9,1.2,2.3,1.1,4.2h-6.2c0,.7.2,1.3.6,1.7.4.4.9.6,1.4.6s.7-.1,1-.3.5-.5.6-1h0ZM46,299.6c0-.7-.2-1.3-.5-1.6-.4-.4-.8-.6-1.3-.6s-1,.2-1.3.6-.5.9-.5,1.6h3.7Z"/>
      <path class="st5" d="M58.6,298.5l-2.4.4c0-.5-.3-.9-.6-1.1s-.7-.4-1.1-.4-1.1.2-1.5.6-.5,1.1-.5,2.1.2,1.9.6,2.4.9.7,1.5.7.8-.1,1.2-.4.5-.7.6-1.4l2.4.4c-.2,1.1-.7,2-1.5,2.5s-1.7.9-2.9.9-2.5-.4-3.3-1.3-1.2-2-1.2-3.6.4-2.7,1.2-3.6c.8-.9,1.9-1.3,3.3-1.3s2,.2,2.7.7,1.2,1.2,1.5,2.2h0Z"/>
      <path class="st5" d="M59.9,300.3c0-.8.2-1.6.6-2.4s1-1.4,1.7-1.8,1.6-.6,2.5-.6c1.4,0,2.6.5,3.5,1.4s1.3,2.1,1.3,3.5-.5,2.6-1.4,3.5-2.1,1.4-3.4,1.4-1.7-.2-2.5-.6-1.4-1-1.8-1.7-.6-1.7-.6-2.7h0ZM62.4,300.4c0,.9.2,1.6.7,2.1s1,.7,1.6.7,1.2-.2,1.6-.7.7-1.2.7-2.1-.2-1.6-.7-2.1-1-.7-1.6-.7-1.2.2-1.6.7-.7,1.2-.7,2.1h0Z"/>
      <path class="st5" d="M71.2,295.7h2.3v1.3c.8-1,1.8-1.5,2.9-1.5s1.1.1,1.6.4.8.6,1.1,1.1c.4-.5.8-.9,1.3-1.1s1-.4,1.5-.4,1.3.1,1.7.4.8.7,1.1,1.2c.2.4.2,1,.2,1.9v6h-2.5v-5.3c0-.9,0-1.5-.2-1.8-.2-.4-.6-.5-1-.5s-.7.1-1,.3-.5.5-.7.9c-.1.4-.2,1-.2,1.9v4.5h-2.5v-5.1c0-.9,0-1.5-.1-1.8s-.2-.5-.4-.6-.4-.2-.8-.2-.7.1-1,.3-.5.5-.7.9-.2,1-.2,1.9v4.5h-2.5v-9.3h0Z"/>
      <path class="st5" d="M87.3,305.1v-12.9h2.5v4.6c.8-.9,1.7-1.3,2.7-1.3s2.1.4,2.8,1.2,1.1,2,1.1,3.5-.4,2.8-1.1,3.7-1.7,1.3-2.8,1.3-1.1-.1-1.6-.4c-.5-.3-1-.7-1.3-1.2v1.4h-2.3ZM89.8,300.2c0,1,.2,1.7.5,2.1.4.7,1,1,1.7,1s1-.2,1.4-.7c.4-.5.6-1.2.6-2.2s-.2-1.8-.6-2.3-.9-.7-1.5-.7-1.1.2-1.5.7-.6,1.2-.6,2.1h0Z"/>
      <path class="st5" d="M98.4,294.5v-2.3h2.5v2.3h-2.5ZM98.4,305.1v-9.3h2.5v9.3h-2.5Z"/>
      <path class="st5" d="M111.9,305.1h-2.5v-4.8c0-1,0-1.7-.2-2s-.3-.5-.5-.7-.5-.2-.9-.2-.8.1-1.2.4-.6.5-.7.9-.2,1.1-.2,2.1v4.2h-2.5v-9.3h2.3v1.4c.8-1,1.8-1.6,3.1-1.6s1,.1,1.5.3.8.5,1,.8.4.6.5,1,.1.9.1,1.7v5.8h0Z"/>
      <path class="st5" d="M116.3,298.6l-2.2-.4c.2-.9.7-1.6,1.3-2s1.5-.6,2.7-.6,1.9.1,2.5.4.9.6,1.1,1,.3,1.1.3,2.2v2.9c0,.8,0,1.4,0,1.8s.2.8.4,1.2h-2.4c0-.2-.1-.4-.2-.7,0-.1,0-.2,0-.3-.4.4-.9.7-1.3.9s-1,.3-1.5.3c-1,0-1.7-.3-2.3-.8s-.8-1.2-.8-2,.1-1,.4-1.4.6-.7,1.1-1c.4-.2,1.1-.4,2-.6,1.2-.2,1.9-.4,2.4-.6v-.2c0-.5-.1-.8-.3-1-.2-.2-.7-.3-1.3-.3s-.8,0-1,.3-.4.5-.6.9h0ZM119.6,300.6c-.3.1-.8.2-1.5.4s-1.1.3-1.3.4c-.3.2-.5.5-.5.9s.1.6.4.9.6.4,1,.4.9-.1,1.3-.4c.3-.2.5-.5.6-.8,0-.2,0-.6,0-1.2v-.5h0Z"/>
      <path class="st5" d="M132.9,305.1h-2.5v-4.8c0-1,0-1.7-.2-2s-.3-.5-.5-.7-.5-.2-.9-.2-.8.1-1.2.4-.6.5-.7.9-.2,1.1-.2,2.1v4.2h-2.5v-9.3h2.3v1.4c.8-1,1.8-1.6,3.1-1.6s1,.1,1.5.3.8.5,1,.8.4.6.5,1,.1.9.1,1.7v5.8h0Z"/>
      <path class="st5" d="M139.7,295.7v2h-1.7v3.8c0,.8,0,1.2,0,1.3s.1.2.2.3.2.1.4.1.6,0,1-.2l.2,1.9c-.6.2-1.2.4-1.9.4s-.8,0-1.2-.2c-.4-.1-.6-.3-.8-.6s-.3-.6-.3-1c0-.3,0-.9,0-1.7v-4.1h-1.1v-2h1.1v-1.9l2.5-1.4v3.3h1.7,0Z"/>
      <path class="st5" d="M157.4,305.1h-2.8l-1.1-2.9h-5.1l-1.1,2.9h-2.8l5-12.9h2.8l5.2,12.9h0ZM152.6,300l-1.8-4.8-1.7,4.8h3.5Z"/>
      <path class="st5" d="M167.2,305.1h-2.5v-4.8c0-1,0-1.7-.2-2s-.3-.5-.5-.7-.5-.2-.9-.2-.8.1-1.1.4-.6.5-.7.9-.2,1.1-.2,2.1v4.2h-2.5v-9.3h2.3v1.4c.8-1,1.8-1.6,3.1-1.6s1,.1,1.5.3.8.5,1,.8.4.6.5,1,.1.9.1,1.7v5.8h0Z"/>
      <path class="st5" d="M174,295.7v2h-1.7v3.8c0,.8,0,1.2,0,1.3s.1.2.2.3.2.1.4.1.6,0,1-.2l.2,1.9c-.6.2-1.2.4-1.9.4s-.9,0-1.2-.2c-.4-.1-.6-.3-.8-.6s-.3-.6-.4-1c0-.3,0-.9,0-1.7v-4.1h-1.1v-2h1.1v-1.9l2.5-1.4v3.3h1.7,0Z"/>
      <path class="st5" d="M175.7,294.5v-2.3h2.5v2.3h-2.5ZM175.7,305.1v-9.3h2.5v9.3h-2.5Z"/>
      <path class="st5" d="M180.5,305.7l2.8.3c0,.3.2.5.3.7.2.2.6.3,1.1.3s1.1-.1,1.4-.3c.2-.1.4-.3.5-.6,0-.2.1-.6.1-1.1v-1.4c-.7,1-1.7,1.5-2.8,1.5s-2.2-.5-3-1.6c-.6-.8-.9-1.9-.9-3.1s.4-2.8,1.1-3.6,1.7-1.2,2.8-1.2,2.1.5,2.9,1.5v-1.3h2.3v8.4c0,1.1,0,1.9-.3,2.5s-.4,1-.8,1.3-.8.5-1.3.7-1.2.3-2.1.3c-1.6,0-2.7-.3-3.4-.8s-1-1.2-1-2.1v-.3h0ZM182.7,300.2c0,1,.2,1.7.6,2.2.4.5.9.7,1.4.7s1.1-.2,1.5-.7.6-1.2.6-2.1-.2-1.7-.6-2.1-.9-.7-1.5-.7-1.1.2-1.5.7-.6,1.2-.6,2.1h0Z"/>
      <path class="st5" d="M197.1,302.1l2.5.4c-.3.9-.8,1.6-1.5,2.1s-1.5.7-2.6.7c-1.6,0-2.8-.5-3.6-1.6-.6-.9-.9-1.9-.9-3.2s.4-2.8,1.2-3.6,1.8-1.3,3.1-1.3,2.5.5,3.3,1.4c.8.9,1.2,2.3,1.1,4.2h-6.2c0,.7.2,1.3.6,1.7s.9.6,1.4.6.7-.1,1-.3.5-.5.6-1h0ZM197.3,299.6c0-.7-.2-1.3-.6-1.6s-.8-.6-1.3-.6-1,.2-1.3.6-.5.9-.5,1.6h3.7Z"/>
      <path class="st5" d="M210.2,305.1h-2.5v-4.8c0-1,0-1.7-.2-2s-.3-.5-.5-.7-.5-.2-.9-.2-.8.1-1.1.4-.6.5-.7.9-.2,1.1-.2,2.1v4.2h-2.5v-9.3h2.3v1.4c.8-1,1.8-1.6,3.1-1.6s1,.1,1.5.3.8.5,1,.8.4.6.5,1,.1.9.1,1.7v5.8h0Z"/>
      <path class="st5" d="M211.9,302.4l2.5-.4c.1.5.3.9.6,1.1.3.2.8.4,1.4.4s1.1-.1,1.4-.4c.2-.2.3-.4.3-.7s0-.3-.2-.5c-.1-.1-.4-.2-.8-.3-2-.4-3.2-.8-3.8-1.2-.7-.5-1.1-1.2-1.1-2.1s.3-1.5,1-2,1.6-.8,3-.8,2.2.2,2.9.6,1.1,1,1.3,1.9l-2.3.4c-.1-.4-.3-.6-.6-.8s-.7-.3-1.2-.3-1.1,0-1.4.3c-.2.1-.3.3-.3.5s0,.3.2.5c.2.2,1,.4,2.3.7s2.2.7,2.8,1.1c.5.4.8,1,.8,1.8s-.4,1.6-1.1,2.2-1.8.9-3.2.9-2.3-.3-3-.8-1.2-1.2-1.4-2.1h0Z"/>
    </g>
  </g>
  <g class="st3">
    <g class="st3">
      <path class="st5" d="M485.5,251.7v-12.9h2.5l5.3,8.6v-8.6h2.4v12.9h-2.6l-5.2-8.4v8.4h-2.4Z"/>
      <path class="st5" d="M500.3,245.2l-2.2-.4c.2-.9.7-1.6,1.3-2s1.5-.6,2.7-.6,1.9.1,2.5.4c.5.3.9.6,1.1,1s.3,1.1.3,2.2v2.9c0,.8,0,1.4,0,1.8s.2.8.4,1.2h-2.4c0-.2-.1-.4-.2-.7,0-.1,0-.2,0-.3-.4.4-.9.7-1.4.9s-1,.3-1.5.3c-1,0-1.7-.3-2.3-.8s-.8-1.2-.8-2,.1-1,.4-1.4.6-.7,1.1-1c.5-.2,1.1-.4,2-.6,1.1-.2,2-.4,2.4-.6v-.2c0-.5-.1-.8-.4-1s-.7-.3-1.3-.3-.8,0-1,.3-.5.5-.6.9h0ZM503.6,247.2c-.3.1-.8.2-1.5.4s-1.1.3-1.3.4c-.3.2-.5.5-.5.9s.1.6.4.9.6.4,1,.4.9-.1,1.3-.4c.3-.2.5-.5.6-.8,0-.2.1-.6.1-1.2v-.5h0Z"/>
      <path class="st5" d="M512.8,242.3v2h-1.7v3.8c0,.8,0,1.2,0,1.3s.1.2.2.3.2.1.4.1.6,0,1-.2l.2,1.9c-.6.2-1.2.4-2,.4s-.9,0-1.2-.2c-.4-.1-.6-.3-.8-.6s-.3-.6-.4-1c0-.3,0-.9,0-1.7v-4.1h-1.1v-2h1.1v-1.9l2.5-1.4v3.3h1.7Z"/>
      <path class="st5" d="M514.5,241.1v-2.3h2.5v2.3h-2.5ZM514.5,251.7v-9.3h2.5v9.3h-2.5Z"/>
      <path class="st5" d="M522,251.7l-3.8-9.3h2.6l1.8,4.8.5,1.6c.1-.4.2-.7.2-.8,0-.3.2-.5.3-.8l1.8-4.8h2.5l-3.7,9.3h-2.2Z"/>
      <path class="st5" d="M534.9,248.7l2.5.4c-.3.9-.8,1.6-1.5,2.1s-1.5.7-2.6.7c-1.6,0-2.8-.5-3.6-1.6-.6-.9-.9-1.9-.9-3.2s.4-2.8,1.2-3.6,1.8-1.3,3.1-1.3,2.5.5,3.3,1.4c.8.9,1.2,2.3,1.2,4.2h-6.2c0,.7.2,1.3.6,1.7s.9.6,1.4.6.7-.1,1-.3.5-.5.6-1h0ZM535,246.2c0-.7-.2-1.3-.5-1.6s-.8-.6-1.3-.6-1,.2-1.3.6-.5.9-.5,1.6h3.7Z"/>
      <path class="st5" d="M555.5,251.7h-2.8l-1.1-2.9h-5.2l-1.1,2.9h-2.8l5-12.9h2.8l5.2,12.9h0ZM550.7,246.6l-1.8-4.8-1.7,4.8h3.5Z"/>
      <path class="st5" d="M565.3,251.7h-2.5v-4.8c0-1,0-1.7-.2-2s-.3-.5-.5-.7-.5-.2-.9-.2-.8.1-1.2.4-.6.5-.7.9-.2,1.1-.2,2.1v4.2h-2.5v-9.3h2.3v1.4c.8-1,1.8-1.6,3.1-1.6s1,.1,1.5.3.8.5,1,.8.4.6.5,1,.1.9.1,1.7v5.8h0Z"/>
      <path class="st5" d="M572.1,242.3v2h-1.7v3.8c0,.8,0,1.2,0,1.3s.1.2.2.3.2.1.4.1.6,0,1-.2l.2,1.9c-.6.2-1.2.4-2,.4s-.8,0-1.2-.2c-.4-.1-.6-.3-.8-.6s-.3-.6-.3-1c0-.3,0-.9,0-1.7v-4.1h-1.1v-2h1.1v-1.9l2.5-1.4v3.3h1.7Z"/>
      <path class="st5" d="M573.8,241.1v-2.3h2.5v2.3h-2.5ZM573.8,251.7v-9.3h2.5v9.3h-2.5Z"/>
      <path class="st5" d="M578.6,252.3l2.8.3c0,.3.2.5.3.7.2.2.6.3,1.1.3s1.1-.1,1.5-.3c.2-.1.4-.3.5-.6,0-.2.1-.6.1-1.1v-1.4c-.7,1-1.7,1.5-2.8,1.5s-2.2-.5-3-1.6c-.6-.8-.9-1.9-.9-3.1s.4-2.8,1.1-3.6,1.7-1.2,2.8-1.2,2.1.5,2.9,1.5v-1.3h2.3v8.4c0,1.1,0,1.9-.3,2.5s-.4,1-.8,1.3-.8.5-1.3.7-1.2.3-2.1.3c-1.6,0-2.7-.3-3.4-.8s-1-1.2-1-2.1v-.3h0ZM580.8,246.8c0,1,.2,1.7.6,2.2.4.5.9.7,1.4.7s1.1-.2,1.5-.7c.4-.5.6-1.2.6-2.1s-.2-1.7-.6-2.1-.9-.7-1.5-.7-1.1.2-1.5.7-.6,1.2-.6,2.1h0Z"/>
      <path class="st5" d="M595.2,248.7l2.5.4c-.3.9-.8,1.6-1.5,2.1s-1.5.7-2.6.7c-1.6,0-2.8-.5-3.6-1.6-.6-.9-.9-1.9-.9-3.2s.4-2.8,1.2-3.6,1.8-1.3,3.1-1.3,2.5.5,3.3,1.4c.8.9,1.2,2.3,1.2,4.2h-6.2c0,.7.2,1.3.6,1.7s.9.6,1.4.6.7-.1,1-.3.5-.5.6-1h0ZM595.4,246.2c0-.7-.2-1.3-.5-1.6s-.8-.6-1.3-.6-1,.2-1.3.6-.5.9-.5,1.6h3.7Z"/>
      <path class="st5" d="M608.3,251.7h-2.5v-4.8c0-1,0-1.7-.2-2s-.3-.5-.5-.7-.5-.2-.9-.2-.8.1-1.2.4-.6.5-.7.9-.2,1.1-.2,2.1v4.2h-2.5v-9.3h2.3v1.4c.8-1,1.8-1.6,3.1-1.6s1,.1,1.5.3.8.5,1,.8.4.6.5,1,.1.9.1,1.7v5.8h0Z"/>
      <path class="st5" d="M609.9,249l2.5-.4c.1.5.3.9.6,1.1.3.2.8.4,1.3.4s1.1-.1,1.4-.4c.2-.2.3-.4.3-.7s0-.3-.2-.5c-.1-.1-.4-.2-.8-.3-2-.4-3.2-.8-3.8-1.2-.7-.5-1.1-1.2-1.1-2.1s.3-1.5,1-2,1.6-.8,3-.8,2.2.2,2.8.6,1,1,1.3,1.9l-2.3.4c0-.4-.3-.6-.6-.8s-.7-.3-1.2-.3-1.1,0-1.4.3c-.2.1-.3.3-.3.5s0,.3.2.5c.2.2,1,.4,2.3.7s2.2.7,2.8,1.1c.5.4.8,1,.8,1.8s-.4,1.6-1.1,2.2-1.8.9-3.2.9-2.3-.3-3-.8-1.2-1.2-1.5-2.1h0Z"/>
    </g>
  </g>
  <image class="st3" width="167" height="152" transform="translate(336.8 307.2) scale(.4)" xlink:href="Antigens-9.png"/>
  <image class="st3" width="172" height="170" transform="translate(439 302.3) scale(.4)" xlink:href="Antigens-10.png"/>
  <image class="st3" width="161" height="145" transform="translate(704.8 302.3) scale(.4)" xlink:href="Antigens-11.png"/>
  <g class="st3">
    <g class="st3">
      <path class="st5" d="M347.6,385.5l-4.6-12.9h2.8l3.3,9.5,3.2-9.5h2.8l-4.6,12.9h-2.8Z"/>
      <path class="st5" d="M356,374.9v-2.3h2.5v2.3h-2.5ZM356,385.5v-9.3h2.5v9.3h-2.5Z"/>
      <path class="st5" d="M363.3,385.5h-2.5v-9.3h2.3v1.3c.4-.6.8-1,1.1-1.2s.7-.3,1.1-.3,1.1.2,1.6.5l-.8,2.1c-.4-.3-.8-.4-1.2-.4s-.6.1-.9.3-.4.5-.6,1-.2,1.5-.2,3.1v2.9h0Z"/>
      <path class="st5" d="M369.8,379l-2.2-.4c.2-.9.7-1.6,1.3-2s1.5-.6,2.7-.6,1.9.1,2.5.4c.5.3.9.6,1.1,1s.3,1.1.3,2.2v2.9c0,.8,0,1.4,0,1.8s.2.8.4,1.2h-2.4c0-.2-.1-.4-.2-.7,0-.1,0-.2,0-.3-.4.4-.9.7-1.4.9s-1,.3-1.5.3c-1,0-1.7-.3-2.3-.8s-.8-1.2-.8-2,.1-1,.4-1.4.6-.7,1.1-1c.5-.2,1.1-.4,2-.6,1.1-.2,2-.4,2.4-.6v-.2c0-.5-.1-.8-.4-1s-.7-.3-1.3-.3-.8,0-1,.3-.5.5-.6.9h0ZM373.1,381c-.3.1-.8.2-1.5.4s-1.1.3-1.3.4c-.3.2-.5.5-.5.9s.1.6.4.9.6.4,1,.4.9-.1,1.3-.4c.3-.2.5-.5.6-.8,0-.2.1-.6.1-1.2v-.5h0Z"/>
      <path class="st5" d="M378,385.5v-12.9h2.5v12.9h-2.5Z"/>
    </g>
  </g>
  <g class="st3">
    <g class="st3">
      <path class="st5" d="M566,374.7v-12.9h4.2c1.6,0,2.6,0,3.1.2.7.2,1.4.6,1.8,1.3s.8,1.5.8,2.5-.1,1.5-.4,2-.7,1-1.1,1.3-.9.5-1.3.6c-.6.1-1.5.2-2.7.2h-1.7v4.9h-2.6,0ZM568.6,364v3.7h1.4c1,0,1.7,0,2.1-.2s.6-.4.8-.6.3-.6.3-1-.1-.9-.4-1.2-.6-.5-1-.6c-.3,0-.9,0-1.9,0h-1.3,0Z"/>
      <path class="st5" d="M580.3,374.7h-2.5v-9.3h2.3v1.3c.4-.6.8-1,1.1-1.2s.7-.3,1.1-.3,1.1.2,1.6.5l-.8,2.1c-.4-.3-.8-.4-1.2-.4s-.6.1-.9.3-.4.5-.6,1-.2,1.5-.2,3.1v2.9h0Z"/>
      <path class="st5" d="M584.4,369.9c0-.8.2-1.6.6-2.4s1-1.4,1.7-1.8,1.6-.6,2.5-.6c1.4,0,2.6.5,3.5,1.4.9.9,1.3,2.1,1.3,3.5s-.5,2.6-1.4,3.5-2.1,1.4-3.4,1.4-1.7-.2-2.5-.6-1.4-1-1.8-1.7-.6-1.7-.6-2.7h0ZM586.9,370c0,.9.2,1.6.7,2.1s1,.7,1.6.7,1.2-.2,1.6-.7.7-1.2.7-2.1-.2-1.6-.7-2.1-1-.7-1.6-.7-1.2.2-1.6.7-.7,1.2-.7,2.1h0Z"/>
      <path class="st5" d="M600.2,365.3v2h-1.7v3.8c0,.8,0,1.2,0,1.3s.1.2.2.3.2.1.4.1.6,0,1-.2l.2,1.9c-.6.2-1.2.4-2,.4s-.8,0-1.2-.2c-.4-.1-.6-.3-.8-.6s-.3-.6-.3-1c0-.3,0-.9,0-1.7v-4.1h-1.1v-2h1.1v-1.9l2.5-1.4v3.3h1.7Z"/>
      <path class="st5" d="M601.4,369.9c0-.8.2-1.6.6-2.4s1-1.4,1.7-1.8,1.6-.6,2.5-.6c1.4,0,2.6.5,3.5,1.4.9.9,1.3,2.1,1.3,3.5s-.5,2.6-1.4,3.5-2.1,1.4-3.4,1.4-1.7-.2-2.5-.6-1.4-1-1.8-1.7-.6-1.7-.6-2.7h0ZM603.9,370c0,.9.2,1.6.7,2.1s1,.7,1.6.7,1.2-.2,1.6-.7.7-1.2.7-2.1-.2-1.6-.7-2.1-1-.7-1.6-.7-1.2.2-1.6.7-.7,1.2-.7,2.1h0Z"/>
      <path class="st5" d="M611.9,374.7v-1.9l3.5-4c.6-.7,1-1.1,1.3-1.4-.3,0-.7,0-1.1,0h-3.3s0-2,0-2h7.7v1.8l-3.6,4.1-1.3,1.4c.7,0,1.1,0,1.3,0h3.8v2.2h-8.3,0Z"/>
      <path class="st5" d="M621.4,369.9c0-.8.2-1.6.6-2.4s1-1.4,1.7-1.8,1.6-.6,2.5-.6c1.4,0,2.6.5,3.5,1.4.9.9,1.3,2.1,1.3,3.5s-.5,2.6-1.4,3.5-2.1,1.4-3.4,1.4-1.7-.2-2.5-.6-1.4-1-1.8-1.7-.6-1.7-.6-2.7h0ZM623.9,370c0,.9.2,1.6.7,2.1s1,.7,1.6.7,1.2-.2,1.6-.7.7-1.2.7-2.1-.2-1.6-.7-2.1-1-.7-1.6-.7-1.2.2-1.6.7-.7,1.2-.7,2.1h0Z"/>
      <path class="st5" d="M634.8,368.2l-2.2-.4c.2-.9.7-1.6,1.3-2s1.5-.6,2.7-.6,1.9.1,2.5.4c.5.3.9.6,1.1,1s.3,1.1.3,2.2v2.9c0,.8,0,1.4,0,1.8s.2.8.4,1.2h-2.4c0-.2-.1-.4-.2-.7,0-.1,0-.2,0-.3-.4.4-.9.7-1.3.9s-1,.3-1.5.3c-1,0-1.7-.3-2.3-.8s-.8-1.2-.8-2,.1-1,.4-1.4.6-.7,1.1-1c.5-.2,1.1-.4,2-.6,1.2-.2,2-.4,2.4-.6v-.2c0-.5-.1-.8-.3-1s-.7-.3-1.3-.3-.8,0-1,.3-.5.5-.6.9h0ZM638.1,370.2c-.3.1-.8.2-1.5.4s-1.1.3-1.3.4c-.3.2-.5.5-.5.9s.1.6.4.9.6.4,1,.4.9-.1,1.3-.4c.3-.2.5-.5.6-.8,0-.2,0-.6,0-1.2v-.5h0Z"/>
      <path class="st5" d="M651.4,374.7h-2.5v-4.8c0-1,0-1.7-.2-2s-.3-.5-.5-.7-.5-.2-.9-.2-.8.1-1.2.4-.6.5-.7.9-.2,1.1-.2,2.1v4.2h-2.5v-9.3h2.3v1.4c.8-1,1.8-1.6,3.1-1.6s1,.1,1.5.3.8.5,1,.8.4.6.5,1,.1.9.1,1.7v5.8h0Z"/>
      <path class="st5" d="M568.6,396.5l3.2-13.3h1.8l-3.2,13.3h-1.8,0Z"/>
      <path class="st5" d="M574.9,396.3v-12.9h4.2c1.6,0,2.6,0,3.1.2.7.2,1.4.6,1.8,1.3s.8,1.5.8,2.5-.1,1.5-.4,2-.7,1-1.1,1.3-.9.5-1.3.6c-.6.1-1.5.2-2.7.2h-1.7v4.9h-2.6,0ZM577.5,385.6v3.7h1.4c1,0,1.7,0,2.1-.2s.6-.4.8-.6.3-.6.3-1-.1-.9-.4-1.2-.6-.5-1-.6c-.3,0-.9,0-1.9,0h-1.3,0Z"/>
      <path class="st5" d="M588.8,389.8l-2.2-.4c.2-.9.7-1.6,1.3-2s1.5-.6,2.7-.6,1.9.1,2.5.4c.5.3.9.6,1.1,1s.3,1.1.3,2.2v2.9c0,.8,0,1.4,0,1.8s.2.8.4,1.2h-2.4c0-.2-.1-.4-.2-.7,0-.1,0-.2,0-.3-.4.4-.9.7-1.3.9s-1,.3-1.5.3c-1,0-1.7-.3-2.3-.8s-.8-1.2-.8-2,.1-1,.4-1.4.6-.7,1.1-1c.5-.2,1.1-.4,2-.6,1.2-.2,2-.4,2.4-.6v-.2c0-.5-.1-.8-.3-1s-.7-.3-1.3-.3-.8,0-1,.3-.5.5-.6.9h0ZM592.1,391.8c-.3.1-.8.2-1.5.4s-1.1.3-1.3.4c-.3.2-.5.5-.5.9s.1.6.4.9.6.4,1,.4.9-.1,1.3-.4c.3-.2.5-.5.6-.8,0-.2,0-.6,0-1.2v-.5h0Z"/>
      <path class="st5" d="M599.3,396.3h-2.5v-9.3h2.3v1.3c.4-.6.8-1,1.1-1.2s.7-.3,1.1-.3,1.1.2,1.6.5l-.8,2.1c-.4-.3-.8-.4-1.2-.4s-.6.1-.9.3-.4.5-.6,1-.2,1.5-.2,3.1v2.9h0Z"/>
      <path class="st5" d="M605.8,389.8l-2.2-.4c.2-.9.7-1.6,1.3-2s1.5-.6,2.7-.6,1.9.1,2.5.4c.5.3.9.6,1.1,1s.3,1.1.3,2.2v2.9c0,.8,0,1.4,0,1.8s.2.8.4,1.2h-2.4c0-.2-.1-.4-.2-.7,0-.1,0-.2,0-.3-.4.4-.9.7-1.3.9s-1,.3-1.5.3c-1,0-1.7-.3-2.3-.8s-.8-1.2-.8-2,.1-1,.4-1.4.6-.7,1.1-1c.5-.2,1.1-.4,2-.6,1.2-.2,2-.4,2.4-.6v-.2c0-.5-.1-.8-.3-1s-.7-.3-1.3-.3-.8,0-1,.3-.5.5-.6.9h0ZM609.1,391.8c-.3.1-.8.2-1.5.4s-1.1.3-1.3.4c-.3.2-.5.5-.5.9s.1.6.4.9.6.4,1,.4.9-.1,1.3-.4c.3-.2.5-.5.6-.8,0-.2,0-.6,0-1.2v-.5h0Z"/>
      <path class="st5" d="M613.1,393.6l2.5-.4c.1.5.3.9.6,1.1.3.2.8.4,1.3.4s1.1-.1,1.4-.4c.2-.2.3-.4.3-.7s0-.3-.2-.5c-.1-.1-.4-.2-.8-.3-2-.4-3.2-.8-3.8-1.2-.7-.5-1.1-1.2-1.1-2.1s.3-1.5,1-2,1.6-.8,3-.8,2.2.2,2.8.6,1,1,1.3,1.9l-2.3.4c0-.4-.3-.6-.6-.8s-.7-.3-1.2-.3-1.1,0-1.4.3c-.2.1-.3.3-.3.5s0,.3.2.5c.2.2,1,.4,2.3.7s2.2.7,2.8,1.1c.5.4.8,1,.8,1.8s-.4,1.6-1.1,2.2-1.8.9-3.2.9-2.3-.3-3-.8-1.2-1.2-1.5-2.1h0Z"/>
      <path class="st5" d="M624,385.7v-2.3h2.5v2.3h-2.5ZM624,396.3v-9.3h2.5v9.3h-2.5Z"/>
      <path class="st5" d="M633.2,386.9v2h-1.7v3.8c0,.8,0,1.2,0,1.3s.1.2.2.3.2.1.4.1.6,0,1-.2l.2,1.9c-.6.2-1.2.4-2,.4s-.8,0-1.2-.2c-.4-.1-.6-.3-.8-.6s-.3-.6-.3-1c0-.3,0-.9,0-1.7v-4.1h-1.1v-2h1.1v-1.9l2.5-1.4v3.3h1.7Z"/>
      <path class="st5" d="M635,385.7v-2.3h2.5v2.3h-2.5ZM635,396.3v-9.3h2.5v9.3h-2.5Z"/>
      <path class="st5" d="M648.1,389.7l-2.4.4c0-.5-.3-.9-.6-1.1s-.7-.4-1.1-.4-1.1.2-1.5.6-.5,1.1-.5,2.1.2,1.9.6,2.4.9.7,1.5.7.8-.1,1.2-.4.5-.7.6-1.4l2.4.4c-.2,1.1-.7,2-1.5,2.5s-1.7.9-2.9.9-2.5-.4-3.3-1.3-1.2-2-1.2-3.6.4-2.7,1.2-3.6c.8-.9,1.9-1.3,3.3-1.3s2,.2,2.7.7,1.2,1.2,1.5,2.2h0Z"/>
    </g>
  </g>
  <g class="st3">
    <g class="st3">
      <path class="st5" d="M438.7,372.6h5.1c1,0,1.8,0,2.3.1s1,.3,1.3.5.7.6,1,1.1c.3.5.4,1,.4,1.5s-.2,1.2-.5,1.7-.8.9-1.3,1.1c.8.2,1.4.6,1.8,1.2s.6,1.2.6,1.9-.1,1.2-.4,1.7-.6,1-1.1,1.3c-.5.3-1,.5-1.7.6-.4,0-1.5,0-3.1,0h-4.4v-12.9h0ZM441.3,374.7v3h1.7c1,0,1.6,0,1.9,0,.5,0,.8-.2,1-.5.2-.3.4-.6.4-1s-.1-.7-.3-1-.5-.4-1-.5c-.3,0-1,0-2.2,0h-1.5ZM441.3,379.8v3.5h2.4c.9,0,1.5,0,1.8,0,.4,0,.7-.2.9-.5.2-.3.4-.6.4-1.1s0-.7-.3-1-.5-.5-.8-.6-1.1-.2-2.3-.2h-2.1,0Z"/>
      <path class="st5" d="M453.5,379l-2.2-.4c.2-.9.7-1.6,1.3-2s1.5-.6,2.7-.6,1.9.1,2.5.4c.5.3.9.6,1.1,1s.3,1.1.3,2.2v2.9c0,.8,0,1.4,0,1.8s.2.8.4,1.2h-2.4c0-.2-.1-.4-.2-.7,0-.1,0-.2,0-.3-.4.4-.9.7-1.4.9s-1,.3-1.5.3c-1,0-1.7-.3-2.3-.8s-.8-1.2-.8-2,.1-1,.4-1.4.6-.7,1.1-1c.5-.2,1.1-.4,2-.6,1.1-.2,2-.4,2.4-.6v-.2c0-.5-.1-.8-.4-1s-.7-.3-1.3-.3-.8,0-1,.3-.5.5-.6.9h0ZM456.8,381c-.3.1-.8.2-1.5.4s-1.1.3-1.3.4c-.3.2-.5.5-.5.9s.1.6.4.9.6.4,1,.4.9-.1,1.3-.4c.3-.2.5-.5.6-.8,0-.2.1-.6.1-1.2v-.5h0Z"/>
      <path class="st5" d="M469.8,378.9l-2.4.4c0-.5-.3-.9-.6-1.1s-.7-.4-1.1-.4-1.1.2-1.5.6-.5,1.1-.5,2.1.2,1.9.6,2.4.9.7,1.5.7.9-.1,1.1-.4.5-.7.6-1.4l2.4.4c-.2,1.1-.7,2-1.5,2.5s-1.7.9-2.9.9-2.5-.4-3.3-1.3-1.2-2-1.2-3.6.4-2.7,1.2-3.6c.8-.9,1.9-1.3,3.3-1.3s2,.2,2.7.7,1.1,1.2,1.5,2.2h0Z"/>
      <path class="st5" d="M476,376.1v2h-1.7v3.8c0,.8,0,1.2,0,1.3s.1.2.2.3.2.1.4.1.6,0,1-.2l.2,1.9c-.6.2-1.2.4-2,.4s-.9,0-1.2-.2c-.4-.1-.6-.3-.8-.6s-.3-.6-.4-1c0-.3,0-.9,0-1.7v-4.1h-1.1v-2h1.1v-1.9l2.5-1.4v3.3h1.7Z"/>
      <path class="st5" d="M483.1,382.5l2.5.4c-.3.9-.8,1.6-1.5,2.1s-1.5.7-2.6.7c-1.6,0-2.8-.5-3.6-1.6-.6-.9-.9-1.9-.9-3.2s.4-2.8,1.2-3.6,1.8-1.3,3.1-1.3,2.5.5,3.3,1.4c.8.9,1.2,2.3,1.1,4.2h-6.2c0,.7.2,1.3.6,1.7s.9.6,1.4.6.7-.1,1-.3.5-.5.6-1h0ZM483.2,380c0-.7-.2-1.3-.5-1.6-.4-.4-.8-.6-1.3-.6s-1,.2-1.3.6-.5.9-.5,1.6h3.7,0Z"/>
      <path class="st5" d="M490,385.5h-2.5v-9.3h2.3v1.3c.4-.6.8-1,1.1-1.2s.7-.3,1.1-.3,1.1.2,1.6.5l-.8,2.1c-.4-.3-.8-.4-1.2-.4s-.6.1-.9.3-.4.5-.6,1-.2,1.5-.2,3.1v2.9h0Z"/>
      <path class="st5" d="M494.7,374.9v-2.3h2.5v2.3h-2.5ZM494.7,385.5v-9.3h2.5v9.3h-2.5Z"/>
      <path class="st5" d="M501.5,379l-2.2-.4c.2-.9.7-1.6,1.3-2s1.5-.6,2.7-.6,1.9.1,2.5.4c.5.3.9.6,1.1,1s.3,1.1.3,2.2v2.9c0,.8,0,1.4,0,1.8s.2.8.4,1.2h-2.4c0-.2-.1-.4-.2-.7,0-.1,0-.2,0-.3-.4.4-.9.7-1.4.9s-1,.3-1.5.3c-1,0-1.7-.3-2.3-.8s-.8-1.2-.8-2,.1-1,.4-1.4.6-.7,1.1-1c.5-.2,1.1-.4,2-.6,1.1-.2,2-.4,2.4-.6v-.2c0-.5-.1-.8-.4-1s-.7-.3-1.3-.3-.8,0-1,.3-.5.5-.6.9h0ZM504.8,381c-.3.1-.8.2-1.5.4s-1.1.3-1.3.4c-.3.2-.5.5-.5.9s.1.6.4.9.6.4,1,.4.9-.1,1.3-.4c.3-.2.5-.5.6-.8,0-.2.1-.6.1-1.2v-.5h0Z"/>
      <path class="st5" d="M509.7,385.5v-12.9h2.5v12.9h-2.5Z"/>
    </g>
  </g>
  <g class="st3">
    <g class="st3">
      <path class="st5" d="M707.6,385.5v-12.9h8.8v2.2h-6.2v3h5.4v2.2h-5.4v5.5h-2.6Z"/>
      <path class="st5" d="M724.7,385.5v-1.4c-.3.5-.8.9-1.3,1.2s-1.1.4-1.8.4-1.2-.1-1.7-.4-.9-.7-1.1-1.2-.3-1.2-.3-2.1v-5.9h2.5v4.3c0,1.3,0,2.1.1,2.4,0,.3.3.5.5.7s.5.3.9.3.8-.1,1.1-.4.6-.5.7-.9c.1-.3.2-1.2.2-2.5v-3.9h2.5v9.3h-2.3Z"/>
      <path class="st5" d="M738,385.5h-2.5v-4.8c0-1,0-1.7-.2-2s-.3-.5-.5-.7-.5-.2-.9-.2-.8.1-1.2.4-.6.5-.7.9-.2,1.1-.2,2.1v4.2h-2.5v-9.3h2.3v1.4c.8-1,1.8-1.6,3.1-1.6s1,.1,1.5.3c.5.2.8.5,1,.8s.4.6.5,1,.1.9.1,1.7v5.8h0Z"/>
      <path class="st5" d="M740.3,386.1l2.8.3c0,.3.2.5.3.7.2.2.6.3,1.1.3s1.1-.1,1.5-.3c.2-.1.4-.3.5-.6,0-.2.1-.6.1-1.1v-1.4c-.7,1-1.7,1.5-2.8,1.5s-2.2-.5-3-1.6c-.6-.8-.9-1.9-.9-3.1s.4-2.8,1.1-3.6,1.7-1.2,2.8-1.2,2.1.5,2.9,1.5v-1.3h2.3v8.4c0,1.1,0,1.9-.3,2.5s-.4,1-.8,1.3-.8.5-1.3.7-1.2.3-2.1.3c-1.6,0-2.7-.3-3.4-.8-.7-.5-1-1.2-1-2.1v-.3h0ZM742.5,380.6c0,1,.2,1.7.6,2.2.4.5.9.7,1.4.7s1.1-.2,1.5-.7c.4-.5.6-1.2.6-2.1s-.2-1.7-.6-2.1-.9-.7-1.5-.7-1.1.2-1.5.7-.6,1.2-.6,2.1Z"/>
      <path class="st5" d="M753.3,379l-2.2-.4c.2-.9.7-1.6,1.3-2s1.5-.6,2.7-.6,1.9.1,2.5.4c.5.3.9.6,1.1,1,.2.4.3,1.1.3,2.2v2.9c0,.8,0,1.4,0,1.8s.2.8.4,1.2h-2.4c0-.2-.1-.4-.2-.7,0-.1,0-.2,0-.3-.4.4-.9.7-1.3.9s-1,.3-1.5.3c-1,0-1.7-.3-2.3-.8s-.8-1.2-.8-2,.1-1,.4-1.4.6-.7,1.1-1c.5-.2,1.1-.4,2-.6,1.2-.2,2-.4,2.4-.6v-.2c0-.5-.1-.8-.3-1s-.7-.3-1.3-.3-.8,0-1,.3-.5.5-.6.9h0ZM756.7,381c-.3.1-.8.2-1.5.4s-1.1.3-1.3.4c-.3.2-.5.5-.5.9s.1.6.4.9.6.4,1,.4.9-.1,1.3-.4c.3-.2.5-.5.6-.8,0-.2,0-.6,0-1.2v-.5h0Z"/>
      <path class="st5" d="M761.5,385.5v-12.9h2.5v12.9h-2.5Z"/>
    </g>
  </g>
  <line class="st2" x1="369.5" y1="273.4" x2="737" y2="273.4"/>
  <g>
    <line class="st0" x1="736" y1="272.6" x2="736" y2="296.5"/>
    <g>
      <line class="st2" x1="736" y1="272.6" x2="736" y2="291.8"/>
      <polygon class="st5" points="736 296.5 729.7 289.9 736 291.4 742.3 289.9 736 296.5"/>
    </g>
  </g>
  <line class="st2" x1="553.2" y1="259.7" x2="553.2" y2="273.4"/>
  <g>
    <line class="st0" x1="370.5" y1="272.6" x2="370.5" y2="296.5"/>
    <g>
      <line class="st2" x1="370.5" y1="272.6" x2="370.5" y2="291.8"/>
      <polygon class="st5" points="370.5 296.5 364.2 289.9 370.5 291.4 376.8 289.9 370.5 296.5"/>
    </g>
  </g>
  <g>
    <path d="M974.6,67.7h-2.8l-1.1-2.9h-5.2l-1.1,2.9h-2.8l5-12.9h2.8l5.2,12.9h0ZM969.8,62.6l-1.8-4.8-1.7,4.8h3.5Z"/>
    <path d="M984.1,61.1l-2.4.4c0-.5-.3-.8-.6-1.1s-.7-.4-1.1-.4-1.1.2-1.5.6-.5,1.1-.5,2.1.2,1.9.6,2.3.9.7,1.5.7.8-.1,1.2-.4.5-.7.6-1.4l2.4.4c-.2,1.1-.7,1.9-1.5,2.5s-1.7.8-2.9.8-2.5-.4-3.3-1.3-1.2-2.1-1.2-3.6.4-2.7,1.2-3.6,1.9-1.3,3.3-1.3,2,.2,2.7.7,1.2,1.2,1.5,2.2h0Z"/>
    <path d="M994.1,61.1l-2.4.4c0-.5-.3-.8-.6-1.1s-.7-.4-1.1-.4-1.1.2-1.5.6-.5,1.1-.5,2.1.2,1.9.6,2.3.9.7,1.5.7.8-.1,1.2-.4.5-.7.6-1.4l2.4.4c-.2,1.1-.7,1.9-1.5,2.5s-1.7.8-2.9.8-2.5-.4-3.3-1.3-1.2-2.1-1.2-3.6.4-2.7,1.2-3.6,1.9-1.3,3.3-1.3,2,.2,2.7.7,1.2,1.2,1.5,2.2h0Z"/>
    <path d="M1001.4,64.8l2.5.4c-.3.9-.8,1.6-1.5,2.1s-1.5.7-2.6.7c-1.6,0-2.8-.5-3.6-1.6-.6-.8-.9-1.9-.9-3.2s.4-2.8,1.2-3.6,1.8-1.3,3.1-1.3,2.5.5,3.3,1.4c.8.9,1.2,2.3,1.2,4.2h-6.2c0,.7.2,1.3.6,1.7.4.4.9.6,1.4.6s.7-.1,1-.3.5-.6.6-1h0ZM1001.6,62.3c0-.7-.2-1.3-.5-1.6-.3-.4-.8-.6-1.3-.6s-1,.2-1.3.6-.5.9-.5,1.6h3.7Z"/>
    <path d="M1006,67.7v-12.9h2.5v12.9h-2.5Z"/>
    <path d="M1016.4,64.8l2.5.4c-.3.9-.8,1.6-1.5,2.1s-1.5.7-2.6.7c-1.6,0-2.8-.5-3.6-1.6-.6-.8-.9-1.9-.9-3.2s.4-2.8,1.2-3.6,1.8-1.3,3.1-1.3,2.5.5,3.3,1.4c.8.9,1.2,2.3,1.2,4.2h-6.2c0,.7.2,1.3.6,1.7.4.4.9.6,1.4.6s.7-.1,1-.3.5-.6.6-1h0ZM1016.6,62.3c0-.7-.2-1.3-.5-1.6-.3-.4-.8-.6-1.3-.6s-1,.2-1.3.6-.5.9-.5,1.6h3.7Z"/>
    <path d="M1023.4,67.7h-2.5v-9.3h2.3v1.3c.4-.6.8-1,1.1-1.2s.7-.3,1.1-.3,1.1.2,1.6.5l-.8,2.2c-.4-.3-.8-.4-1.2-.4s-.6,0-.9.3-.4.5-.6,1-.2,1.5-.2,3.1v2.9h0Z"/>
    <path d="M1029.9,61.2l-2.2-.4c.2-.9.7-1.6,1.3-2s1.5-.7,2.7-.7,1.9.1,2.5.4c.5.3.9.6,1.1,1s.3,1.1.3,2.2v2.9c0,.8,0,1.4,0,1.8s.2.8.4,1.2h-2.4c0-.2-.1-.4-.2-.7,0-.2,0-.2,0-.3-.4.4-.9.7-1.3.9s-1,.3-1.5.3c-1,0-1.7-.3-2.3-.8s-.8-1.2-.8-2,.1-1,.4-1.4.6-.7,1.1-.9c.5-.2,1.1-.4,2-.6,1.2-.2,2-.4,2.4-.6v-.2c0-.5-.1-.8-.3-1-.2-.2-.7-.3-1.3-.3s-.8,0-1,.3c-.2.2-.5.5-.6.9h0ZM1033.2,63.2c-.3.1-.8.2-1.5.4s-1.1.3-1.3.4c-.3.2-.5.5-.5.9s.1.6.4.9.6.4,1,.4.9-.2,1.3-.4c.3-.2.5-.5.6-.8,0-.2,0-.6,0-1.2v-.5h0Z"/>
    <path d="M1042.3,58.4v2h-1.7v3.8c0,.8,0,1.2,0,1.3s.1.2.2.3.2.1.4.1.6,0,1-.2l.2,1.9c-.6.2-1.2.4-2,.4s-.8,0-1.2-.2c-.4-.2-.6-.3-.8-.6-.2-.2-.3-.6-.3-1,0-.3,0-.9,0-1.7v-4.1h-1.1v-2h1.1v-1.8l2.5-1.4v3.3h1.7Z"/>
    <path d="M1049.5,64.8l2.5.4c-.3.9-.8,1.6-1.5,2.1s-1.5.7-2.6.7c-1.6,0-2.8-.5-3.6-1.6-.6-.8-.9-1.9-.9-3.2s.4-2.8,1.2-3.6,1.8-1.3,3.1-1.3,2.5.5,3.3,1.4c.8.9,1.2,2.3,1.2,4.2h-6.2c0,.7.2,1.3.6,1.7.4.4.9.6,1.4.6s.7-.1,1-.3.5-.6.6-1h0ZM1049.6,62.3c0-.7-.2-1.3-.6-1.6-.3-.4-.8-.6-1.3-.6s-1,.2-1.3.6-.5.9-.5,1.6h3.7Z"/>
    <path d="M1062.6,67.7h-2.3v-1.4c-.4.5-.8.9-1.3,1.2s-1,.4-1.6.4c-1.1,0-2-.4-2.8-1.3-.8-.9-1.2-2.1-1.2-3.6s.4-2.8,1.1-3.6c.7-.8,1.7-1.2,2.8-1.2s1.9.4,2.7,1.3v-4.6h2.5v12.9h0ZM1056,62.9c0,1,.1,1.7.4,2.2.4.6,1,1,1.7,1s1.1-.2,1.4-.7c.4-.5.6-1.2.6-2.2s-.2-1.8-.6-2.3-.9-.7-1.5-.7-1.1.2-1.5.7c-.4.5-.6,1.2-.6,2.1h0Z"/>
    <path d="M1074.3,58.4v2h-1.7v3.8c0,.8,0,1.2,0,1.3s.1.2.2.3.2.1.4.1.6,0,1-.2l.2,1.9c-.6.2-1.2.4-1.9.4s-.8,0-1.2-.2c-.4-.2-.6-.3-.8-.6-.2-.2-.3-.6-.3-1,0-.3,0-.9,0-1.7v-4.1h-1.1v-2h1.1v-1.8l2.5-1.4v3.3h1.7,0Z"/>
    <path d="M1076,57.1v-2.3h2.5v2.3h-2.5ZM1076,67.7v-9.3h2.5v9.3h-2.5Z"/>
    <path d="M1080.9,58.4h2.3v1.3c.8-1,1.8-1.5,2.9-1.5s1.1.1,1.6.4.8.6,1.1,1.1c.4-.5.8-.9,1.3-1.1s1-.4,1.5-.4,1.3.1,1.7.4.8.7,1.1,1.2c.2.4.2,1,.2,1.9v6h-2.5v-5.3c0-.9,0-1.5-.2-1.8-.2-.3-.6-.5-1.1-.5s-.7.1-1,.3-.5.5-.7.9c-.1.4-.2,1.1-.2,1.9v4.5h-2.5v-5.1c0-.9,0-1.5-.1-1.8s-.2-.5-.4-.6-.4-.2-.8-.2-.7,0-1,.3-.5.5-.7.9-.2,1-.2,1.9v4.5h-2.5v-9.3h0Z"/>
    <path d="M1102.5,64.8l2.5.4c-.3.9-.8,1.6-1.5,2.1s-1.5.7-2.6.7c-1.6,0-2.8-.5-3.6-1.6-.6-.8-.9-1.9-.9-3.2s.4-2.8,1.2-3.6,1.8-1.3,3.1-1.3,2.5.5,3.3,1.4c.8.9,1.2,2.3,1.2,4.2h-6.2c0,.7.2,1.3.6,1.7.4.4.9.6,1.4.6s.7-.1,1-.3.5-.6.6-1h0ZM1102.6,62.3c0-.7-.2-1.3-.6-1.6-.3-.4-.8-.6-1.3-.6s-1,.2-1.3.6-.5.9-.5,1.6h3.7Z"/>
    <path d="M1107.1,67.7v-12.9h2.5v12.9h-2.5Z"/>
    <path d="M1112.1,57.1v-2.3h2.5v2.3h-2.5ZM1112.1,67.7v-9.3h2.5v9.3h-2.5Z"/>
    <path d="M1125.6,67.7h-2.5v-4.8c0-1,0-1.7-.2-2s-.3-.5-.5-.7-.5-.2-.9-.2-.8.1-1.2.3-.6.5-.7.9-.2,1.1-.2,2.1v4.2h-2.5v-9.3h2.3v1.4c.8-1.1,1.8-1.6,3.1-1.6s1,0,1.5.3.8.4,1,.8.4.7.5,1,.1.9.1,1.7v5.8h0Z"/>
    <path d="M1133.5,64.8l2.5.4c-.3.9-.8,1.6-1.5,2.1s-1.5.7-2.6.7c-1.6,0-2.8-.5-3.6-1.6-.6-.8-.9-1.9-.9-3.2s.4-2.8,1.2-3.6,1.8-1.3,3.1-1.3,2.5.5,3.3,1.4c.8.9,1.2,2.3,1.2,4.2h-6.2c0,.7.2,1.3.6,1.7.4.4.9.6,1.4.6s.7-.1,1-.3.5-.6.6-1h0ZM1133.6,62.3c0-.7-.2-1.3-.6-1.6-.3-.4-.8-.6-1.3-.6s-1,.2-1.3.6-.5.9-.5,1.6h3.7Z"/>
    <path d="M1137.2,65.1l2.5-.4c.1.5.3.8.6,1.1.3.2.8.4,1.3.4s1.1-.1,1.4-.3c.2-.2.3-.4.3-.7s0-.3-.2-.5c-.1-.1-.4-.2-.8-.3-2-.4-3.2-.8-3.8-1.2-.7-.5-1.1-1.2-1.1-2.1s.3-1.5,1-2,1.6-.8,3-.8,2.2.2,2.8.6,1.1,1,1.3,1.8l-2.3.4c0-.4-.3-.6-.6-.8s-.7-.3-1.2-.3-1.1,0-1.4.3c-.2.1-.3.3-.3.5s0,.3.2.4c.2.2,1,.4,2.3.7s2.2.7,2.8,1.1c.5.4.8,1.1.8,1.8s-.4,1.6-1.1,2.2-1.8.9-3.2.9-2.3-.3-3-.8-1.2-1.2-1.5-2.1h0Z"/>
    <path d="M1012.4,85.9l2.4-.3c0,.6.3,1.1.6,1.4s.7.5,1.2.5.9-.2,1.3-.6.5-.9.5-1.6-.2-1.1-.5-1.5-.7-.5-1.2-.5-.7,0-1.1.2l.3-2c.7,0,1.2-.1,1.5-.4.3-.3.5-.7.5-1.2s-.1-.8-.4-1-.6-.4-1-.4-.8.2-1.1.4-.5.7-.5,1.3l-2.3-.4c.2-.8.4-1.4.7-1.9.3-.5.8-.8,1.3-1.1s1.2-.4,1.9-.4c1.2,0,2.2.4,2.9,1.2.6.6.9,1.3.9,2.1,0,1.1-.6,2-1.8,2.7.7.2,1.3.5,1.8,1.1s.7,1.2.7,2c0,1.1-.4,2.1-1.2,2.9s-1.8,1.2-3.1,1.2-2.1-.3-2.9-1c-.8-.7-1.2-1.6-1.3-2.6h0Z"/>
    <path d="M1022.7,85.9v-2.5h4.8v2.5h-4.8Z"/>
    <path d="M1036.9,79.6l-2.4.3c0-.5-.2-.9-.5-1.1s-.6-.3-1-.3-1,.2-1.3.7-.6,1.4-.7,2.9c.6-.7,1.4-1.1,2.3-1.1s1.9.4,2.7,1.2,1.1,1.8,1.1,3-.4,2.4-1.2,3.2-1.8,1.2-3,1.2-2.4-.5-3.2-1.5c-.8-1-1.3-2.7-1.3-5s.4-4.1,1.3-5.1,2-1.6,3.4-1.6,1.8.3,2.4.8,1,1.3,1.2,2.4h0ZM1031.3,85c0,.8.2,1.4.5,1.9s.8.7,1.3.7.8-.2,1.1-.5.5-.9.5-1.8-.2-1.4-.5-1.8-.7-.6-1.2-.6-.9.2-1.2.6c-.3.4-.5.9-.5,1.7h0Z"/>
    <path d="M1045.8,89.3l-2.9-9.3h2.4l1.8,6.1,1.6-6.1h2.4l1.6,6.1,1.8-6.1h2.4l-3,9.3h-2.4l-1.6-6-1.6,6h-2.4Z"/>
    <path d="M1063.4,86.4l2.5.4c-.3.9-.8,1.6-1.5,2.1s-1.5.7-2.6.7c-1.6,0-2.8-.5-3.6-1.6-.6-.8-.9-1.9-.9-3.2s.4-2.8,1.2-3.6,1.8-1.3,3.1-1.3,2.5.5,3.3,1.4c.8.9,1.2,2.3,1.2,4.2h-6.2c0,.7.2,1.3.6,1.7.4.4.9.6,1.4.6s.7-.1,1-.3.5-.6.6-1h0ZM1063.6,83.9c0-.7-.2-1.3-.6-1.6-.3-.4-.8-.6-1.3-.6s-1,.2-1.3.6-.5.9-.5,1.6h3.7Z"/>
    <path d="M1073.4,86.4l2.5.4c-.3.9-.8,1.6-1.5,2.1s-1.5.7-2.6.7c-1.6,0-2.8-.5-3.6-1.6-.6-.8-.9-1.9-.9-3.2s.4-2.8,1.2-3.6,1.8-1.3,3.1-1.3,2.5.5,3.3,1.4c.8.9,1.2,2.3,1.2,4.2h-6.2c0,.7.2,1.3.6,1.7.4.4.9.6,1.4.6s.7-.1,1-.3.5-.6.6-1h0ZM1073.6,83.9c0-.7-.2-1.3-.6-1.6-.3-.4-.8-.6-1.3-.6s-1,.2-1.3.6-.5.9-.5,1.6h3.7Z"/>
    <path d="M1078,89.3v-12.9h2.5v6.8l2.9-3.3h3l-3.2,3.4,3.4,5.9h-2.7l-2.3-4.2-1.2,1.2v3h-2.5Z"/>
    <path d="M1087.2,86.7l2.5-.4c.1.5.3.8.6,1.1.3.2.8.4,1.3.4s1.1-.1,1.4-.3c.2-.2.3-.4.3-.7s0-.3-.2-.5c-.1-.1-.4-.2-.8-.3-2-.4-3.2-.8-3.8-1.2-.7-.5-1.1-1.2-1.1-2.1s.3-1.5,1-2,1.6-.8,3-.8,2.2.2,2.8.6,1.1,1,1.3,1.8l-2.3.4c0-.4-.3-.6-.6-.8s-.7-.3-1.2-.3-1.1,0-1.4.3c-.2.1-.3.3-.3.5s0,.3.2.4c.2.2,1,.4,2.3.7s2.2.7,2.8,1.1c.5.4.8,1.1.8,1.8s-.4,1.6-1.1,2.2-1.8.9-3.2.9-2.3-.3-3-.8-1.2-1.2-1.4-2.1h0Z"/>
  </g>
  <g>
    <path d="M216.5,67.7v-12.9h8.8v2.2h-6.2v3.1h5.4v2.2h-5.4v5.5h-2.6Z"/>
    <path d="M229.8,67.7h-2.5v-9.3h2.3v1.3c.4-.6.8-1,1.1-1.2s.7-.3,1.1-.3,1.1.2,1.6.5l-.8,2.2c-.4-.3-.8-.4-1.2-.4s-.6,0-.9.3-.4.5-.6,1-.2,1.5-.2,3.1v2.9h0Z"/>
    <path d="M233.9,62.9c0-.8.2-1.6.6-2.4s1-1.3,1.7-1.8,1.6-.6,2.5-.6c1.4,0,2.6.5,3.5,1.4s1.4,2.1,1.4,3.5-.5,2.6-1.4,3.5-2.1,1.4-3.4,1.4-1.7-.2-2.4-.6-1.4-.9-1.8-1.7c-.4-.8-.6-1.7-.6-2.7h0ZM236.4,63.1c0,.9.2,1.6.7,2.1s1,.7,1.6.7,1.2-.2,1.6-.7.6-1.2.6-2.1-.2-1.6-.6-2.1-1-.7-1.6-.7-1.2.2-1.6.7-.7,1.2-.7,2.1h0Z"/>
    <path d="M245.2,58.4h2.3v1.3c.8-1,1.8-1.5,2.9-1.5s1.1.1,1.6.4.8.6,1.1,1.1c.4-.5.9-.9,1.3-1.1s1-.4,1.5-.4,1.3.1,1.7.4.8.7,1.1,1.2c.2.4.2,1,.2,1.9v6h-2.5v-5.3c0-.9,0-1.5-.2-1.8-.2-.3-.6-.5-1.1-.5s-.7.1-1,.3-.5.5-.7.9c-.1.4-.2,1.1-.2,1.9v4.5h-2.5v-5.1c0-.9,0-1.5-.1-1.8s-.2-.5-.4-.6-.4-.2-.8-.2-.7,0-1,.3-.5.5-.6.9-.2,1-.2,1.9v4.5h-2.5v-9.3h0Z"/>
    <path d="M268.9,54.8v4.7c.8-.9,1.8-1.4,2.9-1.4s1.1.1,1.5.3.8.5,1,.8.4.7.5,1.1c0,.4.1,1,.1,1.8v5.5h-2.5v-4.9c0-1,0-1.6-.1-1.9s-.3-.5-.5-.6-.5-.2-.9-.2-.8,0-1.1.3-.6.5-.7.9-.2,1-.2,1.8v4.7h-2.5v-12.9h2.5Z"/>
    <path d="M283.6,67.7v-1.4c-.3.5-.8.9-1.3,1.2s-1.1.4-1.8.4-1.2-.1-1.7-.4-.9-.7-1.1-1.2-.3-1.2-.3-2.1v-5.9h2.5v4.3c0,1.3,0,2.1.1,2.4,0,.3.3.5.5.7s.5.3.9.3.8-.1,1.1-.3c.3-.2.6-.5.7-.9.1-.3.2-1.2.2-2.5v-3.9h2.5v9.3h-2.3Z"/>
    <path d="M288.2,58.4h2.3v1.3c.8-1,1.8-1.5,2.9-1.5s1.1.1,1.6.4.8.6,1.1,1.1c.4-.5.9-.9,1.3-1.1s1-.4,1.5-.4,1.3.1,1.7.4.8.7,1.1,1.2c.2.4.2,1,.2,1.9v6h-2.5v-5.3c0-.9,0-1.5-.2-1.8-.2-.3-.6-.5-1-.5s-.7.1-1,.3-.5.5-.7.9c-.1.4-.2,1.1-.2,1.9v4.5h-2.5v-5.1c0-.9,0-1.5-.1-1.8s-.2-.5-.4-.6-.4-.2-.8-.2-.7,0-1,.3-.5.5-.6.9-.2,1-.2,1.9v4.5h-2.5v-9.3h0Z"/>
    <path d="M306.3,61.2l-2.2-.4c.2-.9.7-1.6,1.3-2s1.5-.7,2.7-.7,1.9.1,2.5.4c.5.3.9.6,1.1,1s.3,1.1.3,2.2v2.9c0,.8,0,1.4,0,1.8s.2.8.4,1.2h-2.4c0-.2-.1-.4-.2-.7,0-.2,0-.2,0-.3-.4.4-.9.7-1.4.9s-1,.3-1.5.3c-1,0-1.7-.3-2.3-.8s-.8-1.2-.8-2,.1-1,.4-1.4.6-.7,1.1-.9c.5-.2,1.1-.4,2-.6,1.1-.2,2-.4,2.4-.6v-.2c0-.5-.1-.8-.4-1-.2-.2-.7-.3-1.3-.3s-.8,0-1,.3c-.2.2-.5.5-.6.9h0ZM309.6,63.2c-.3.1-.8.2-1.5.4s-1.1.3-1.3.4c-.3.2-.5.5-.5.9s.1.6.4.9.6.4,1,.4.9-.2,1.3-.4c.3-.2.5-.5.6-.8,0-.2.1-.6.1-1.2v-.5h0Z"/>
    <path d="M322.9,67.7h-2.5v-4.8c0-1,0-1.7-.2-2s-.3-.5-.5-.7-.5-.2-.9-.2-.8.1-1.1.3-.6.5-.7.9-.2,1.1-.2,2.1v4.2h-2.5v-9.3h2.3v1.4c.8-1.1,1.8-1.6,3.1-1.6s1,0,1.5.3.8.4,1,.8.4.7.5,1,.1.9.1,1.7v5.8h0Z"/>
    <path d="M334.7,58.4v2h-1.7v3.8c0,.8,0,1.2,0,1.3s.1.2.2.3.2.1.4.1.6,0,1-.2l.2,1.9c-.6.2-1.2.4-2,.4s-.9,0-1.2-.2c-.4-.2-.6-.3-.8-.6-.2-.2-.3-.6-.4-1,0-.3,0-.9,0-1.7v-4.1h-1.1v-2h1.1v-1.8l2.5-1.4v3.3h1.7Z"/>
    <path d="M335.8,62.9c0-.8.2-1.6.6-2.4s1-1.3,1.7-1.8,1.6-.6,2.5-.6c1.4,0,2.6.5,3.5,1.4s1.4,2.1,1.4,3.5-.5,2.6-1.4,3.5-2.1,1.4-3.4,1.4-1.7-.2-2.5-.6-1.4-.9-1.8-1.7-.6-1.7-.6-2.7h0ZM338.4,63.1c0,.9.2,1.6.7,2.1s1,.7,1.6.7,1.2-.2,1.6-.7.6-1.2.6-2.1-.2-1.6-.6-2.1-1-.7-1.6-.7-1.2.2-1.6.7-.7,1.2-.7,2.1h0Z"/>
    <path d="M355,67.7l-3.8-9.3h2.6l1.8,4.8.5,1.6c.1-.4.2-.7.2-.8,0-.3.2-.5.3-.8l1.8-4.8h2.5l-3.7,9.3h-2.2Z"/>
    <path d="M367.8,64.8l2.5.4c-.3.9-.8,1.6-1.5,2.1s-1.5.7-2.6.7c-1.6,0-2.8-.5-3.6-1.6-.6-.8-.9-1.9-.9-3.2s.4-2.8,1.2-3.6,1.8-1.3,3.1-1.3,2.5.5,3.3,1.4c.8.9,1.2,2.3,1.1,4.2h-6.2c0,.7.2,1.3.6,1.7.4.4.9.6,1.4.6s.7-.1,1-.3.5-.6.6-1h0ZM368,62.3c0-.7-.2-1.3-.5-1.6-.4-.4-.8-.6-1.3-.6s-1,.2-1.3.6-.5.9-.5,1.6h3.7,0Z"/>
    <path d="M376.7,58.4v2h-1.7v3.8c0,.8,0,1.2,0,1.3s.1.2.2.3.2.1.4.1.6,0,1-.2l.2,1.9c-.6.2-1.2.4-2,.4s-.9,0-1.2-.2c-.4-.2-.6-.3-.8-.6-.2-.2-.3-.6-.4-1,0-.3,0-.9,0-1.7v-4.1h-1.1v-2h1.1v-1.8l2.5-1.4v3.3h1.7Z"/>
    <path d="M383.8,64.8l2.5.4c-.3.9-.8,1.6-1.5,2.1s-1.5.7-2.6.7c-1.6,0-2.8-.5-3.6-1.6-.6-.8-.9-1.9-.9-3.2s.4-2.8,1.2-3.6,1.8-1.3,3.1-1.3,2.5.5,3.3,1.4c.8.9,1.2,2.3,1.1,4.2h-6.2c0,.7.2,1.3.6,1.7.4.4.9.6,1.4.6s.7-.1,1-.3.5-.6.6-1h0ZM384,62.3c0-.7-.2-1.3-.5-1.6-.4-.4-.8-.6-1.3-.6s-1,.2-1.3.6-.5.9-.5,1.6h3.7,0Z"/>
    <path d="M390.8,67.7h-2.5v-9.3h2.3v1.3c.4-.6.8-1,1.1-1.2s.7-.3,1.1-.3,1.1.2,1.6.5l-.8,2.2c-.4-.3-.8-.4-1.2-.4s-.6,0-.9.3-.4.5-.6,1-.2,1.5-.2,3.1v2.9h0Z"/>
    <path d="M403.9,67.7h-2.5v-4.8c0-1,0-1.7-.2-2s-.3-.5-.5-.7-.5-.2-.9-.2-.8.1-1.1.3-.6.5-.7.9-.2,1.1-.2,2.1v4.2h-2.5v-9.3h2.3v1.4c.8-1.1,1.8-1.6,3.1-1.6s1,0,1.5.3.8.4,1,.8.4.7.5,1,.1.9.1,1.7v5.8h0Z"/>
    <path d="M408.3,61.2l-2.2-.4c.2-.9.7-1.6,1.3-2s1.5-.7,2.7-.7,1.9.1,2.5.4c.5.3.9.6,1.1,1s.3,1.1.3,2.2v2.9c0,.8,0,1.4,0,1.8s.2.8.4,1.2h-2.4c0-.2-.1-.4-.2-.7,0-.2,0-.2,0-.3-.4.4-.9.7-1.4.9s-1,.3-1.5.3c-1,0-1.7-.3-2.3-.8s-.8-1.2-.8-2,.1-1,.4-1.4.6-.7,1.1-.9c.5-.2,1.1-.4,2-.6,1.1-.2,2-.4,2.4-.6v-.2c0-.5-.1-.8-.4-1-.2-.2-.7-.3-1.3-.3s-.8,0-1,.3c-.2.2-.5.5-.6.9h0ZM411.6,63.2c-.3.1-.8.2-1.5.4s-1.1.3-1.3.4c-.3.2-.5.5-.5.9s.1.6.4.9.6.4,1,.4.9-.2,1.3-.4c.3-.2.5-.5.6-.8,0-.2.1-.6.1-1.2v-.5h0Z"/>
    <path d="M418.8,67.7h-2.5v-9.3h2.3v1.3c.4-.6.8-1,1.1-1.2s.7-.3,1.1-.3,1.1.2,1.6.5l-.8,2.2c-.4-.3-.8-.4-1.2-.4s-.6,0-.9.3-.4.5-.6,1-.2,1.5-.2,3.1v2.9h0Z"/>
    <path d="M422.3,58.4h2.6l2.2,6.6,2.2-6.6h2.6l-3.3,9-.6,1.6c-.2.5-.4,1-.6,1.2s-.4.5-.7.7-.6.3-.9.4-.8.2-1.3.2-.9,0-1.4-.2l-.2-1.9c.4,0,.7.1,1,.1.6,0,1-.2,1.3-.5.3-.3.5-.8.6-1.3l-3.5-9.4h0Z"/>
    <path d="M442.7,58.4v2h-1.7v3.8c0,.8,0,1.2,0,1.3s.1.2.2.3.2.1.4.1.6,0,1-.2l.2,1.9c-.6.2-1.2.4-2,.4s-.9,0-1.2-.2c-.4-.2-.6-.3-.8-.6-.2-.2-.3-.6-.4-1,0-.3,0-.9,0-1.7v-4.1h-1.1v-2h1.1v-1.8l2.5-1.4v3.3h1.7Z"/>
    <path d="M446.3,61.2l-2.2-.4c.2-.9.7-1.6,1.3-2s1.5-.7,2.7-.7,1.9.1,2.5.4c.5.3.9.6,1.1,1s.3,1.1.3,2.2v2.9c0,.8,0,1.4,0,1.8s.2.8.4,1.2h-2.4c0-.2-.1-.4-.2-.7,0-.2,0-.2,0-.3-.4.4-.9.7-1.4.9s-1,.3-1.5.3c-1,0-1.7-.3-2.3-.8s-.8-1.2-.8-2,.1-1,.4-1.4.6-.7,1.1-.9c.5-.2,1.1-.4,2-.6,1.1-.2,2-.4,2.4-.6v-.2c0-.5-.1-.8-.4-1-.2-.2-.7-.3-1.3-.3s-.8,0-1,.3c-.2.2-.5.5-.6.9h0ZM449.6,63.2c-.3.1-.8.2-1.5.4s-1.1.3-1.3.4c-.3.2-.5.5-.5.9s.1.6.4.9.6.4,1,.4.9-.2,1.3-.4c.3-.2.5-.5.6-.8,0-.2.1-.6.1-1.2v-.5h0Z"/>
    <path d="M456.8,67.7h-2.5v-9.3h2.3v1.3c.4-.6.8-1,1.1-1.2s.7-.3,1.1-.3,1.1.2,1.6.5l-.8,2.2c-.4-.3-.8-.4-1.2-.4s-.6,0-.9.3-.4.5-.6,1-.2,1.5-.2,3.1v2.9h0Z"/>
    <path d="M461.3,68.3l2.8.3c0,.3.2.6.3.7.2.2.6.3,1.1.3s1.1,0,1.5-.3c.2-.1.4-.3.5-.6,0-.2.1-.6.1-1.1v-1.4c-.7,1-1.7,1.5-2.8,1.5s-2.2-.5-3-1.6c-.6-.8-.9-1.9-.9-3.1s.4-2.8,1.1-3.6,1.7-1.2,2.8-1.2,2.1.5,2.9,1.5v-1.3h2.3v8.4c0,1.1,0,1.9-.3,2.5s-.4,1-.8,1.3-.8.6-1.3.7-1.2.3-2.1.3c-1.6,0-2.7-.3-3.4-.8s-1-1.2-1-2.1v-.3h0ZM463.5,62.9c0,1,.2,1.7.6,2.2.4.5.9.7,1.4.7s1.1-.2,1.5-.7.6-1.2.6-2.1-.2-1.7-.6-2.2-.9-.7-1.5-.7-1.1.2-1.5.7-.6,1.2-.6,2.1h0Z"/>
    <path d="M477.9,64.8l2.5.4c-.3.9-.8,1.6-1.5,2.1s-1.5.7-2.6.7c-1.6,0-2.8-.5-3.6-1.6-.6-.8-.9-1.9-.9-3.2s.4-2.8,1.2-3.6,1.8-1.3,3.1-1.3,2.5.5,3.3,1.4c.8.9,1.2,2.3,1.1,4.2h-6.2c0,.7.2,1.3.6,1.7.4.4.9.6,1.4.6s.7-.1,1-.3.5-.6.6-1h0ZM478,62.3c0-.7-.2-1.3-.5-1.6-.4-.4-.8-.6-1.3-.6s-1,.2-1.3.6-.5.9-.5,1.6h3.7,0Z"/>
    <path d="M486.8,58.4v2h-1.7v3.8c0,.8,0,1.2,0,1.3s.1.2.2.3.2.1.4.1.6,0,1-.2l.2,1.9c-.6.2-1.2.4-2,.4s-.9,0-1.2-.2c-.4-.2-.6-.3-.8-.6-.2-.2-.3-.6-.4-1,0-.3,0-.9,0-1.7v-4.1h-1.1v-2h1.1v-1.8l2.5-1.4v3.3h1.7Z"/>
    <path d="M487.6,65.1l2.5-.4c.1.5.3.8.6,1.1.3.2.8.4,1.4.4s1.1-.1,1.4-.3c.2-.2.3-.4.3-.7s0-.3-.2-.5c-.1-.1-.4-.2-.8-.3-2-.4-3.2-.8-3.8-1.2-.7-.5-1.1-1.2-1.1-2.1s.3-1.5,1-2,1.6-.8,3-.8,2.2.2,2.9.6,1,1,1.3,1.8l-2.3.4c-.1-.4-.3-.6-.6-.8s-.7-.3-1.2-.3-1.1,0-1.4.3c-.2.1-.3.3-.3.5s0,.3.2.4c.2.2,1,.4,2.3.7s2.2.7,2.8,1.1c.5.4.8,1.1.8,1.8s-.4,1.6-1.1,2.2-1.8.9-3.2.9-2.3-.3-3-.8-1.2-1.2-1.5-2.1h0Z"/>
    <path d="M231.3,89.3v-11.4h-4.2v-1.5h10.2v1.5h-4.3v11.4h-1.7,0Z"/>
    <path d="M242.9,88.2c-.6.5-1.1.8-1.7,1.1s-1.1.3-1.7.3c-1,0-1.8-.2-2.4-.8s-.8-1.1-.8-1.9.1-.9.3-1.2c.2-.4.5-.7.8-.9s.7-.4,1.1-.5c.3,0,.8-.2,1.4-.2,1.3-.2,2.2-.3,2.8-.5v-.4c0-.6-.1-1.1-.4-1.4-.4-.4-1-.5-1.8-.5s-1.3.1-1.6.4-.6.7-.8,1.4l-1.6-.2c.1-.7.4-1.2.7-1.6.3-.4.8-.7,1.4-.9s1.3-.3,2.1-.3,1.4,0,1.9.3.9.4,1.1.7c.2.3.4.6.5,1.1,0,.3,0,.8,0,1.5v2.1c0,1.5,0,2.4.1,2.8s.2.8.4,1.1h-1.6c-.2-.3-.3-.7-.3-1.2h0ZM242.7,84.6c-.6.2-1.4.4-2.6.6-.6,0-1.1.2-1.4.3s-.5.3-.6.5-.2.5-.2.8c0,.4.2.8.5,1.1s.8.4,1.4.4,1.1-.1,1.6-.4.8-.6,1.1-1.1c.2-.4.2-.9.2-1.6v-.6h0Z"/>
    <path d="M246.8,78.3v-1.8h1.6v1.8h-1.6ZM246.8,89.3v-9.3h1.6v9.3h-1.6Z"/>
    <path d="M250.8,89.3v-12.9h1.6v12.9h-1.6Z"/>
    <path d="M254.2,84.7c0-1.7.5-3,1.4-3.8.8-.7,1.8-1,2.9-1s2.3.4,3.1,1.3,1.2,2,1.2,3.5-.2,2.2-.5,2.8c-.4.7-.9,1.2-1.6,1.6s-1.4.6-2.2.6c-1.3,0-2.4-.4-3.2-1.3s-1.2-2-1.2-3.6h0ZM255.8,84.7c0,1.2.3,2.1.8,2.7.5.6,1.2.9,2,.9s1.4-.3,2-.9.8-1.5.8-2.7-.3-2-.8-2.6c-.5-.6-1.2-.9-2-.9s-1.4.3-2,.9-.8,1.5-.8,2.7h0Z"/>
    <path d="M264.8,89.3v-9.3h1.4v1.4c.4-.7.7-1.1,1-1.3s.6-.3,1-.3c.5,0,1.1.2,1.6.5l-.5,1.5c-.4-.2-.8-.3-1.2-.3s-.7,0-.9.3-.5.5-.6.9c-.2.6-.3,1.2-.3,1.8v4.9h-1.6Z"/>
    <path d="M277.2,86.3l1.6.2c-.3,1-.7,1.7-1.4,2.2s-1.6.8-2.7.8-2.4-.4-3.2-1.3c-.8-.8-1.2-2-1.2-3.5s.4-2.8,1.2-3.7,1.9-1.3,3.1-1.3,2.3.4,3.1,1.3,1.2,2,1.2,3.6v.4h-7c0,1,.4,1.8.9,2.4s1.2.8,1.9.8,1.1-.2,1.5-.5.7-.8,1-1.5h0ZM272,83.8h5.2c0-.8-.3-1.4-.6-1.8-.5-.6-1.2-.9-2-.9s-1.3.2-1.8.7-.8,1.1-.8,1.9h0Z"/>
    <path d="M286.9,89.3v-1.2c-.6.9-1.5,1.4-2.6,1.4s-1.4-.2-2-.6-1.1-1-1.5-1.7c-.3-.7-.5-1.6-.5-2.5s.2-1.8.5-2.5.8-1.3,1.4-1.8,1.3-.6,2.1-.6,1.1.1,1.5.4.8.6,1.1.9v-4.6h1.6v12.9h-1.5ZM281.9,84.7c0,1.2.2,2.1.8,2.7s1.1.9,1.8.9,1.3-.3,1.8-.8.7-1.4.7-2.6-.2-2.2-.7-2.8-1.1-.9-1.8-.9-1.3.3-1.8.9-.7,1.5-.7,2.7h0Z"/>
    <path d="M295.2,86.5l1.6-.2c0,.6.3,1.1.7,1.4s1,.5,1.7.5,1.3-.2,1.6-.4.5-.6.5-1-.2-.6-.5-.8c-.2-.1-.8-.3-1.6-.5-1.2-.3-2-.6-2.4-.8s-.8-.5-1-.9c-.2-.4-.4-.8-.4-1.2s.1-.8.3-1.2c.2-.3.5-.7.8-.9.2-.2.6-.3,1-.5s.9-.2,1.4-.2c.7,0,1.4.1,1.9.3s1,.5,1.2.9c.3.4.5.8.5,1.4l-1.5.2c0-.5-.3-.9-.6-1.1s-.8-.4-1.4-.4-1.2.1-1.6.4-.5.5-.5.8,0,.4.2.6c.1.2.3.3.6.4.2,0,.6.2,1.4.4,1.1.3,1.9.5,2.3.7s.8.5,1,.8.4.8.4,1.3-.1,1-.5,1.5c-.3.5-.8.8-1.3,1.1-.6.3-1.2.4-2,.4-1.2,0-2.1-.2-2.8-.8s-1-1.2-1.2-2.2h0Z"/>
    <path d="M304.2,84.7c0-1.7.5-3,1.4-3.8.8-.7,1.8-1,2.9-1s2.3.4,3.1,1.3,1.2,2,1.2,3.5-.2,2.2-.5,2.8c-.4.7-.9,1.2-1.6,1.6s-1.4.6-2.2.6c-1.3,0-2.4-.4-3.2-1.3s-1.2-2-1.2-3.6h0ZM305.9,84.7c0,1.2.3,2.1.8,2.7.5.6,1.2.9,2,.9s1.4-.3,2-.9.8-1.5.8-2.7-.3-2-.8-2.6c-.5-.6-1.2-.9-2-.9s-1.5.3-2,.9-.8,1.5-.8,2.7h0Z"/>
    <path d="M314.8,89.3v-12.9h1.6v12.9h-1.6Z"/>
    <path d="M324.9,89.3v-1.4c-.7,1.1-1.7,1.6-3,1.6s-1.1-.1-1.5-.3-.8-.5-1.1-.8-.4-.7-.5-1.2c0-.3-.1-.8-.1-1.5v-5.8h1.6v5.2c0,.8,0,1.4.1,1.7.1.4.3.7.6,1,.3.2.7.4,1.2.4s.9-.1,1.3-.4.7-.6.9-1,.3-1,.3-1.8v-5h1.6v9.3h-1.4Z"/>
    <path d="M332.3,87.9l.2,1.4c-.5,0-.8.1-1.2.1-.6,0-1,0-1.3-.3s-.5-.4-.7-.7-.2-.9-.2-1.9v-5.4h-1.2v-1.2h1.2v-2.3l1.6-.9v3.3h1.6v1.2h-1.6v5.5c0,.4,0,.7,0,.9s.1.2.3.3.3.1.5.1.4,0,.7,0h0Z"/>
    <path d="M333.8,78.3v-1.8h1.6v1.8h-1.6ZM333.8,89.3v-9.3h1.6v9.3h-1.6Z"/>
    <path d="M337.2,84.7c0-1.7.5-3,1.4-3.8.8-.7,1.8-1,2.9-1s2.3.4,3.1,1.3,1.2,2,1.2,3.5-.2,2.2-.5,2.8c-.4.7-.9,1.2-1.6,1.6s-1.4.6-2.2.6c-1.3,0-2.4-.4-3.2-1.3s-1.2-2-1.2-3.6h0ZM338.9,84.7c0,1.2.3,2.1.8,2.7.5.6,1.2.9,2,.9s1.4-.3,2-.9.8-1.5.8-2.7-.3-2-.8-2.6c-.5-.6-1.2-.9-2-.9s-1.5.3-2,.9-.8,1.5-.8,2.7h0Z"/>
    <path d="M347.8,89.3v-9.3h1.4v1.3c.7-1,1.7-1.5,3-1.5s1.1,0,1.5.3c.5.2.8.5,1.1.8s.4.7.5,1.2c0,.3,0,.8,0,1.5v5.7h-1.6v-5.7c0-.6,0-1.1-.2-1.4s-.3-.6-.6-.8c-.3-.2-.7-.3-1.1-.3-.7,0-1.3.2-1.7.6s-.7,1.2-.7,2.4v5.1h-1.6Z"/>
    <path d="M357.2,86.5l1.6-.2c0,.6.3,1.1.7,1.4s1,.5,1.7.5,1.3-.2,1.6-.4.5-.6.5-1-.2-.6-.5-.8c-.2-.1-.8-.3-1.6-.5-1.2-.3-2-.6-2.4-.8s-.8-.5-1-.9c-.2-.4-.4-.8-.4-1.2s.1-.8.3-1.2c.2-.3.5-.7.8-.9.2-.2.6-.3,1-.5s.9-.2,1.4-.2c.7,0,1.4.1,1.9.3s1,.5,1.2.9c.3.4.5.8.5,1.4l-1.5.2c0-.5-.3-.9-.6-1.1s-.8-.4-1.4-.4-1.2.1-1.6.4-.5.5-.5.8,0,.4.2.6c.1.2.3.3.6.4.2,0,.6.2,1.4.4,1.1.3,1.9.5,2.3.7s.8.5,1,.8.4.8.4,1.3-.1,1-.5,1.5c-.3.5-.8.8-1.3,1.1-.6.3-1.2.4-2,.4-1.2,0-2.1-.2-2.8-.8s-1-1.2-1.2-2.2h0Z"/>
    <path d="M372.2,89.3v-8.1h-1.4v-1.2h1.4v-1c0-.6,0-1.1.2-1.4.1-.4.4-.7.8-1,.4-.2.9-.4,1.6-.4s.9,0,1.5.2l-.2,1.4c-.3,0-.6,0-.9,0-.5,0-.8,0-1,.3s-.3.6-.3,1.2v.9h1.8v1.2h-1.8v8.1h-1.6Z"/>
    <path d="M376.3,84.7c0-1.7.5-3,1.4-3.8.8-.7,1.8-1,2.9-1s2.3.4,3.1,1.3,1.2,2,1.2,3.5-.2,2.2-.5,2.8c-.4.7-.9,1.2-1.6,1.6s-1.4.6-2.2.6c-1.3,0-2.4-.4-3.2-1.3s-1.2-2-1.2-3.6h0ZM377.9,84.7c0,1.2.3,2.1.8,2.7.5.6,1.2.9,2,.9s1.4-.3,2-.9.8-1.5.8-2.7-.3-2-.8-2.6c-.5-.6-1.2-.9-2-.9s-1.5.3-2,.9-.8,1.5-.8,2.7h0Z"/>
    <path d="M386.9,89.3v-9.3h1.4v1.4c.4-.7.7-1.1,1-1.3s.6-.3,1-.3c.5,0,1.1.2,1.6.5l-.5,1.5c-.4-.2-.8-.3-1.2-.3s-.7,0-.9.3-.5.5-.6.9c-.2.6-.3,1.2-.3,1.8v4.9h-1.6Z"/>
    <path d="M404.3,86.3l1.6.2c-.3,1-.7,1.7-1.4,2.2s-1.6.8-2.7.8-2.5-.4-3.2-1.3c-.8-.8-1.2-2-1.2-3.5s.4-2.8,1.2-3.7,1.9-1.3,3.1-1.3,2.3.4,3.1,1.3,1.2,2,1.2,3.6v.4h-7c0,1,.4,1.8.9,2.4s1.2.8,2,.8,1.1-.2,1.5-.5.7-.8,1-1.5h0ZM399.1,83.8h5.2c0-.8-.3-1.4-.6-1.8-.5-.6-1.2-.9-2-.9s-1.3.2-1.8.7-.8,1.1-.8,1.9Z"/>
    <path d="M410.5,89.3l-3.5-9.3h1.7l2,5.6c.2.6.4,1.2.6,1.9.1-.5.3-1.1.6-1.8l2.1-5.7h1.6l-3.5,9.3h-1.5Z"/>
    <path d="M423.3,86.3l1.6.2c-.3,1-.7,1.7-1.4,2.2s-1.6.8-2.7.8-2.5-.4-3.2-1.3c-.8-.8-1.2-2-1.2-3.5s.4-2.8,1.2-3.7,1.9-1.3,3.1-1.3,2.3.4,3.1,1.3,1.2,2,1.2,3.6v.4h-7c0,1,.4,1.8.9,2.4s1.2.8,2,.8,1.1-.2,1.5-.5.7-.8,1-1.5h0ZM418.1,83.8h5.2c0-.8-.3-1.4-.6-1.8-.5-.6-1.2-.9-2-.9s-1.3.2-1.8.7-.8,1.1-.8,1.9Z"/>
    <path d="M426.9,89.3v-9.3h1.4v1.4c.4-.7.7-1.1,1-1.3s.6-.3,1-.3c.5,0,1.1.2,1.6.5l-.5,1.5c-.4-.2-.8-.3-1.2-.3s-.7,0-.9.3-.5.5-.6.9c-.2.6-.3,1.2-.3,1.8v4.9h-1.6Z"/>
    <path d="M432.8,92.9l-.2-1.5c.4,0,.6.1.9.1s.6,0,.8-.2.4-.3.5-.5c.1-.2.3-.6.5-1.2,0,0,0-.2.1-.4l-3.5-9.3h1.7l1.9,5.4c.2.7.5,1.4.7,2.2.2-.7.4-1.4.6-2.1l2-5.4h1.6l-3.5,9.5c-.4,1-.7,1.7-.9,2.1-.3.5-.6.9-1,1.2-.4.2-.8.4-1.3.4s-.6,0-1-.2h0Z"/>
    <path d="M446.9,89.3v-9.3h1.4v1.3c.7-1,1.7-1.5,3-1.5s1.1,0,1.5.3c.5.2.8.5,1.1.8s.4.7.5,1.2c0,.3,0,.8,0,1.5v5.7h-1.6v-5.7c0-.6,0-1.1-.2-1.4s-.3-.6-.6-.8c-.3-.2-.7-.3-1.1-.3-.7,0-1.3.2-1.7.6s-.7,1.2-.7,2.4v5.1h-1.6Z"/>
    <path d="M463.3,86.3l1.6.2c-.3,1-.7,1.7-1.4,2.2s-1.6.8-2.7.8-2.5-.4-3.2-1.3c-.8-.8-1.2-2-1.2-3.5s.4-2.8,1.2-3.7,1.9-1.3,3.1-1.3,2.3.4,3.1,1.3,1.2,2,1.2,3.6v.4h-7c0,1,.4,1.8.9,2.4s1.2.8,2,.8,1.1-.2,1.5-.5.7-.8,1-1.5h0ZM458.1,83.8h5.2c0-.8-.3-1.4-.6-1.8-.5-.6-1.2-.9-2-.9s-1.3.2-1.8.7-.8,1.1-.8,1.9Z"/>
    <path d="M473.3,86.3l1.6.2c-.3,1-.7,1.7-1.4,2.2s-1.6.8-2.7.8-2.5-.4-3.2-1.3c-.8-.8-1.2-2-1.2-3.5s.4-2.8,1.2-3.7,1.9-1.3,3.1-1.3,2.3.4,3.1,1.3,1.2,2,1.2,3.6v.4h-7c0,1,.4,1.8.9,2.4s1.2.8,2,.8,1.1-.2,1.5-.5.7-.8,1-1.5h0ZM468.1,83.8h5.2c0-.8-.3-1.4-.6-1.8-.5-.6-1.2-.9-2-.9s-1.3.2-1.8.7-.8,1.1-.8,1.9Z"/>
    <path d="M483,89.3v-1.2c-.6.9-1.5,1.4-2.6,1.4s-1.4-.2-2-.6-1.1-1-1.5-1.7c-.3-.7-.5-1.6-.5-2.5s.2-1.8.5-2.5.8-1.3,1.4-1.8,1.3-.6,2.1-.6,1.1.1,1.5.4.8.6,1.1.9v-4.6h1.6v12.9h-1.5ZM478,84.7c0,1.2.2,2.1.8,2.7s1.1.9,1.8.9,1.3-.3,1.8-.8.7-1.4.7-2.6-.2-2.2-.7-2.8-1.1-.9-1.8-.9-1.3.3-1.8.9-.7,1.5-.7,2.7h0Z"/>
  </g>
  <g>
    <line class="st2" x1="27.4" y1="103.5" x2="757" y2="103.5"/>
    <line class="st2" x1="28.3" y1="144.2" x2="28.3" y2="103.3"/>
    <line class="st2" x1="756.3" y1="143.6" x2="756.3" y2="102.7"/>
  </g>
  <line class="st2" x1="850.7" y1="102.7" x2="1230.9" y2="102.7"/>
  <line class="st2" x1="851.2" y1="143.6" x2="851.2" y2="102.7"/>
  <line class="st2" x1="1230.5" y1="143.6" x2="1230.5" y2="102.7"/>
</svg>