<?xml version="1.0" encoding="UTF-8"?>
<svg id="Layer_1" xmlns="http://www.w3.org/2000/svg" xmlns:xlink="http://www.w3.org/1999/xlink" version="1.1" viewBox="0 0 1261.2 401.3">
  <!-- Generator: Adobe Illustrator 29.3.0, SVG Export Plug-In . SVG Version: 2.1.0 Build 146)  -->
  <defs>
    <style>
      .st0, .st1, .st2 {
        fill: none;
      }

      .st3 {
        isolation: isolate;
      }

      .st4 {
        fill: #fff;
      }

      .st1 {
        stroke: #000;
      }

      .st1, .st2 {
        stroke-miterlimit: 10;
      }

      .st5 {
        fill: #221f1f;
      }

      .st2 {
        stroke: #221f1f;
        stroke-width: 2px;
      }
    </style>
  </defs>
  <g class="st3">
    <g class="st3">
      <g class="st3">
        <path class="st5" d="M861.7,367.1v-10.4h3.4c1.3,0,2.1,0,2.5.2.6.2,1.1.5,1.5,1s.6,1.2.6,2-.1,1.2-.3,1.6c-.2.4-.5.8-.9,1s-.7.4-1.1.5c-.5.1-1.2.1-2.2.1h-1.4v3.9h-2.1,0ZM863.8,358.5v3h1.2c.8,0,1.4,0,1.7-.2.3-.1.5-.3.7-.5s.2-.5.2-.8-.1-.7-.3-.9c-.2-.2-.5-.4-.8-.5-.2,0-.8,0-1.5,0h-1,0Z"/>
        <path class="st5" d="M876.3,367.1v-1.1c-.3.4-.6.7-1.1,1s-.9.4-1.4.4-1-.1-1.4-.3c-.4-.2-.7-.5-.9-.9-.2-.4-.3-1-.3-1.7v-4.8h2v3.5c0,1.1,0,1.7.1,2,0,.2.2.4.4.6s.4.2.7.2.7,0,.9-.3c.3-.2.5-.4.6-.7s.2-1,.2-2v-3.2h2v7.6h-1.9Z"/>
        <path class="st5" d="M882.2,367.1h-2v-7.6h1.9v1.1c.3-.5.6-.8.9-1,.2-.2.5-.2.9-.2s.9.1,1.3.4l-.6,1.7c-.3-.2-.7-.3-.9-.3s-.5,0-.7.2-.3.4-.5.8c-.1.4-.2,1.2-.2,2.5v2.3h0Z"/>
        <path class="st5" d="M885.9,358.6v-1.9h2v1.9h-2ZM885.9,367.1v-7.6h2v7.6h-2Z"/>
        <path class="st5" d="M889.1,359.6h1.1v-.6c0-.6,0-1.1.2-1.4.1-.3.4-.6.8-.8.4-.2.8-.3,1.4-.3s1.1,0,1.7.3l-.3,1.4c-.3,0-.6-.1-.9-.1s-.5,0-.6.2c-.1.1-.2.4-.2.8v.5h1.5v1.6h-1.5v6h-2v-6h-1.1v-1.6h0Z"/>
        <path class="st5" d="M894.8,358.6v-1.9h2v1.9h-2ZM894.8,367.1v-7.6h2v7.6h-2Z"/>
        <path class="st5" d="M905.5,361.8l-2,.4c0-.4-.2-.7-.5-.9-.2-.2-.5-.3-.9-.3s-.9.2-1.2.5c-.3.3-.4.9-.4,1.7s.2,1.5.5,1.9.7.6,1.2.6.7-.1.9-.3.4-.6.5-1.1l2,.3c-.2.9-.6,1.6-1.2,2-.6.5-1.3.7-2.3.7s-2-.4-2.6-1c-.7-.7-1-1.7-1-2.9s.3-2.2,1-2.9c.7-.7,1.5-1,2.7-1s1.7.2,2.2.6c.5.4.9,1,1.2,1.8h0Z"/>
        <path class="st5" d="M908.5,361.9l-1.8-.3c.2-.7.6-1.3,1-1.6.5-.4,1.2-.5,2.2-.5s1.6.1,2,.3.7.5.9.8.3.9.3,1.8v2.3c0,.7,0,1.1,0,1.5,0,.3.2.6.4,1h-2c0-.1-.1-.3-.2-.6,0-.1,0-.2,0-.2-.3.3-.7.6-1.1.8-.4.2-.8.2-1.2.2-.8,0-1.4-.2-1.8-.6s-.7-1-.7-1.6,0-.8.3-1.1c.2-.3.5-.6.9-.8s.9-.3,1.6-.5c.9-.2,1.6-.3,1.9-.5v-.2c0-.4,0-.7-.3-.8s-.5-.2-1.1-.2-.6,0-.8.2c-.2.1-.4.4-.5.7h0ZM911.2,363.5c-.3,0-.7.2-1.2.3-.5.1-.9.2-1.1.4-.3.2-.4.4-.4.7s0,.5.3.7c.2.2.5.3.8.3s.7-.1,1-.4c.2-.2.4-.4.5-.7,0-.2,0-.5,0-1v-.4h0Z"/>
        <path class="st5" d="M918.6,359.6v1.6h-1.4v3c0,.6,0,1,0,1.1,0,.1,0,.2.2.2,0,0,.2.1.3.1s.5,0,.8-.2l.2,1.5c-.5.2-1,.3-1.6.3s-.7,0-1-.2c-.3-.1-.5-.3-.6-.5s-.2-.5-.3-.8c0-.2,0-.7,0-1.4v-3.3h-.9v-1.6h.9v-1.5l2-1.2v2.7h1.4,0Z"/>
        <path class="st5" d="M920,358.6v-1.9h2v1.9h-2ZM920,367.1v-7.6h2v7.6h-2Z"/>
        <path class="st5" d="M923.5,363.3c0-.7.2-1.3.5-1.9s.8-1.1,1.4-1.4c.6-.3,1.3-.5,2-.5,1.1,0,2.1.4,2.8,1.1s1.1,1.7,1.1,2.8-.4,2.1-1.1,2.8-1.7,1.1-2.8,1.1-1.3-.2-2-.5-1.1-.8-1.4-1.4c-.3-.6-.5-1.3-.5-2.2h0ZM925.6,363.4c0,.8.2,1.3.5,1.7s.8.6,1.3.6,1-.2,1.3-.6.5-1,.5-1.7-.2-1.3-.5-1.7-.8-.6-1.3-.6-1,.2-1.3.6-.5,1-.5,1.7h0Z"/>
        <path class="st5" d="M939.8,367.1h-2v-3.9c0-.8,0-1.3-.1-1.6s-.2-.4-.4-.6c-.2-.1-.4-.2-.7-.2s-.7,0-.9.3-.5.4-.6.8c0,.3-.2.9-.2,1.7v3.4h-2v-7.6h1.9v1.1c.7-.9,1.5-1.3,2.5-1.3s.8,0,1.2.2.6.4.8.6.3.5.4.8.1.8.1,1.3v4.7h0Z"/>
      </g>
    </g>
  </g>
  <rect class="st4" x="813.9" y="227.1" width="4.5" height="11.5" rx=".2" ry=".2"/>
  <g>
    <line class="st2" x1="1070.7" y1="259.7" x2="1114.4" y2="259.7"/>
    <polygon class="st5" points="1124.9 259.7 1110 265.8 1113.6 259.7 1110 253.6 1124.9 259.7"/>
  </g>
  <g>
    <line class="st2" x1="783.8" y1="256.6" x2="827.5" y2="256.6"/>
    <polygon class="st5" points="838.1 256.6 823.2 262.7 826.7 256.6 823.2 250.5 838.1 256.6"/>
  </g>
  <g class="st3">
    <g>
      <path d="M327.3,24.2l3.9,1.2c-.6,2.2-1.6,3.8-3,4.9-1.4,1.1-3.2,1.6-5.3,1.6s-4.9-.9-6.6-2.7-2.6-4.3-2.6-7.5.9-5.9,2.6-7.8,4-2.8,6.8-2.8,4.4.7,6,2.2c.9.9,1.6,2.1,2,3.7l-4,1c-.2-1-.7-1.9-1.5-2.5s-1.7-.9-2.7-.9-2.7.5-3.6,1.6-1.4,2.8-1.4,5.2.5,4.3,1.4,5.4c.9,1.1,2.1,1.6,3.5,1.6s2-.3,2.8-1c.8-.7,1.3-1.8,1.7-3.2h0Z"/>
      <path d="M334.7,11.5h4v10.9c0,1.7,0,2.8.1,3.3.2.8.6,1.5,1.2,2s1.5.8,2.7.8,2-.2,2.6-.7c.6-.5.9-1,1-1.7s.2-1.8.2-3.4v-11.1h4v10.5c0,2.4-.1,4.1-.3,5.1-.2,1-.6,1.8-1.2,2.5s-1.4,1.2-2.4,1.6-2.3.6-3.9.6-3.4-.2-4.4-.7c-1-.4-1.8-1-2.3-1.7-.6-.7-1-1.5-1.1-2.2-.3-1.2-.4-2.8-.4-5.1v-10.7h0Z"/>
      <path d="M353.9,25l3.9-.4c.2,1.3.7,2.3,1.4,2.9s1.7.9,2.9.9,2.3-.3,3-.8c.7-.5,1-1.2,1-1.9s-.1-.9-.4-1.2c-.3-.3-.8-.6-1.5-.9-.5-.2-1.5-.5-3.2-.9-2.2-.5-3.7-1.2-4.6-2-1.2-1.1-1.9-2.5-1.9-4s.3-2,.9-2.9c.6-.9,1.4-1.6,2.5-2s2.4-.7,3.9-.7c2.5,0,4.4.5,5.7,1.7,1.3,1.1,1.9,2.6,2,4.4l-4,.2c-.2-1-.5-1.8-1.1-2.2-.6-.5-1.4-.7-2.6-.7s-2.1.2-2.8.7c-.4.3-.6.7-.6,1.2s.2.9.6,1.2c.5.4,1.8.9,3.7,1.3s3.4,1,4.4,1.4c.9.5,1.7,1.2,2.2,2s.8,1.9.8,3.2-.3,2.2-1,3.2c-.6,1-1.5,1.8-2.7,2.2-1.2.5-2.6.7-4.4.7-2.5,0-4.5-.6-5.8-1.8s-2.2-2.9-2.4-5.1h0Z"/>
      <path d="M378.1,31.5V14.9h-6v-3.4h15.9v3.4h-5.9v16.7s-4,0-4,0Z"/>
      <path d="M389.4,21.6c0-2,.3-3.8.9-5.1.5-1,1.1-1.9,1.9-2.8s1.6-1.4,2.6-1.8c1.2-.5,2.7-.8,4.3-.8,3,0,5.3.9,7.1,2.8s2.7,4.4,2.7,7.6-.9,5.8-2.6,7.6c-1.8,1.8-4.1,2.7-7,2.7s-5.4-.9-7.1-2.7c-1.8-1.8-2.6-4.3-2.6-7.5h0ZM393.6,21.5c0,2.3.5,4,1.6,5.2,1,1.2,2.4,1.8,4,1.8s2.9-.6,4-1.7,1.5-2.9,1.5-5.2-.5-4-1.5-5.1-2.3-1.7-4-1.7-3,.6-4,1.7c-1,1.1-1.5,2.9-1.5,5.2h0Z"/>
      <path d="M411.9,31.5V11.5h6.1l3.6,13.7,3.6-13.7h6.1v20h-3.8v-15.8l-4,15.8h-3.9l-4-15.8v15.8h-3.8Z"/>
      <path d="M460.1,31.5h-4.4l-1.8-4.5h-8l-1.6,4.5h-4.3l7.8-20h4.3l8,20h0ZM452.7,23.6l-2.8-7.4-2.7,7.4h5.5Z"/>
      <path d="M462.3,31.5V11.5h3.9l8.2,13.4v-13.4h3.8v20h-4.1l-8.1-13.1v13.1h-3.8Z"/>
      <path d="M487,31.5V14.9h-6v-3.4h15.9v3.4h-5.9v16.7s-4,0-4,0Z"/>
      <path d="M499.5,31.5V11.5h4v20h-4Z"/>
      <path d="M516.7,24.2v-3.4h8.7v8c-.9.8-2.1,1.5-3.7,2.2-1.6.6-3.2.9-4.9.9s-3.9-.4-5.5-1.3-2.7-2.1-3.5-3.8c-.8-1.6-1.2-3.4-1.2-5.3s.4-3.9,1.3-5.6c.9-1.6,2.2-2.9,3.8-3.7,1.3-.7,2.9-1,4.8-1s4.4.5,5.8,1.6c1.4,1,2.3,2.5,2.7,4.3l-4,.8c-.3-1-.8-1.8-1.6-2.3-.8-.6-1.8-.8-2.9-.8-1.8,0-3.2.6-4.2,1.7-1,1.1-1.6,2.8-1.6,5s.5,4.2,1.6,5.3,2.4,1.8,4.2,1.8,1.7-.2,2.5-.5c.9-.3,1.6-.7,2.2-1.2v-2.5h-4.6,0Z"/>
      <path d="M529.2,31.5V11.5h14.9v3.4h-10.8v4.4h10.1v3.4h-10.1v5.5h11.2v3.4h-15.2Z"/>
      <path d="M547.9,31.5V11.5h3.9l8.2,13.4v-13.4h3.8v20h-4.1l-8.1-13.1v13.1h-3.8Z"/>
      <path d="M574.8,25l3.9-.4c.2,1.3.7,2.3,1.4,2.9.7.6,1.7.9,2.9.9s2.3-.3,3-.8c.7-.5,1-1.2,1-1.9s-.1-.9-.4-1.2c-.3-.3-.8-.6-1.5-.9-.5-.2-1.5-.5-3.2-.9-2.2-.5-3.7-1.2-4.6-2-1.2-1.1-1.8-2.5-1.8-4s.3-2,.9-2.9c.6-.9,1.4-1.6,2.5-2s2.4-.7,3.9-.7c2.5,0,4.4.5,5.7,1.7,1.3,1.1,1.9,2.6,2,4.4l-4,.2c-.2-1-.5-1.8-1.1-2.2s-1.4-.7-2.6-.7-2.1.2-2.8.7c-.4.3-.6.7-.6,1.2s.2.9.6,1.2c.5.4,1.8.9,3.7,1.3s3.4,1,4.4,1.4c.9.5,1.7,1.2,2.2,2s.8,1.9.8,3.2-.3,2.2-1,3.2c-.6,1-1.5,1.8-2.7,2.2-1.2.5-2.6.7-4.4.7-2.5,0-4.5-.6-5.8-1.8-1.4-1.2-2.2-2.9-2.4-5.1h0Z"/>
      <path d="M594.5,11.5h4v10.9c0,1.7,0,2.8.2,3.3.2.8.6,1.5,1.2,2,.7.5,1.5.8,2.7.8s2-.2,2.6-.7c.6-.5.9-1,1-1.7s.2-1.8.2-3.4v-11.1h4v10.5c0,2.4-.1,4.1-.3,5.1-.2,1-.6,1.8-1.2,2.5s-1.4,1.2-2.4,1.6-2.3.6-3.9.6-3.4-.2-4.3-.7c-1-.4-1.8-1-2.3-1.7-.6-.7-1-1.5-1.1-2.2-.3-1.2-.4-2.8-.4-5.1v-10.7h0Z"/>
      <path d="M614.7,31.5V11.5h6.5c2.5,0,4.1,0,4.8.3,1.2.3,2.1,1,2.9,2,.8,1,1.2,2.3,1.2,3.9s-.2,2.3-.7,3.1c-.5.8-1,1.5-1.7,2s-1.4.8-2.1,1c-1,.2-2.4.3-4.2.3h-2.6v7.6h-4,0ZM618.8,14.9v5.7h2.2c1.6,0,2.7,0,3.2-.3.5-.2,1-.5,1.3-1,.3-.5.5-1,.5-1.6s-.2-1.3-.6-1.8c-.4-.5-1-.8-1.6-.9-.5,0-1.5-.1-2.9-.1h-2,0Z"/>
      <path d="M633.4,31.5V11.5h6.5c2.5,0,4.1,0,4.8.3,1.2.3,2.1,1,2.9,2,.8,1,1.2,2.3,1.2,3.9s-.2,2.3-.7,3.1c-.5.8-1,1.5-1.7,2s-1.4.8-2.1,1c-1,.2-2.4.3-4.2.3h-2.6v7.6h-4,0ZM637.5,14.9v5.7h2.2c1.6,0,2.7,0,3.2-.3.5-.2,1-.5,1.3-1,.3-.5.5-1,.5-1.6s-.2-1.3-.6-1.8c-.4-.5-1-.8-1.6-.9-.5,0-1.5-.1-2.9-.1h-2,0Z"/>
      <path d="M652.2,31.5V11.6h4v16.5h10.1v3.4h-14.1Z"/>
      <path d="M671.9,31.5v-8.4l-7.3-11.6h4.7l4.7,7.9,4.6-7.9h4.7l-7.4,11.6v8.4h-4,0Z"/>
      <path d="M699.9,26.2v-3.8h7.5v3.8h-7.5Z"/>
      <path d="M725.2,11.5h7.4c1.7,0,2.9.1,3.8.4,1.2.3,2.2,1,3,1.8.8.9,1.5,2,1.9,3.2.4,1.3.7,2.9.7,4.7s-.2,3.1-.6,4.3c-.5,1.5-1.2,2.6-2.2,3.5-.7.7-1.7,1.2-2.8,1.6-.9.3-2.1.4-3.6.4h-7.6V11.5h0ZM729.3,14.9v13.3h3c1.1,0,2,0,2.5-.2.7-.2,1.2-.4,1.6-.8.4-.4.8-1,1.1-1.9.3-.9.4-2.1.4-3.7s-.1-2.7-.4-3.6c-.3-.8-.7-1.5-1.2-1.9s-1.1-.8-1.9-.9c-.6-.1-1.7-.2-3.3-.2h-1.8Z"/>
      <path d="M753.8,26.9l3.8.6c-.5,1.4-1.3,2.5-2.3,3.2-1.1.7-2.4,1.1-4,1.1-2.5,0-4.4-.8-5.6-2.5-1-1.3-1.4-3-1.4-5s.6-4.3,1.9-5.7,2.8-2,4.8-2,3.9.7,5.1,2.1,1.8,3.6,1.8,6.6h-9.6c0,1.1.3,2,.9,2.7.6.6,1.3,1,2.2,1s1.1-.2,1.5-.5.7-.9.9-1.6h0ZM754,23c0-1.1-.3-2-.9-2.5s-1.2-.9-2-.9-1.5.3-2.1.9c-.5.6-.8,1.4-.8,2.5h5.8Z"/>
      <path d="M759.6,27.4l3.9-.6c.2.8.5,1.3,1,1.7s1.2.6,2.1.6,1.7-.2,2.2-.5c.3-.2.5-.6.5-1s0-.5-.3-.7c-.2-.2-.6-.3-1.3-.5-3.1-.7-5.1-1.3-5.9-1.9-1.2-.8-1.7-1.9-1.7-3.3s.5-2.3,1.5-3.2,2.5-1.3,4.6-1.3,3.5.3,4.4,1,1.6,1.6,2,2.9l-3.6.7c-.2-.6-.5-1-.9-1.3s-1-.5-1.8-.5-1.7.1-2.2.4c-.3.2-.4.5-.4.8s.1.5.4.7c.3.3,1.5.6,3.6,1.1,2,.5,3.5,1,4.3,1.7.8.7,1.2,1.6,1.2,2.9s-.6,2.5-1.7,3.4-2.8,1.4-4.9,1.4-3.5-.4-4.7-1.2c-1.2-.8-1.9-1.9-2.3-3.3h0Z"/>
      <path d="M776.6,15v-3.5h3.8v3.5h-3.8ZM776.6,31.5v-14.5h3.8v14.5h-3.8Z"/>
      <path d="M784,32.5l4.4.5c0,.5.2.9.5,1,.4.3.9.4,1.7.4s1.8-.2,2.3-.5c.3-.2.6-.5.8-1,.1-.3.2-.9.2-1.8v-2.1c-1.2,1.6-2.6,2.3-4.3,2.3s-3.5-.8-4.6-2.5c-.9-1.3-1.3-2.9-1.3-4.9s.6-4.3,1.8-5.6c1.2-1.3,2.6-1.9,4.4-1.9s3.3.8,4.4,2.4v-2h3.6v13c0,1.7-.1,3-.4,3.8-.3.8-.7,1.5-1.2,2-.5.5-1.2.9-2,1.1s-1.9.4-3.2.4c-2.5,0-4.2-.4-5.2-1.3-1-.8-1.5-1.9-1.5-3.2s0-.3,0-.5h0ZM787.4,24c0,1.5.3,2.7.9,3.4.6.7,1.3,1.1,2.2,1.1s1.7-.4,2.4-1.1,1-1.8,1-3.3-.3-2.6-.9-3.3-1.4-1.1-2.3-1.1-1.7.4-2.3,1.1c-.6.7-.9,1.8-.9,3.3h0Z"/>
      <path d="M814.7,31.5h-3.8v-7.4c0-1.6,0-2.6-.2-3-.2-.5-.4-.8-.8-1.1s-.8-.4-1.3-.4-1.3.2-1.8.5c-.5.4-.9.8-1.1,1.5-.2.6-.3,1.7-.3,3.3v6.6h-3.8v-14.5h3.6v2.1c1.3-1.6,2.9-2.5,4.8-2.5s1.6.2,2.3.5c.7.3,1.2.7,1.6,1.2.4.5.6,1,.8,1.6.1.6.2,1.5.2,2.6v9h0Z"/>
      <path d="M833,17v3.1h-2.6v5.8c0,1.2,0,1.9,0,2.1,0,.2.2.4.3.5.2.1.4.2.7.2s.9-.1,1.5-.4l.3,3c-.9.4-1.9.6-3,.6s-1.3-.1-1.9-.3c-.6-.2-1-.5-1.2-.9s-.4-.9-.5-1.5c0-.5-.1-1.3-.1-2.7v-6.3h-1.8v-3.1h1.8v-2.9l3.9-2.2v5.1h2.6,0Z"/>
      <path d="M834.8,24.1c0-1.3.3-2.5.9-3.7.6-1.2,1.5-2.1,2.7-2.7,1.2-.6,2.4-.9,3.9-.9,2.2,0,4,.7,5.4,2.1s2.1,3.2,2.1,5.4-.7,4-2.1,5.5-3.2,2.2-5.3,2.2-2.6-.3-3.8-.9c-1.2-.6-2.1-1.5-2.8-2.7s-.9-2.6-.9-4.2ZM838.7,24.3c0,1.4.3,2.5,1,3.3s1.5,1.2,2.5,1.2,1.8-.4,2.5-1.2,1-1.9,1-3.3-.3-2.5-1-3.3c-.7-.8-1.5-1.2-2.5-1.2s-1.8.4-2.5,1.2-1,1.9-1,3.3Z"/>
      <path d="M860.5,11.5h7.4c1.7,0,2.9.1,3.8.4,1.2.3,2.2,1,3,1.8.8.9,1.5,2,1.9,3.2.4,1.3.7,2.9.7,4.7s-.2,3.1-.6,4.3c-.5,1.5-1.2,2.6-2.2,3.5-.7.7-1.7,1.2-2.8,1.6-.9.3-2.1.4-3.6.4h-7.6V11.5h0ZM864.6,14.9v13.3h3c1.1,0,2,0,2.5-.2.7-.2,1.2-.4,1.6-.8.4-.4.8-1,1.1-1.9.3-.9.4-2.1.4-3.7s-.1-2.7-.4-3.6c-.3-.8-.7-1.5-1.2-1.9s-1.1-.8-1.9-.9c-.6-.1-1.7-.2-3.3-.2h-1.8Z"/>
      <path d="M889.2,26.9l3.8.6c-.5,1.4-1.3,2.5-2.3,3.2-1.1.7-2.4,1.1-4,1.1-2.5,0-4.4-.8-5.6-2.5-1-1.3-1.4-3-1.4-5s.6-4.3,1.9-5.7,2.8-2,4.8-2,3.9.7,5.1,2.1,1.8,3.6,1.8,6.6h-9.6c0,1.1.3,2,.9,2.7.6.6,1.3,1,2.2,1s1.1-.2,1.5-.5.7-.9.9-1.6h0ZM889.4,23c0-1.1-.3-2-.9-2.5s-1.2-.9-2-.9-1.5.3-2.1.9c-.5.6-.8,1.4-.8,2.5h5.8Z"/>
      <path d="M896.3,31.5V11.5h3.8v20h-3.8Z"/>
      <path d="M904.1,15v-3.5h3.8v3.5h-3.8ZM904.1,31.5v-14.5h3.8v14.5h-3.8Z"/>
      <path d="M915.9,31.5l-5.8-14.5h4l2.7,7.4.8,2.5c.2-.6.3-1,.4-1.2.1-.4.3-.8.4-1.2l2.8-7.4h4l-5.8,14.5h-3.5,0Z"/>
      <path d="M935.9,26.9l3.8.6c-.5,1.4-1.3,2.5-2.3,3.2-1.1.7-2.4,1.1-4,1.1-2.5,0-4.4-.8-5.6-2.5-1-1.3-1.4-3-1.4-5s.6-4.3,1.9-5.7,2.8-2,4.8-2,3.9.7,5.1,2.1,1.8,3.6,1.8,6.6h-9.6c0,1.1.3,2,.9,2.7.6.6,1.3,1,2.2,1s1.1-.2,1.5-.5.7-.9.9-1.6h0ZM936.1,23c0-1.1-.3-2-.9-2.5s-1.2-.9-2-.9-1.5.3-2.1.9c-.5.6-.8,1.4-.8,2.5h5.8Z"/>
      <path d="M946.7,31.5h-3.8v-14.5h3.6v2.1c.6-1,1.2-1.6,1.7-1.9.5-.3,1-.5,1.7-.5.9,0,1.7.2,2.5.7l-1.2,3.3c-.7-.4-1.2-.6-1.8-.6s-1,.2-1.4.4c-.4.3-.7.8-.9,1.6-.2.8-.3,2.4-.3,4.9v4.5h0Z"/>
      <path d="M952.1,17h4.1l3.5,10.3,3.4-10.3h4l-5.1,14-.9,2.5c-.3.8-.7,1.5-1,1.9-.3.4-.7.8-1,1.1-.4.3-.9.5-1.5.7-.6.2-1.2.2-2,.2s-1.5,0-2.2-.2l-.3-3c.6.1,1.1.2,1.6.2.9,0,1.5-.3,2-.8.4-.5.8-1.2,1-2l-5.5-14.6h0Z"/>
    </g>
  </g>
  <rect class="st1" x="863.7" y="273.9" width="73.9" height="70.6" rx="8.5" ry="8.5"/>
  <g class="st3">
    <g class="st3">
      <g class="st3">
        <path class="st5" d="M877.4,240.5h3.8c.9,0,1.5,0,2,.2.6.2,1.1.5,1.6,1s.8,1,1,1.7.3,1.5.3,2.5-.1,1.6-.3,2.2c-.3.8-.6,1.4-1.1,1.8-.4.4-.9.6-1.5.8-.5.1-1.1.2-1.9.2h-4v-10.4h0ZM879.6,242.2v6.9h1.6c.6,0,1,0,1.3-.1.3,0,.6-.2.8-.4.2-.2.4-.5.5-1s.2-1.1.2-1.9,0-1.4-.2-1.9-.3-.8-.6-1c-.3-.2-.6-.4-1-.5-.3,0-.9-.1-1.7-.1h-1,0Z"/>
        <path class="st5" d="M892.3,248.5l2,.3c-.3.7-.7,1.3-1.2,1.7-.5.4-1.2.6-2.1.6-1.3,0-2.3-.4-2.9-1.3-.5-.7-.8-1.6-.8-2.6s.3-2.2,1-2.9c.7-.7,1.5-1.1,2.5-1.1s2,.4,2.7,1.1c.7.7,1,1.9.9,3.4h-5c0,.6.2,1,.5,1.4.3.3.7.5,1.2.5s.6,0,.8-.3c.2-.2.4-.5.5-.8h0ZM892.5,246.5c0-.6-.2-1-.5-1.3-.3-.3-.6-.5-1-.5s-.8.2-1.1.5c-.3.3-.4.8-.4,1.3h3Z"/>
        <path class="st5" d="M895.4,248.7l2-.3c0,.4.3.7.5.9.3.2.6.3,1.1.3s.9,0,1.2-.3c.2-.1.3-.3.3-.5s0-.3-.1-.4c0,0-.3-.2-.7-.3-1.6-.4-2.6-.7-3.1-1-.6-.4-.9-1-.9-1.7s.3-1.2.8-1.6c.5-.5,1.3-.7,2.4-.7s1.8.2,2.3.5.8.8,1,1.5l-1.9.4c0-.3-.2-.5-.5-.7-.2-.2-.5-.2-1-.2s-.9,0-1.1.2c-.2.1-.2.2-.2.4s0,.3.2.4c.2.1.8.3,1.9.6,1.1.2,1.8.5,2.2.9.4.4.6.9.6,1.5s-.3,1.3-.9,1.8-1.4.8-2.6.8-1.8-.2-2.4-.6-1-1-1.2-1.7h0Z"/>
        <path class="st5" d="M904.2,242.3v-1.9h2v1.9h-2ZM904.2,250.9v-7.6h2v7.6h-2Z"/>
        <path class="st5" d="M908,251.4l2.3.3c0,.3.1.5.3.5.2.1.5.2.9.2s.9,0,1.2-.2c.2-.1.3-.3.4-.5,0-.2,0-.5,0-.9v-1.1c-.6.8-1.3,1.2-2.3,1.2s-1.8-.4-2.4-1.3c-.5-.7-.7-1.5-.7-2.5s.3-2.2.9-2.9c.6-.7,1.4-1,2.3-1s1.7.4,2.3,1.2v-1.1h1.9v6.8c0,.9,0,1.6-.2,2-.2.4-.3.8-.6,1s-.6.5-1.1.6c-.4.1-1,.2-1.7.2-1.3,0-2.2-.2-2.7-.7-.5-.4-.8-1-.8-1.7v-.2h0ZM909.8,247c0,.8.2,1.4.5,1.8s.7.6,1.2.6.9-.2,1.2-.6c.3-.4.5-1,.5-1.7s-.2-1.4-.5-1.7-.7-.6-1.2-.6-.9.2-1.2.6-.5.9-.5,1.7h0Z"/>
        <path class="st5" d="M924,250.9h-2v-3.9c0-.8,0-1.3-.1-1.6s-.2-.4-.4-.6c-.2-.1-.4-.2-.7-.2s-.7,0-.9.3-.5.4-.6.8c0,.3-.2.9-.2,1.7v3.4h-2v-7.6h1.9v1.1c.7-.9,1.5-1.3,2.5-1.3s.8,0,1.2.2.6.4.8.6.3.5.4.8.1.8.1,1.3v4.7h0Z"/>
      </g>
    </g>
  </g>
  <rect class="st1" x="863.7" y="157.7" width="73.9" height="70.6" rx="8.6" ry="8.6"/>
  <g class="st3">
    <g class="st3">
      <g class="st3">
        <path class="st5" d="M982.2,250.9v-10.4h7.7v1.8h-5.6v2.3h5.2v1.8h-5.2v2.8h5.8v1.8h-7.9Z"/>
        <path class="st5" d="M990.9,250.9l2.7-3.9-2.6-3.7h2.4l1.3,2.1,1.4-2.1h2.3l-2.6,3.6,2.8,4h-2.5l-1.5-2.3-1.5,2.3h-2.3Z"/>
        <path class="st5" d="M999.9,243.3h1.9v1.1c.2-.4.6-.7,1-.9.4-.2.9-.4,1.4-.4.9,0,1.6.3,2.2,1s.9,1.6.9,2.9-.3,2.2-.9,2.9c-.6.7-1.4,1-2.2,1s-.8,0-1.1-.2-.7-.5-1.1-.9v3.8h-2v-10.4h0ZM1001.9,247c0,.9.2,1.5.5,1.9.3.4.8.6,1.2.6s.8-.2,1.2-.6.5-1,.5-1.8-.2-1.4-.5-1.8-.7-.6-1.2-.6-.9.2-1.2.6-.5.9-.5,1.7h0Z"/>
        <path class="st5" d="M1010.8,250.9h-2v-7.6h1.9v1.1c.3-.5.6-.8.9-1s.5-.2.9-.2c.5,0,.9.1,1.3.4l-.6,1.7c-.3-.2-.7-.3-.9-.3s-.5,0-.7.2-.3.4-.5.8-.2,1.2-.2,2.5v2.3h0Z"/>
        <path class="st5" d="M1018.9,248.5l2,.3c-.3.7-.7,1.3-1.2,1.7-.5.4-1.2.6-2.1.6-1.3,0-2.3-.4-2.9-1.3-.5-.7-.8-1.6-.8-2.6s.3-2.2,1-2.9,1.5-1.1,2.5-1.1,2,.4,2.7,1.1,1,1.9.9,3.4h-5c0,.6.2,1,.5,1.4.3.3.7.5,1.2.5s.6,0,.8-.3.4-.5.5-.8h0ZM1019.1,246.5c0-.6-.2-1-.5-1.3-.3-.3-.6-.5-1-.5s-.8.2-1.1.5-.4.8-.4,1.3h3Z"/>
        <path class="st5" d="M1022,248.7l2-.3c0,.4.3.7.5.9.3.2.6.3,1.1.3s.9,0,1.2-.3c.2-.1.3-.3.3-.5s0-.3-.1-.4c0,0-.3-.2-.7-.3-1.6-.4-2.6-.7-3.1-1-.6-.4-.9-1-.9-1.7s.3-1.2.8-1.6c.5-.5,1.3-.7,2.4-.7s1.8.2,2.3.5.8.8,1,1.5l-1.9.4c0-.3-.2-.5-.5-.7-.2-.2-.5-.2-1-.2s-.9,0-1.1.2c-.2.1-.2.2-.2.4s0,.3.2.4c.2.1.8.3,1.9.6s1.8.5,2.2.9c.4.4.6.9.6,1.5s-.3,1.3-.9,1.8-1.4.8-2.6.8-1.8-.2-2.4-.6-1-1-1.2-1.7h0Z"/>
        <path class="st5" d="M1030.1,248.7l2-.3c0,.4.3.7.5.9.3.2.6.3,1.1.3s.9,0,1.2-.3c.2-.1.3-.3.3-.5s0-.3-.1-.4c0,0-.3-.2-.7-.3-1.6-.4-2.6-.7-3.1-1-.6-.4-.9-1-.9-1.7s.3-1.2.8-1.6c.5-.5,1.3-.7,2.4-.7s1.8.2,2.3.5.8.8,1,1.5l-1.9.4c0-.3-.2-.5-.5-.7-.2-.2-.5-.2-1-.2s-.9,0-1.1.2c-.2.1-.2.2-.2.4s0,.3.2.4c.2.1.8.3,1.9.6s1.8.5,2.2.9c.4.4.6.9.6,1.5s-.3,1.3-.9,1.8-1.4.8-2.6.8-1.8-.2-2.4-.6-1-1-1.2-1.7h0Z"/>
        <path class="st5" d="M1038.9,242.3v-1.9h2v1.9h-2ZM1038.9,250.9v-7.6h2v7.6h-2Z"/>
        <path class="st5" d="M1042.5,247c0-.7.2-1.3.5-1.9s.8-1.1,1.4-1.4c.6-.3,1.3-.5,2-.5,1.1,0,2.1.4,2.8,1.1s1.1,1.7,1.1,2.8-.4,2.1-1.1,2.8-1.7,1.1-2.8,1.1-1.3-.2-2-.5-1.1-.8-1.4-1.4c-.3-.6-.5-1.3-.5-2.2h0ZM1044.5,247.1c0,.8.2,1.3.5,1.7s.8.6,1.3.6,1-.2,1.3-.6.5-1,.5-1.7-.2-1.3-.5-1.7-.8-.6-1.3-.6-1,.2-1.3.6-.5,1-.5,1.7h0Z"/>
        <path class="st5" d="M1058.7,250.9h-2v-3.9c0-.8,0-1.3-.1-1.6s-.2-.4-.4-.6c-.2-.1-.4-.2-.7-.2s-.7,0-.9.3-.5.4-.6.8c0,.3-.2.9-.2,1.7v3.4h-2v-7.6h1.9v1.1c.7-.9,1.5-1.3,2.5-1.3s.8,0,1.2.2.6.4.8.6.3.5.4.8.1.8.1,1.3v4.7h0Z"/>
      </g>
    </g>
  </g>
  <image class="st3" width="112" height="165" transform="translate(997.4 178.7) scale(.3 .2)" xlink:href="Antigens-1.png"/>
  <rect class="st1" x="978.6" y="157.7" width="73.9" height="70.6" rx="8.6" ry="8.6"/>
  <g class="st3">
    <g class="st3">
      <g class="st3">
        <path class="st5" d="M996.7,363.2c.5.4,1.1.7,1.7.9l-.8,1.5c-.3,0-.6-.2-.9-.4,0,0-.5-.3-1.4-.9-.7.3-1.4.5-2.3.5-1.6,0-2.9-.5-3.8-1.4-.9-.9-1.4-2.3-1.4-4s.5-3,1.4-4c.9-1,2.2-1.4,3.7-1.4s2.8.5,3.7,1.4,1.4,2.3,1.4,4-.1,1.7-.4,2.4c-.2.5-.5,1-.9,1.5h0ZM995,362c.3-.3.5-.7.6-1.1.1-.5.2-1,.2-1.5,0-1.2-.3-2.1-.8-2.7-.5-.6-1.2-.9-2.1-.9s-1.5.3-2.1.9c-.5.6-.8,1.5-.8,2.7s.3,2.1.8,2.7c.5.6,1.2.9,2,.9s.6,0,.9-.1c-.4-.3-.9-.5-1.3-.6l.6-1.2c.7.2,1.3.6,2,1.1h0Z"/>
        <path class="st5" d="M1006.3,360.7l2,.6c-.3,1.1-.8,2-1.6,2.5-.7.5-1.7.8-2.8.8s-2.5-.5-3.4-1.4-1.3-2.2-1.3-3.9.5-3.1,1.3-4c.9-1,2.1-1.4,3.5-1.4s2.3.4,3.1,1.1c.5.5.8,1.1,1.1,1.9l-2.1.5c-.1-.5-.4-1-.8-1.3s-.9-.5-1.4-.5-1.4.3-1.9.8-.7,1.5-.7,2.7.2,2.3.7,2.8c.5.6,1.1.8,1.8.8s1-.2,1.4-.5c.4-.4.7-.9.9-1.7h0Z"/>
        <path class="st5" d="M1017.6,357v1.6h-1.4v3c0,.6,0,1,0,1.1,0,.1,0,.2.2.2,0,0,.2.1.3.1.2,0,.5,0,.8-.2l.2,1.5c-.5.2-1,.3-1.6.3s-.7,0-1-.2-.5-.3-.6-.5c-.1-.2-.2-.5-.3-.8,0-.2,0-.7,0-1.4v-3.3h-.9v-1.6h.9v-1.5l2-1.2v2.7h1.4,0Z"/>
        <path class="st5" d="M1023.4,362.2l2,.3c-.3.7-.7,1.3-1.2,1.7-.5.4-1.2.6-2.1.6-1.3,0-2.3-.4-2.9-1.3-.5-.7-.8-1.6-.8-2.6s.3-2.2,1-2.9c.7-.7,1.5-1.1,2.5-1.1s2,.4,2.7,1.1c.7.7,1,1.9.9,3.4h-5c0,.6.2,1,.5,1.4.3.3.7.5,1.2.5s.6,0,.8-.3c.2-.2.4-.5.5-.8h0ZM1023.5,360.1c0-.6-.2-1-.5-1.3-.3-.3-.6-.5-1-.5s-.8.2-1.1.5c-.3.3-.4.8-.4,1.3h3Z"/>
        <path class="st5" d="M1026.4,362.4l2-.3c0,.4.3.7.5.9.3.2.6.3,1.1.3s.9,0,1.2-.3c.2-.1.3-.3.3-.5s0-.3-.1-.4c0,0-.3-.2-.7-.3-1.6-.4-2.6-.7-3.1-1-.6-.4-.9-1-.9-1.7s.3-1.2.8-1.6c.5-.5,1.3-.7,2.4-.7s1.8.2,2.3.5.8.8,1,1.5l-1.9.4c0-.3-.2-.5-.5-.7-.2-.2-.5-.2-1-.2s-.9,0-1.1.2c-.2.1-.2.2-.2.4s0,.3.2.4c.2.1.8.3,1.9.6,1.1.2,1.8.5,2.2.9.4.4.6.9.6,1.5s-.3,1.3-.9,1.8-1.4.8-2.6.8-1.8-.2-2.4-.6-1-1-1.2-1.7h0Z"/>
        <path class="st5" d="M1038.7,357v1.6h-1.4v3c0,.6,0,1,0,1.1,0,.1,0,.2.2.2,0,0,.2.1.3.1s.5,0,.8-.2l.2,1.5c-.5.2-1,.3-1.6.3s-.7,0-1-.2c-.3-.1-.5-.3-.6-.5s-.2-.5-.3-.8c0-.2,0-.7,0-1.4v-3.3h-.9v-1.6h.9v-1.5l2-1.2v2.7h1.4,0Z"/>
        <path class="st5" d="M1053.4,363.3l-1.2,1.5c-.6-.3-1.2-.7-1.7-1.2-.4.4-.9.7-1.3.8s-1,.3-1.7.3c-1.3,0-2.3-.4-2.9-1.1-.5-.6-.8-1.2-.8-2s.2-1.3.6-1.8,1-1,1.8-1.4c-.4-.4-.6-.8-.8-1.2-.2-.4-.3-.7-.3-1.1,0-.6.2-1.2.8-1.6.5-.4,1.2-.7,2.2-.7s1.6.2,2.1.7c.5.5.8,1,.8,1.7s-.1.8-.4,1.2-.8.8-1.5,1.3l1.4,1.9c.2-.3.3-.7.4-1.2l1.8.4c-.2.6-.3,1.1-.5,1.4-.1.3-.3.5-.4.7.2.2.5.4.9.7s.6.4.8.5h0ZM1047.1,359.8c-.5.2-.8.5-1,.8s-.3.7-.3,1,.1.8.4,1.1c.3.3.7.4,1.1.4s.6,0,.9-.2.6-.3.9-.6l-2-2.5h0ZM1047.9,357.6l.5-.4c.4-.3.6-.6.6-.9s0-.5-.3-.7c-.2-.2-.4-.3-.8-.3s-.6,0-.8.2-.3.3-.3.5.2.5.5.9l.5.6h0Z"/>
        <path class="st5" d="M989.7,382l-3.7-10.4h2.3l2.6,7.7,2.5-7.7h2.2l-3.7,10.4h-2.2,0Z"/>
        <path class="st5" d="M997.4,376.8l-1.8-.3c.2-.7.5-1.3,1-1.6s1.2-.5,2.2-.5,1.6.1,2,.3c.4.2.7.5.9.8s.3.9.3,1.8v2.3c0,.7,0,1.1,0,1.5,0,.3.2.6.4,1h-2c0-.1-.1-.3-.2-.6,0-.1,0-.2,0-.2-.3.3-.7.6-1.1.8s-.8.2-1.2.2c-.8,0-1.4-.2-1.8-.6s-.7-1-.7-1.6,0-.8.3-1.1c.2-.3.5-.6.9-.8s.9-.3,1.6-.5c.9-.2,1.6-.3,1.9-.5v-.2c0-.4,0-.7-.3-.8s-.5-.2-1.1-.2-.6,0-.8.2c-.2.1-.4.4-.5.7h0ZM1000.1,378.4c-.3,0-.7.2-1.2.3s-.9.2-1.1.4c-.3.2-.4.4-.4.7s0,.5.3.7.5.3.8.3.7-.1,1-.4c.2-.2.4-.4.5-.7,0-.2,0-.5,0-1v-.4h0Z"/>
        <path class="st5" d="M1004.1,382v-10.4h2v10.4h-2Z"/>
        <path class="st5" d="M1008.1,373.5v-1.9h2v1.9h-2ZM1008.1,382v-7.6h2v7.6h-2Z"/>
        <path class="st5" d="M1019.1,382h-1.9v-1.1c-.3.4-.7.8-1.1,1-.4.2-.8.3-1.3.3-.9,0-1.6-.4-2.2-1-.6-.7-.9-1.7-.9-2.9s.3-2.2.9-2.9,1.4-1,2.3-1,1.6.4,2.2,1v-3.8h2v10.4h0ZM1013.7,378.1c0,.8.1,1.4.3,1.8.3.5.8.8,1.3.8s.8-.2,1.2-.6c.3-.4.5-1,.5-1.8s-.2-1.5-.5-1.9c-.3-.4-.7-.6-1.2-.6s-.9.2-1.2.6-.5.9-.5,1.7h0Z"/>
        <path class="st5" d="M1022.5,376.8l-1.8-.3c.2-.7.6-1.3,1-1.6.5-.4,1.2-.5,2.2-.5s1.6.1,2,.3.7.5.9.8.3.9.3,1.8v2.3c0,.7,0,1.1,0,1.5,0,.3.2.6.4,1h-2c0-.1-.1-.3-.2-.6,0-.1,0-.2,0-.2-.3.3-.7.6-1.1.8-.4.2-.8.2-1.2.2-.8,0-1.4-.2-1.8-.6s-.7-1-.7-1.6,0-.8.3-1.1c.2-.3.5-.6.9-.8s.9-.3,1.6-.5c.9-.2,1.6-.3,1.9-.5v-.2c0-.4,0-.7-.3-.8s-.5-.2-1.1-.2-.6,0-.8.2c-.2.1-.4.4-.5.7h0ZM1025.2,378.4c-.3,0-.7.2-1.2.3-.5.1-.9.2-1.1.4-.3.2-.4.4-.4.7s0,.5.3.7c.2.2.5.3.8.3s.7-.1,1-.4c.2-.2.4-.4.5-.7,0-.2,0-.5,0-1v-.4h0Z"/>
        <path class="st5" d="M1032.6,374.5v1.6h-1.4v3c0,.6,0,1,0,1.1,0,.1,0,.2.2.2,0,0,.2.1.3.1s.5,0,.8-.2l.2,1.5c-.5.2-1,.3-1.6.3s-.7,0-1-.2c-.3-.1-.5-.3-.6-.5s-.2-.5-.3-.8c0-.2,0-.7,0-1.4v-3.3h-.9v-1.6h.9v-1.5l2-1.2v2.7h1.4,0Z"/>
        <path class="st5" d="M1034,373.5v-1.9h2v1.9h-2ZM1034,382v-7.6h2v7.6h-2Z"/>
        <path class="st5" d="M1037.6,378.2c0-.7.2-1.3.5-1.9s.8-1.1,1.4-1.4c.6-.3,1.3-.5,2-.5,1.1,0,2.1.4,2.8,1.1s1.1,1.7,1.1,2.8-.4,2.1-1.1,2.8-1.7,1.1-2.8,1.1-1.3-.2-2-.5-1.1-.8-1.4-1.4c-.3-.6-.5-1.3-.5-2.2h0ZM1039.6,378.3c0,.8.2,1.3.5,1.7s.8.6,1.3.6,1-.2,1.3-.6.5-1,.5-1.7-.2-1.3-.5-1.7-.8-.6-1.3-.6-1,.2-1.3.6-.5,1-.5,1.7h0Z"/>
        <path class="st5" d="M1053.8,382h-2v-3.9c0-.8,0-1.3-.1-1.6s-.2-.4-.4-.6c-.2-.1-.4-.2-.7-.2s-.7,0-.9.3-.5.4-.6.8c0,.3-.2.9-.2,1.7v3.4h-2v-7.6h1.9v1.1c.7-.9,1.5-1.3,2.5-1.3s.8,0,1.2.2.6.4.8.6.3.5.4.8.1.8.1,1.3v4.7h0Z"/>
      </g>
    </g>
  </g>
  <rect class="st1" x="978.6" y="273.9" width="73.9" height="70.6" rx="8.5" ry="8.5"/>
  <image class="st3" width="179" height="154" transform="translate(870.2 165.5) scale(.3)" xlink:href="Antigens-2.png"/>
  <image class="st3" width="142" height="180" transform="translate(880.8 277.6) scale(.3)" xlink:href="Antigens-3.png"/>
  <image class="st3" width="180" height="164" transform="translate(984.9 283.4) scale(.3)" xlink:href="Antigens-4.png"/>
  <g class="st3">
    <g class="st3">
      <g class="st3">
        <path class="st5" d="M1157.8,323.5l2.1-.2c.1.7.4,1.2.8,1.5.4.3.9.5,1.5.5s1.2-.1,1.5-.4c.3-.3.5-.6.5-1s0-.5-.2-.6-.4-.3-.8-.5c-.2,0-.8-.2-1.7-.5-1.1-.3-1.9-.6-2.4-1-.6-.6-1-1.3-1-2.1s.2-1,.4-1.5c.3-.5.7-.8,1.3-1.1.6-.2,1.2-.4,2.1-.4,1.3,0,2.3.3,3,.9.7.6,1,1.3,1,2.3h-2.1c0-.5-.3-.8-.6-1.1-.3-.2-.7-.4-1.3-.4s-1.1.1-1.4.4c-.2.2-.3.4-.3.6s0,.5.3.6c.3.2.9.5,1.9.7,1,.2,1.8.5,2.3.8s.9.6,1.2,1.1c.3.5.4,1,.4,1.7s-.2,1.2-.5,1.7-.8.9-1.4,1.2-1.4.4-2.3.4c-1.3,0-2.3-.3-3-.9-.7-.6-1.1-1.5-1.3-2.7h0Z"/>
        <path class="st5" d="M1173,326.9v-1.1c-.3.4-.6.7-1.1,1s-.9.4-1.4.4-1-.1-1.4-.3c-.4-.2-.7-.5-.9-.9-.2-.4-.3-1-.3-1.7v-4.8h2v3.5c0,1.1,0,1.7.1,2,0,.2.2.4.4.6s.4.2.7.2.7,0,.9-.3.5-.4.6-.7.2-1,.2-2v-3.2h2v7.6h-1.9Z"/>
        <path class="st5" d="M1176.8,319.4h1.9v1.1c.2-.4.6-.7,1-.9.4-.2.9-.4,1.4-.4.9,0,1.6.3,2.2,1s.9,1.6.9,2.9-.3,2.2-.9,2.9c-.6.7-1.4,1-2.2,1s-.8,0-1.1-.2-.7-.5-1.1-.9v3.8h-2v-10.4h0ZM1178.8,323c0,.9.2,1.5.5,1.9.3.4.8.6,1.2.6s.8-.2,1.2-.6.5-1,.5-1.8-.2-1.4-.5-1.8-.7-.6-1.2-.6-.9.2-1.2.6-.5.9-.5,1.7h0Z"/>
        <path class="st5" d="M1185.7,319.4h1.9v1.1c.2-.4.6-.7,1-.9.4-.2.9-.4,1.4-.4.9,0,1.6.3,2.2,1s.9,1.6.9,2.9-.3,2.2-.9,2.9c-.6.7-1.4,1-2.2,1s-.8,0-1.1-.2-.7-.5-1.1-.9v3.8h-2v-10.4h0ZM1187.7,323c0,.9.2,1.5.5,1.9.3.4.8.6,1.2.6s.8-.2,1.2-.6.5-1,.5-1.8-.2-1.4-.5-1.8-.7-.6-1.2-.6-.9.2-1.2.6c-.3.4-.5.9-.5,1.7h0Z"/>
        <path class="st5" d="M1194.7,326.9v-10.4h2v10.4h-2Z"/>
        <path class="st5" d="M1197.8,319.4h2.1l1.8,5.4,1.8-5.4h2.1l-2.7,7.3-.5,1.3c-.2.4-.3.8-.5,1s-.3.4-.6.6c-.2.1-.5.3-.8.3s-.6.1-1,.1-.8,0-1.1-.1l-.2-1.6c.3,0,.6,0,.8,0,.5,0,.8-.1,1-.4s.4-.6.5-1l-2.9-7.6h0Z"/>
      </g>
    </g>
  </g>
  <rect class="st1" x="1132.3" y="212.7" width="98.4" height="94" rx="8.6" ry="8.6"/>
  <image class="st3" width="210" height="152" transform="translate(1141.1 226.5) scale(.4)" xlink:href="Antigens-5.png"/>
  <image class="st3" width="160" height="164" transform="translate(577.2 302.7) scale(.3)" xlink:href="Antigens-6.png"/>
  <image class="st3" width="316" height="177" transform="translate(17 177.6) scale(.6)" xlink:href="Antigens-7.png"/>
  <image class="st3" width="247" height="216" transform="translate(489.8 124.7) scale(.5)" xlink:href="Antigens-8.png"/>
  <g class="st3">
    <g class="st3">
      <path class="st5" d="M25.7,303.3v-12.9h5.5c1.4,0,2.4.1,3,.4s1.1.6,1.5,1.2.6,1.3.6,2-.3,1.8-.9,2.4-1.4,1-2.6,1.2c.6.3,1,.7,1.4,1.1s.9,1.1,1.5,2.1l1.6,2.5h-3.1l-1.9-2.8c-.7-1-1.1-1.6-1.4-1.9s-.5-.4-.8-.5c-.3-.1-.7-.1-1.3-.1h-.5v5.4h-2.6,0ZM28.3,295.9h1.9c1.2,0,2,0,2.3-.2s.5-.3.7-.5.3-.6.3-1-.1-.8-.4-1-.6-.4-1-.5c-.2,0-.8,0-1.9,0h-2v3.3h0Z"/>
      <path class="st5" d="M44,300.3l2.5.4c-.3.9-.8,1.6-1.5,2.1s-1.5.7-2.6.7c-1.6,0-2.8-.5-3.6-1.6-.6-.9-.9-1.9-.9-3.2s.4-2.8,1.2-3.6,1.8-1.3,3.1-1.3,2.5.5,3.3,1.4c.8.9,1.2,2.3,1.1,4.2h-6.2c0,.7.2,1.3.6,1.7.4.4.9.6,1.4.6s.7-.1,1-.3.5-.5.6-1h0ZM44.2,297.8c0-.7-.2-1.3-.5-1.6-.4-.4-.8-.6-1.3-.6s-1,.2-1.3.6-.5.9-.5,1.6h3.7Z"/>
      <path class="st5" d="M56.8,296.7l-2.4.4c0-.5-.3-.9-.6-1.1s-.7-.4-1.1-.4-1.1.2-1.5.6-.5,1.1-.5,2.1.2,1.9.6,2.4.9.7,1.5.7.8-.1,1.2-.4.5-.7.6-1.4l2.4.4c-.2,1.1-.7,2-1.5,2.5s-1.7.9-2.9.9-2.5-.4-3.3-1.3-1.2-2-1.2-3.6.4-2.7,1.2-3.6c.8-.9,1.9-1.3,3.3-1.3s2,.2,2.7.7,1.2,1.2,1.5,2.2h0Z"/>
      <path class="st5" d="M58.1,298.5c0-.8.2-1.6.6-2.4s1-1.4,1.7-1.8,1.6-.6,2.5-.6c1.4,0,2.6.5,3.5,1.4s1.3,2.1,1.3,3.5-.5,2.6-1.4,3.5-2.1,1.4-3.4,1.4-1.7-.2-2.5-.6-1.4-1-1.8-1.7-.6-1.7-.6-2.7h0ZM60.6,298.6c0,.9.2,1.6.7,2.1s1,.7,1.6.7,1.2-.2,1.6-.7.7-1.2.7-2.1-.2-1.6-.7-2.1-1-.7-1.6-.7-1.2.2-1.6.7-.7,1.2-.7,2.1h0Z"/>
      <path class="st5" d="M69.5,294h2.3v1.3c.8-1,1.8-1.5,2.9-1.5s1.1.1,1.6.4.8.6,1.1,1.1c.4-.5.8-.9,1.3-1.1s1-.4,1.5-.4,1.3.1,1.7.4.8.7,1.1,1.2c.2.4.2,1,.2,1.9v6h-2.5v-5.3c0-.9,0-1.5-.2-1.8-.2-.4-.6-.5-1-.5s-.7.1-1,.3-.5.5-.7.9c-.1.4-.2,1-.2,1.9v4.5h-2.5v-5.1c0-.9,0-1.5-.1-1.8s-.2-.5-.4-.6-.4-.2-.8-.2-.7.1-1,.3-.5.5-.7.9-.2,1-.2,1.9v4.5h-2.5v-9.3h0Z"/>
      <path class="st5" d="M85.5,303.3v-12.9h2.5v4.6c.8-.9,1.7-1.3,2.7-1.3s2.1.4,2.8,1.2,1.1,2,1.1,3.5-.4,2.8-1.1,3.7-1.7,1.3-2.8,1.3-1.1-.1-1.6-.4c-.5-.3-1-.7-1.3-1.2v1.4h-2.3ZM88,298.4c0,1,.2,1.7.5,2.1.4.7,1,1,1.7,1s1-.2,1.4-.7c.4-.5.6-1.2.6-2.2s-.2-1.8-.6-2.3-.9-.7-1.5-.7-1.1.2-1.5.7-.6,1.2-.6,2.1h0Z"/>
      <path class="st5" d="M96.6,292.7v-2.3h2.5v2.3h-2.5ZM96.6,303.3v-9.3h2.5v9.3h-2.5Z"/>
      <path class="st5" d="M110.1,303.3h-2.5v-4.8c0-1,0-1.7-.2-2s-.3-.5-.5-.7-.5-.2-.9-.2-.8.1-1.2.4-.6.5-.7.9-.2,1.1-.2,2.1v4.2h-2.5v-9.3h2.3v1.4c.8-1,1.8-1.6,3.1-1.6s1,.1,1.5.3.8.5,1,.8.4.6.5,1,.1.9.1,1.7v5.8h0Z"/>
      <path class="st5" d="M114.5,296.8l-2.2-.4c.2-.9.7-1.6,1.3-2s1.5-.6,2.7-.6,1.9.1,2.5.4.9.6,1.1,1,.3,1.1.3,2.2v2.9c0,.8,0,1.4,0,1.8s.2.8.4,1.2h-2.4c0-.2-.1-.4-.2-.7,0-.1,0-.2,0-.3-.4.4-.9.7-1.3.9s-1,.3-1.5.3c-1,0-1.7-.3-2.3-.8s-.8-1.2-.8-2,.1-1,.4-1.4.6-.7,1.1-1c.4-.2,1.1-.4,2-.6,1.2-.2,1.9-.4,2.4-.6v-.2c0-.5-.1-.8-.3-1-.2-.2-.7-.3-1.3-.3s-.8,0-1,.3-.4.5-.6.9h0ZM117.8,298.8c-.3.1-.8.2-1.5.4s-1.1.3-1.3.4c-.3.2-.5.5-.5.9s.1.6.4.9.6.4,1,.4.9-.1,1.3-.4c.3-.2.5-.5.6-.8,0-.2,0-.6,0-1.2v-.5h0Z"/>
      <path class="st5" d="M131.1,303.3h-2.5v-4.8c0-1,0-1.7-.2-2s-.3-.5-.5-.7-.5-.2-.9-.2-.8.1-1.2.4-.6.5-.7.9-.2,1.1-.2,2.1v4.2h-2.5v-9.3h2.3v1.4c.8-1,1.8-1.6,3.1-1.6s1,.1,1.5.3.8.5,1,.8.4.6.5,1,.1.9.1,1.7v5.8h0Z"/>
      <path class="st5" d="M137.9,294v2h-1.7v3.8c0,.8,0,1.2,0,1.3s.1.2.2.3.2.1.4.1.6,0,1-.2l.2,1.9c-.6.2-1.2.4-1.9.4s-.8,0-1.2-.2c-.4-.1-.6-.3-.8-.6s-.3-.6-.3-1c0-.3,0-.9,0-1.7v-4.1h-1.1v-2h1.1v-1.9l2.5-1.4v3.3h1.7,0Z"/>
      <path class="st5" d="M155.6,303.3h-2.8l-1.1-2.9h-5.1l-1.1,2.9h-2.8l5-12.9h2.8l5.2,12.9h0ZM150.8,298.2l-1.8-4.8-1.7,4.8h3.5Z"/>
      <path class="st5" d="M165.5,303.3h-2.5v-4.8c0-1,0-1.7-.2-2s-.3-.5-.5-.7-.5-.2-.9-.2-.8.1-1.1.4-.6.5-.7.9-.2,1.1-.2,2.1v4.2h-2.5v-9.3h2.3v1.4c.8-1,1.8-1.6,3.1-1.6s1,.1,1.5.3.8.5,1,.8.4.6.5,1,.1.9.1,1.7v5.8h0Z"/>
      <path class="st5" d="M172.3,294v2h-1.7v3.8c0,.8,0,1.2,0,1.3s.1.2.2.3.2.1.4.1.6,0,1-.2l.2,1.9c-.6.2-1.2.4-1.9.4s-.9,0-1.2-.2c-.4-.1-.6-.3-.8-.6s-.3-.6-.4-1c0-.3,0-.9,0-1.7v-4.1h-1.1v-2h1.1v-1.9l2.5-1.4v3.3h1.7,0Z"/>
      <path class="st5" d="M174,292.7v-2.3h2.5v2.3h-2.5ZM174,303.3v-9.3h2.5v9.3h-2.5Z"/>
      <path class="st5" d="M178.7,303.9l2.8.3c0,.3.2.5.3.7.2.2.6.3,1.1.3s1.1-.1,1.4-.3c.2-.1.4-.3.5-.6,0-.2.1-.6.1-1.1v-1.4c-.7,1-1.7,1.5-2.8,1.5s-2.2-.5-3-1.6c-.6-.8-.9-1.9-.9-3.1s.4-2.8,1.1-3.6,1.7-1.2,2.8-1.2,2.1.5,2.9,1.5v-1.3h2.3v8.4c0,1.1,0,1.9-.3,2.5s-.4,1-.8,1.3-.8.5-1.3.7-1.2.3-2.1.3c-1.6,0-2.7-.3-3.4-.8s-1-1.2-1-2.1v-.3h0ZM180.9,298.4c0,1,.2,1.7.6,2.2.4.5.9.7,1.4.7s1.1-.2,1.5-.7.6-1.2.6-2.1-.2-1.7-.6-2.1-.9-.7-1.5-.7-1.1.2-1.5.7-.6,1.2-.6,2.1h0Z"/>
      <path class="st5" d="M195.4,300.3l2.5.4c-.3.9-.8,1.6-1.5,2.1s-1.5.7-2.6.7c-1.6,0-2.8-.5-3.6-1.6-.6-.9-.9-1.9-.9-3.2s.4-2.8,1.2-3.6,1.8-1.3,3.1-1.3,2.5.5,3.3,1.4c.8.9,1.2,2.3,1.1,4.2h-6.2c0,.7.2,1.3.6,1.7s.9.6,1.4.6.7-.1,1-.3.5-.5.6-1h0ZM195.5,297.8c0-.7-.2-1.3-.6-1.6s-.8-.6-1.3-.6-1,.2-1.3.6-.5.9-.5,1.6h3.7Z"/>
      <path class="st5" d="M208.5,303.3h-2.5v-4.8c0-1,0-1.7-.2-2s-.3-.5-.5-.7-.5-.2-.9-.2-.8.1-1.1.4-.6.5-.7.9-.2,1.1-.2,2.1v4.2h-2.5v-9.3h2.3v1.4c.8-1,1.8-1.6,3.1-1.6s1,.1,1.5.3.8.5,1,.8.4.6.5,1,.1.9.1,1.7v5.8h0Z"/>
      <path class="st5" d="M210.1,300.6l2.5-.4c.1.5.3.9.6,1.1.3.2.8.4,1.4.4s1.1-.1,1.4-.4c.2-.2.3-.4.3-.7s0-.3-.2-.5c-.1-.1-.4-.2-.8-.3-2-.4-3.2-.8-3.8-1.2-.7-.5-1.1-1.2-1.1-2.1s.3-1.5,1-2,1.6-.8,3-.8,2.2.2,2.9.6,1.1,1,1.3,1.9l-2.3.4c-.1-.4-.3-.6-.6-.8s-.7-.3-1.2-.3-1.1,0-1.4.3c-.2.1-.3.3-.3.5s0,.3.2.5c.2.2,1,.4,2.3.7s2.2.7,2.8,1.1c.5.4.8,1,.8,1.8s-.4,1.6-1.1,2.2-1.8.9-3.2.9-2.3-.3-3-.8-1.2-1.2-1.4-2.1h0Z"/>
    </g>
  </g>
  <g class="st3">
    <g class="st3">
      <path class="st5" d="M483.7,249.9v-12.9h2.5l5.3,8.6v-8.6h2.4v12.9h-2.6l-5.2-8.4v8.4h-2.4Z"/>
      <path class="st5" d="M498.5,243.4l-2.2-.4c.2-.9.7-1.6,1.3-2s1.5-.6,2.7-.6,1.9.1,2.5.4c.5.3.9.6,1.1,1s.3,1.1.3,2.2v2.9c0,.8,0,1.4,0,1.8s.2.8.4,1.2h-2.4c0-.2-.1-.4-.2-.7,0-.1,0-.2,0-.3-.4.4-.9.7-1.4.9s-1,.3-1.5.3c-1,0-1.7-.3-2.3-.8s-.8-1.2-.8-2,.1-1,.4-1.4.6-.7,1.1-1c.5-.2,1.1-.4,2-.6,1.1-.2,2-.4,2.4-.6v-.2c0-.5-.1-.8-.4-1s-.7-.3-1.3-.3-.8,0-1,.3-.5.5-.6.9h0ZM501.8,245.4c-.3.1-.8.2-1.5.4s-1.1.3-1.3.4c-.3.2-.5.5-.5.9s.1.6.4.9.6.4,1,.4.9-.1,1.3-.4c.3-.2.5-.5.6-.8,0-.2.1-.6.1-1.2v-.5h0Z"/>
      <path class="st5" d="M511,240.6v2h-1.7v3.8c0,.8,0,1.2,0,1.3s.1.2.2.3.2.1.4.1.6,0,1-.2l.2,1.9c-.6.2-1.2.4-2,.4s-.9,0-1.2-.2c-.4-.1-.6-.3-.8-.6s-.3-.6-.4-1c0-.3,0-.9,0-1.7v-4.1h-1.1v-2h1.1v-1.9l2.5-1.4v3.3h1.7Z"/>
      <path class="st5" d="M512.7,239.3v-2.3h2.5v2.3h-2.5ZM512.7,249.9v-9.3h2.5v9.3h-2.5Z"/>
      <path class="st5" d="M520.3,249.9l-3.8-9.3h2.6l1.8,4.8.5,1.6c.1-.4.2-.7.2-.8,0-.3.2-.5.3-.8l1.8-4.8h2.5l-3.7,9.3h-2.2Z"/>
      <path class="st5" d="M533.1,246.9l2.5.4c-.3.9-.8,1.6-1.5,2.1s-1.5.7-2.6.7c-1.6,0-2.8-.5-3.6-1.6-.6-.9-.9-1.9-.9-3.2s.4-2.8,1.2-3.6,1.8-1.3,3.1-1.3,2.5.5,3.3,1.4c.8.9,1.2,2.3,1.2,4.2h-6.2c0,.7.2,1.3.6,1.7s.9.6,1.4.6.7-.1,1-.3.5-.5.6-1h0ZM533.3,244.4c0-.7-.2-1.3-.5-1.6s-.8-.6-1.3-.6-1,.2-1.3.6-.5.9-.5,1.6h3.7Z"/>
      <path class="st5" d="M553.7,249.9h-2.8l-1.1-2.9h-5.2l-1.1,2.9h-2.8l5-12.9h2.8l5.2,12.9h0ZM548.9,244.8l-1.8-4.8-1.7,4.8h3.5Z"/>
      <path class="st5" d="M563.5,249.9h-2.5v-4.8c0-1,0-1.7-.2-2s-.3-.5-.5-.7-.5-.2-.9-.2-.8.1-1.2.4-.6.5-.7.9-.2,1.1-.2,2.1v4.2h-2.5v-9.3h2.3v1.4c.8-1,1.8-1.6,3.1-1.6s1,.1,1.5.3.8.5,1,.8.4.6.5,1,.1.9.1,1.7v5.8h0Z"/>
      <path class="st5" d="M570.3,240.6v2h-1.7v3.8c0,.8,0,1.2,0,1.3s.1.2.2.3.2.1.4.1.6,0,1-.2l.2,1.9c-.6.2-1.2.4-2,.4s-.8,0-1.2-.2c-.4-.1-.6-.3-.8-.6s-.3-.6-.3-1c0-.3,0-.9,0-1.7v-4.1h-1.1v-2h1.1v-1.9l2.5-1.4v3.3h1.7Z"/>
      <path class="st5" d="M572,239.3v-2.3h2.5v2.3h-2.5ZM572,249.9v-9.3h2.5v9.3h-2.5Z"/>
      <path class="st5" d="M576.8,250.5l2.8.3c0,.3.2.5.3.7.2.2.6.3,1.1.3s1.1-.1,1.5-.3c.2-.1.4-.3.5-.6,0-.2.1-.6.1-1.1v-1.4c-.7,1-1.7,1.5-2.8,1.5s-2.2-.5-3-1.6c-.6-.8-.9-1.9-.9-3.1s.4-2.8,1.1-3.6,1.7-1.2,2.8-1.2,2.1.5,2.9,1.5v-1.3h2.3v8.4c0,1.1,0,1.9-.3,2.5s-.4,1-.8,1.3-.8.5-1.3.7-1.2.3-2.1.3c-1.6,0-2.7-.3-3.4-.8s-1-1.2-1-2.1v-.3h0ZM579,245c0,1,.2,1.7.6,2.2.4.5.9.7,1.4.7s1.1-.2,1.5-.7c.4-.5.6-1.2.6-2.1s-.2-1.7-.6-2.1-.9-.7-1.5-.7-1.1.2-1.5.7-.6,1.2-.6,2.1h0Z"/>
      <path class="st5" d="M593.4,246.9l2.5.4c-.3.9-.8,1.6-1.5,2.1s-1.5.7-2.6.7c-1.6,0-2.8-.5-3.6-1.6-.6-.9-.9-1.9-.9-3.2s.4-2.8,1.2-3.6,1.8-1.3,3.1-1.3,2.5.5,3.3,1.4c.8.9,1.2,2.3,1.2,4.2h-6.2c0,.7.2,1.3.6,1.7s.9.6,1.4.6.7-.1,1-.3.5-.5.6-1h0ZM593.6,244.4c0-.7-.2-1.3-.5-1.6s-.8-.6-1.3-.6-1,.2-1.3.6-.5.9-.5,1.6h3.7Z"/>
      <path class="st5" d="M606.5,249.9h-2.5v-4.8c0-1,0-1.7-.2-2s-.3-.5-.5-.7-.5-.2-.9-.2-.8.1-1.2.4-.6.5-.7.9-.2,1.1-.2,2.1v4.2h-2.5v-9.3h2.3v1.4c.8-1,1.8-1.6,3.1-1.6s1,.1,1.5.3.8.5,1,.8.4.6.5,1,.1.9.1,1.7v5.8h0Z"/>
      <path class="st5" d="M608.2,247.2l2.5-.4c.1.5.3.9.6,1.1.3.2.8.4,1.3.4s1.1-.1,1.4-.4c.2-.2.3-.4.3-.7s0-.3-.2-.5c-.1-.1-.4-.2-.8-.3-2-.4-3.2-.8-3.8-1.2-.7-.5-1.1-1.2-1.1-2.1s.3-1.5,1-2,1.6-.8,3-.8,2.2.2,2.8.6,1,1,1.3,1.9l-2.3.4c0-.4-.3-.6-.6-.8s-.7-.3-1.2-.3-1.1,0-1.4.3c-.2.1-.3.3-.3.5s0,.3.2.5c.2.2,1,.4,2.3.7s2.2.7,2.8,1.1c.5.4.8,1,.8,1.8s-.4,1.6-1.1,2.2-1.8.9-3.2.9-2.3-.3-3-.8-1.2-1.2-1.5-2.1h0Z"/>
    </g>
  </g>
  <image class="st3" width="167" height="152" transform="translate(335.1 305.4) scale(.4)" xlink:href="Antigens-9.png"/>
  <image class="st3" width="172" height="170" transform="translate(437.2 300.5) scale(.4)" xlink:href="Antigens-10.png"/>
  <image class="st3" width="161" height="145" transform="translate(703 300.5) scale(.4)" xlink:href="Antigens-11.png"/>
  <g class="st3">
    <g class="st3">
      <path class="st5" d="M345.8,383.7l-4.6-12.9h2.8l3.3,9.5,3.2-9.5h2.8l-4.6,12.9h-2.8Z"/>
      <path class="st5" d="M354.2,373.1v-2.3h2.5v2.3h-2.5ZM354.2,383.7v-9.3h2.5v9.3h-2.5Z"/>
      <path class="st5" d="M361.6,383.7h-2.5v-9.3h2.3v1.3c.4-.6.8-1,1.1-1.2s.7-.3,1.1-.3,1.1.2,1.6.5l-.8,2.1c-.4-.3-.8-.4-1.2-.4s-.6.1-.9.3-.4.5-.6,1-.2,1.5-.2,3.1v2.9h0Z"/>
      <path class="st5" d="M368.1,377.2l-2.2-.4c.2-.9.7-1.6,1.3-2s1.5-.6,2.7-.6,1.9.1,2.5.4c.5.3.9.6,1.1,1s.3,1.1.3,2.2v2.9c0,.8,0,1.4,0,1.8s.2.8.4,1.2h-2.4c0-.2-.1-.4-.2-.7,0-.1,0-.2,0-.3-.4.4-.9.7-1.4.9s-1,.3-1.5.3c-1,0-1.7-.3-2.3-.8s-.8-1.2-.8-2,.1-1,.4-1.4.6-.7,1.1-1c.5-.2,1.1-.4,2-.6,1.1-.2,2-.4,2.4-.6v-.2c0-.5-.1-.8-.4-1s-.7-.3-1.3-.3-.8,0-1,.3-.5.5-.6.9h0ZM371.4,379.2c-.3.1-.8.2-1.5.4s-1.1.3-1.3.4c-.3.2-.5.5-.5.9s.1.6.4.9.6.4,1,.4.9-.1,1.3-.4c.3-.2.5-.5.6-.8,0-.2.1-.6.1-1.2v-.5h0Z"/>
      <path class="st5" d="M376.2,383.7v-12.9h2.5v12.9h-2.5Z"/>
    </g>
  </g>
  <g class="st3">
    <g class="st3">
      <path class="st5" d="M564.2,372.9v-12.9h4.2c1.6,0,2.6,0,3.1.2.7.2,1.4.6,1.8,1.3s.8,1.5.8,2.5-.1,1.5-.4,2-.7,1-1.1,1.3-.9.5-1.3.6c-.6.1-1.5.2-2.7.2h-1.7v4.9h-2.6,0ZM566.8,362.2v3.7h1.4c1,0,1.7,0,2.1-.2s.6-.4.8-.6.3-.6.3-1-.1-.9-.4-1.2-.6-.5-1-.6c-.3,0-.9,0-1.9,0h-1.3,0Z"/>
      <path class="st5" d="M578.5,372.9h-2.5v-9.3h2.3v1.3c.4-.6.8-1,1.1-1.2s.7-.3,1.1-.3,1.1.2,1.6.5l-.8,2.1c-.4-.3-.8-.4-1.2-.4s-.6.1-.9.3-.4.5-.6,1-.2,1.5-.2,3.1v2.9h0Z"/>
      <path class="st5" d="M582.6,368.1c0-.8.2-1.6.6-2.4s1-1.4,1.7-1.8,1.6-.6,2.5-.6c1.4,0,2.6.5,3.5,1.4.9.9,1.3,2.1,1.3,3.5s-.5,2.6-1.4,3.5-2.1,1.4-3.4,1.4-1.7-.2-2.5-.6-1.4-1-1.8-1.7-.6-1.7-.6-2.7h0ZM585.1,368.2c0,.9.2,1.6.7,2.1s1,.7,1.6.7,1.2-.2,1.6-.7.7-1.2.7-2.1-.2-1.6-.7-2.1-1-.7-1.6-.7-1.2.2-1.6.7-.7,1.2-.7,2.1h0Z"/>
      <path class="st5" d="M598.4,363.6v2h-1.7v3.8c0,.8,0,1.2,0,1.3s.1.2.2.3.2.1.4.1.6,0,1-.2l.2,1.9c-.6.2-1.2.4-2,.4s-.8,0-1.2-.2c-.4-.1-.6-.3-.8-.6s-.3-.6-.3-1c0-.3,0-.9,0-1.7v-4.1h-1.1v-2h1.1v-1.9l2.5-1.4v3.3h1.7Z"/>
      <path class="st5" d="M599.6,368.1c0-.8.2-1.6.6-2.4s1-1.4,1.7-1.8,1.6-.6,2.5-.6c1.4,0,2.6.5,3.5,1.4.9.9,1.3,2.1,1.3,3.5s-.5,2.6-1.4,3.5-2.1,1.4-3.4,1.4-1.7-.2-2.5-.6-1.4-1-1.8-1.7-.6-1.7-.6-2.7h0ZM602.1,368.2c0,.9.2,1.6.7,2.1s1,.7,1.6.7,1.2-.2,1.6-.7.7-1.2.7-2.1-.2-1.6-.7-2.1-1-.7-1.6-.7-1.2.2-1.6.7-.7,1.2-.7,2.1h0Z"/>
      <path class="st5" d="M610.2,372.9v-1.9l3.5-4c.6-.7,1-1.1,1.3-1.4-.3,0-.7,0-1.1,0h-3.3s0-2,0-2h7.7v1.8l-3.6,4.1-1.3,1.4c.7,0,1.1,0,1.3,0h3.8v2.2h-8.3,0Z"/>
      <path class="st5" d="M619.6,368.1c0-.8.2-1.6.6-2.4s1-1.4,1.7-1.8,1.6-.6,2.5-.6c1.4,0,2.6.5,3.5,1.4.9.9,1.3,2.1,1.3,3.5s-.5,2.6-1.4,3.5-2.1,1.4-3.4,1.4-1.7-.2-2.5-.6-1.4-1-1.8-1.7-.6-1.7-.6-2.7h0ZM622.1,368.2c0,.9.2,1.6.7,2.1s1,.7,1.6.7,1.2-.2,1.6-.7.7-1.2.7-2.1-.2-1.6-.7-2.1-1-.7-1.6-.7-1.2.2-1.6.7-.7,1.2-.7,2.1h0Z"/>
      <path class="st5" d="M633,366.4l-2.2-.4c.2-.9.7-1.6,1.3-2s1.5-.6,2.7-.6,1.9.1,2.5.4c.5.3.9.6,1.1,1s.3,1.1.3,2.2v2.9c0,.8,0,1.4,0,1.8s.2.8.4,1.2h-2.4c0-.2-.1-.4-.2-.7,0-.1,0-.2,0-.3-.4.4-.9.7-1.3.9s-1,.3-1.5.3c-1,0-1.7-.3-2.3-.8s-.8-1.2-.8-2,.1-1,.4-1.4.6-.7,1.1-1c.5-.2,1.1-.4,2-.6,1.2-.2,2-.4,2.4-.6v-.2c0-.5-.1-.8-.3-1s-.7-.3-1.3-.3-.8,0-1,.3-.5.5-.6.9h0ZM636.3,368.4c-.3.1-.8.2-1.5.4s-1.1.3-1.3.4c-.3.2-.5.5-.5.9s.1.6.4.9.6.4,1,.4.9-.1,1.3-.4c.3-.2.5-.5.6-.8,0-.2,0-.6,0-1.2v-.5h0Z"/>
      <path class="st5" d="M649.7,372.9h-2.5v-4.8c0-1,0-1.7-.2-2s-.3-.5-.5-.7-.5-.2-.9-.2-.8.1-1.2.4-.6.5-.7.9-.2,1.1-.2,2.1v4.2h-2.5v-9.3h2.3v1.4c.8-1,1.8-1.6,3.1-1.6s1,.1,1.5.3.8.5,1,.8.4.6.5,1,.1.9.1,1.7v5.8h0Z"/>
      <path class="st5" d="M566.8,394.7l3.2-13.3h1.8l-3.2,13.3h-1.8,0Z"/>
      <path class="st5" d="M573.2,394.5v-12.9h4.2c1.6,0,2.6,0,3.1.2.7.2,1.4.6,1.8,1.3s.8,1.5.8,2.5-.1,1.5-.4,2-.7,1-1.1,1.3-.9.5-1.3.6c-.6.1-1.5.2-2.7.2h-1.7v4.9h-2.6,0ZM575.8,383.8v3.7h1.4c1,0,1.7,0,2.1-.2s.6-.4.8-.6.3-.6.3-1-.1-.9-.4-1.2-.6-.5-1-.6c-.3,0-.9,0-1.9,0h-1.3,0Z"/>
      <path class="st5" d="M587,388l-2.2-.4c.2-.9.7-1.6,1.3-2s1.5-.6,2.7-.6,1.9.1,2.5.4c.5.3.9.6,1.1,1s.3,1.1.3,2.2v2.9c0,.8,0,1.4,0,1.8s.2.8.4,1.2h-2.4c0-.2-.1-.4-.2-.7,0-.1,0-.2,0-.3-.4.4-.9.7-1.3.9s-1,.3-1.5.3c-1,0-1.7-.3-2.3-.8s-.8-1.2-.8-2,.1-1,.4-1.4.6-.7,1.1-1c.5-.2,1.1-.4,2-.6,1.2-.2,2-.4,2.4-.6v-.2c0-.5-.1-.8-.3-1s-.7-.3-1.3-.3-.8,0-1,.3-.5.5-.6.9h0ZM590.3,390c-.3.1-.8.2-1.5.4s-1.1.3-1.3.4c-.3.2-.5.5-.5.9s.1.6.4.9.6.4,1,.4.9-.1,1.3-.4c.3-.2.5-.5.6-.8,0-.2,0-.6,0-1.2v-.5h0Z"/>
      <path class="st5" d="M597.5,394.5h-2.5v-9.3h2.3v1.3c.4-.6.8-1,1.1-1.2s.7-.3,1.1-.3,1.1.2,1.6.5l-.8,2.1c-.4-.3-.8-.4-1.2-.4s-.6.1-.9.3-.4.5-.6,1-.2,1.5-.2,3.1v2.9h0Z"/>
      <path class="st5" d="M604,388l-2.2-.4c.2-.9.7-1.6,1.3-2s1.5-.6,2.7-.6,1.9.1,2.5.4c.5.3.9.6,1.1,1s.3,1.1.3,2.2v2.9c0,.8,0,1.4,0,1.8s.2.8.4,1.2h-2.4c0-.2-.1-.4-.2-.7,0-.1,0-.2,0-.3-.4.4-.9.7-1.3.9s-1,.3-1.5.3c-1,0-1.7-.3-2.3-.8s-.8-1.2-.8-2,.1-1,.4-1.4.6-.7,1.1-1c.5-.2,1.1-.4,2-.6,1.2-.2,2-.4,2.4-.6v-.2c0-.5-.1-.8-.3-1s-.7-.3-1.3-.3-.8,0-1,.3-.5.5-.6.9h0ZM607.3,390c-.3.1-.8.2-1.5.4s-1.1.3-1.3.4c-.3.2-.5.5-.5.9s.1.6.4.9.6.4,1,.4.9-.1,1.3-.4c.3-.2.5-.5.6-.8,0-.2,0-.6,0-1.2v-.5h0Z"/>
      <path class="st5" d="M611.3,391.8l2.5-.4c.1.5.3.9.6,1.1.3.2.8.4,1.3.4s1.1-.1,1.4-.4c.2-.2.3-.4.3-.7s0-.3-.2-.5c-.1-.1-.4-.2-.8-.3-2-.4-3.2-.8-3.8-1.2-.7-.5-1.1-1.2-1.1-2.1s.3-1.5,1-2,1.6-.8,3-.8,2.2.2,2.8.6,1,1,1.3,1.9l-2.3.4c0-.4-.3-.6-.6-.8s-.7-.3-1.2-.3-1.1,0-1.4.3c-.2.1-.3.3-.3.5s0,.3.2.5c.2.2,1,.4,2.3.7s2.2.7,2.8,1.1c.5.4.8,1,.8,1.8s-.4,1.6-1.1,2.2-1.8.9-3.2.9-2.3-.3-3-.8-1.2-1.2-1.5-2.1h0Z"/>
      <path class="st5" d="M622.2,383.9v-2.3h2.5v2.3h-2.5ZM622.2,394.5v-9.3h2.5v9.3h-2.5Z"/>
      <path class="st5" d="M631.5,385.2v2h-1.7v3.8c0,.8,0,1.2,0,1.3s.1.2.2.3.2.1.4.1.6,0,1-.2l.2,1.9c-.6.2-1.2.4-2,.4s-.8,0-1.2-.2c-.4-.1-.6-.3-.8-.6s-.3-.6-.3-1c0-.3,0-.9,0-1.7v-4.1h-1.1v-2h1.1v-1.9l2.5-1.4v3.3h1.7Z"/>
      <path class="st5" d="M633.2,383.9v-2.3h2.5v2.3h-2.5ZM633.2,394.5v-9.3h2.5v9.3h-2.5Z"/>
      <path class="st5" d="M646.3,387.9l-2.4.4c0-.5-.3-.9-.6-1.1s-.7-.4-1.1-.4-1.1.2-1.5.6-.5,1.1-.5,2.1.2,1.9.6,2.4.9.7,1.5.7.8-.1,1.2-.4.5-.7.6-1.4l2.4.4c-.2,1.1-.7,2-1.5,2.5s-1.7.9-2.9.9-2.5-.4-3.3-1.3-1.2-2-1.2-3.6.4-2.7,1.2-3.6c.8-.9,1.9-1.3,3.3-1.3s2,.2,2.7.7,1.2,1.2,1.5,2.2h0Z"/>
    </g>
  </g>
  <g class="st3">
    <g class="st3">
      <path class="st5" d="M436.9,370.8h5.1c1,0,1.8,0,2.3.1s1,.3,1.3.5.7.6,1,1.1c.3.5.4,1,.4,1.5s-.2,1.2-.5,1.7-.8.9-1.3,1.1c.8.2,1.4.6,1.8,1.2s.6,1.2.6,1.9-.1,1.2-.4,1.7-.6,1-1.1,1.3c-.5.3-1,.5-1.7.6-.4,0-1.5,0-3.1,0h-4.4v-12.9h0ZM439.5,372.9v3h1.7c1,0,1.6,0,1.9,0,.5,0,.8-.2,1-.5.2-.3.4-.6.4-1s-.1-.7-.3-1-.5-.4-1-.5c-.3,0-1,0-2.2,0h-1.5ZM439.5,378.1v3.5h2.4c.9,0,1.5,0,1.8,0,.4,0,.7-.2.9-.5.2-.3.4-.6.4-1.1s0-.7-.3-1-.5-.5-.8-.6-1.1-.2-2.3-.2h-2.1,0Z"/>
      <path class="st5" d="M451.7,377.2l-2.2-.4c.2-.9.7-1.6,1.3-2s1.5-.6,2.7-.6,1.9.1,2.5.4c.5.3.9.6,1.1,1s.3,1.1.3,2.2v2.9c0,.8,0,1.4,0,1.8s.2.8.4,1.2h-2.4c0-.2-.1-.4-.2-.7,0-.1,0-.2,0-.3-.4.4-.9.7-1.4.9s-1,.3-1.5.3c-1,0-1.7-.3-2.3-.8s-.8-1.2-.8-2,.1-1,.4-1.4.6-.7,1.1-1c.5-.2,1.1-.4,2-.6,1.1-.2,2-.4,2.4-.6v-.2c0-.5-.1-.8-.4-1s-.7-.3-1.3-.3-.8,0-1,.3-.5.5-.6.9h0ZM455,379.2c-.3.1-.8.2-1.5.4s-1.1.3-1.3.4c-.3.2-.5.5-.5.9s.1.6.4.9.6.4,1,.4.9-.1,1.3-.4c.3-.2.5-.5.6-.8,0-.2.1-.6.1-1.2v-.5h0Z"/>
      <path class="st5" d="M468,377.1l-2.4.4c0-.5-.3-.9-.6-1.1s-.7-.4-1.1-.4-1.1.2-1.5.6-.5,1.1-.5,2.1.2,1.9.6,2.4.9.7,1.5.7.9-.1,1.1-.4.5-.7.6-1.4l2.4.4c-.2,1.1-.7,2-1.5,2.5s-1.7.9-2.9.9-2.5-.4-3.3-1.3-1.2-2-1.2-3.6.4-2.7,1.2-3.6c.8-.9,1.9-1.3,3.3-1.3s2,.2,2.7.7,1.1,1.2,1.5,2.2h0Z"/>
      <path class="st5" d="M474.2,374.4v2h-1.7v3.8c0,.8,0,1.2,0,1.3s.1.2.2.3.2.1.4.1.6,0,1-.2l.2,1.9c-.6.2-1.2.4-2,.4s-.9,0-1.2-.2c-.4-.1-.6-.3-.8-.6s-.3-.6-.4-1c0-.3,0-.9,0-1.7v-4.1h-1.1v-2h1.1v-1.9l2.5-1.4v3.3h1.7Z"/>
      <path class="st5" d="M481.3,380.7l2.5.4c-.3.9-.8,1.6-1.5,2.1s-1.5.7-2.6.7c-1.6,0-2.8-.5-3.6-1.6-.6-.9-.9-1.9-.9-3.2s.4-2.8,1.2-3.6,1.8-1.3,3.1-1.3,2.5.5,3.3,1.4c.8.9,1.2,2.3,1.1,4.2h-6.2c0,.7.2,1.3.6,1.7s.9.6,1.4.6.7-.1,1-.3.5-.5.6-1h0ZM481.4,378.2c0-.7-.2-1.3-.5-1.6-.4-.4-.8-.6-1.3-.6s-1,.2-1.3.6-.5.9-.5,1.6h3.7,0Z"/>
      <path class="st5" d="M488.3,383.7h-2.5v-9.3h2.3v1.3c.4-.6.8-1,1.1-1.2s.7-.3,1.1-.3,1.1.2,1.6.5l-.8,2.1c-.4-.3-.8-.4-1.2-.4s-.6.1-.9.3-.4.5-.6,1-.2,1.5-.2,3.1v2.9h0Z"/>
      <path class="st5" d="M492.9,373.1v-2.3h2.5v2.3h-2.5ZM492.9,383.7v-9.3h2.5v9.3h-2.5Z"/>
      <path class="st5" d="M499.7,377.2l-2.2-.4c.2-.9.7-1.6,1.3-2s1.5-.6,2.7-.6,1.9.1,2.5.4c.5.3.9.6,1.1,1s.3,1.1.3,2.2v2.9c0,.8,0,1.4,0,1.8s.2.8.4,1.2h-2.4c0-.2-.1-.4-.2-.7,0-.1,0-.2,0-.3-.4.4-.9.7-1.4.9s-1,.3-1.5.3c-1,0-1.7-.3-2.3-.8s-.8-1.2-.8-2,.1-1,.4-1.4.6-.7,1.1-1c.5-.2,1.1-.4,2-.6,1.1-.2,2-.4,2.4-.6v-.2c0-.5-.1-.8-.4-1s-.7-.3-1.3-.3-.8,0-1,.3-.5.5-.6.9h0ZM503.1,379.2c-.3.1-.8.2-1.5.4s-1.1.3-1.3.4c-.3.2-.5.5-.5.9s.1.6.4.9.6.4,1,.4.9-.1,1.3-.4c.3-.2.5-.5.6-.8,0-.2.1-.6.1-1.2v-.5h0Z"/>
      <path class="st5" d="M507.9,383.7v-12.9h2.5v12.9h-2.5Z"/>
    </g>
  </g>
  <g class="st3">
    <g class="st3">
      <path class="st5" d="M705.8,383.7v-12.9h8.8v2.2h-6.2v3h5.4v2.2h-5.4v5.5h-2.6Z"/>
      <path class="st5" d="M722.9,383.7v-1.4c-.3.5-.8.9-1.3,1.2s-1.1.4-1.8.4-1.2-.1-1.7-.4-.9-.7-1.1-1.2-.3-1.2-.3-2.1v-5.9h2.5v4.3c0,1.3,0,2.1.1,2.4,0,.3.3.5.5.7s.5.3.9.3.8-.1,1.1-.4.6-.5.7-.9c.1-.3.2-1.2.2-2.5v-3.9h2.5v9.3h-2.3Z"/>
      <path class="st5" d="M736.2,383.7h-2.5v-4.8c0-1,0-1.7-.2-2s-.3-.5-.5-.7-.5-.2-.9-.2-.8.1-1.2.4-.6.5-.7.9-.2,1.1-.2,2.1v4.2h-2.5v-9.3h2.3v1.4c.8-1,1.8-1.6,3.1-1.6s1,.1,1.5.3c.5.2.8.5,1,.8s.4.6.5,1,.1.9.1,1.7v5.8h0Z"/>
      <path class="st5" d="M738.5,384.3l2.8.3c0,.3.2.5.3.7.2.2.6.3,1.1.3s1.1-.1,1.5-.3c.2-.1.4-.3.5-.6,0-.2.1-.6.1-1.1v-1.4c-.7,1-1.7,1.5-2.8,1.5s-2.2-.5-3-1.6c-.6-.8-.9-1.9-.9-3.1s.4-2.8,1.1-3.6,1.7-1.2,2.8-1.2,2.1.5,2.9,1.5v-1.3h2.3v8.4c0,1.1,0,1.9-.3,2.5s-.4,1-.8,1.3-.8.5-1.3.7-1.2.3-2.1.3c-1.6,0-2.7-.3-3.4-.8-.7-.5-1-1.2-1-2.1v-.3h0ZM740.7,378.8c0,1,.2,1.7.6,2.2.4.5.9.7,1.4.7s1.1-.2,1.5-.7c.4-.5.6-1.2.6-2.1s-.2-1.7-.6-2.1-.9-.7-1.5-.7-1.1.2-1.5.7-.6,1.2-.6,2.1Z"/>
      <path class="st5" d="M751.6,377.2l-2.2-.4c.2-.9.7-1.6,1.3-2s1.5-.6,2.7-.6,1.9.1,2.5.4c.5.3.9.6,1.1,1,.2.4.3,1.1.3,2.2v2.9c0,.8,0,1.4,0,1.8s.2.8.4,1.2h-2.4c0-.2-.1-.4-.2-.7,0-.1,0-.2,0-.3-.4.4-.9.7-1.3.9s-1,.3-1.5.3c-1,0-1.7-.3-2.3-.8s-.8-1.2-.8-2,.1-1,.4-1.4.6-.7,1.1-1c.5-.2,1.1-.4,2-.6,1.2-.2,2-.4,2.4-.6v-.2c0-.5-.1-.8-.3-1s-.7-.3-1.3-.3-.8,0-1,.3-.5.5-.6.9h0ZM754.9,379.2c-.3.1-.8.2-1.5.4s-1.1.3-1.3.4c-.3.2-.5.5-.5.9s.1.6.4.9.6.4,1,.4.9-.1,1.3-.4c.3-.2.5-.5.6-.8,0-.2,0-.6,0-1.2v-.5h0Z"/>
      <path class="st5" d="M759.7,383.7v-12.9h2.5v12.9h-2.5Z"/>
    </g>
  </g>
  <line class="st2" x1="367.7" y1="271.6" x2="735.2" y2="271.6"/>
  <g>
    <line class="st0" x1="734.2" y1="270.8" x2="734.2" y2="294.7"/>
    <g>
      <line class="st2" x1="734.2" y1="270.8" x2="734.2" y2="290"/>
      <polygon class="st5" points="734.2 294.7 727.9 288.1 734.2 289.7 740.5 288.1 734.2 294.7"/>
    </g>
  </g>
  <line class="st2" x1="551.5" y1="257.9" x2="551.5" y2="271.6"/>
  <g>
    <line class="st0" x1="368.7" y1="270.8" x2="368.7" y2="294.7"/>
    <g>
      <line class="st2" x1="368.7" y1="270.8" x2="368.7" y2="290"/>
      <polygon class="st5" points="368.7 294.7 362.4 288.1 368.7 289.7 375 288.1 368.7 294.7"/>
    </g>
  </g>
  <g>
    <path d="M972.9,65.9h-2.8l-1.1-2.9h-5.2l-1.1,2.9h-2.8l5-12.9h2.8l5.2,12.9h0ZM968.1,60.8l-1.8-4.8-1.7,4.8h3.5Z"/>
    <path d="M982.4,59.4l-2.4.4c0-.5-.3-.8-.6-1.1s-.7-.4-1.1-.4-1.1.2-1.5.6-.5,1.1-.5,2.1.2,1.9.6,2.3.9.7,1.5.7.8-.1,1.2-.4.5-.7.6-1.4l2.4.4c-.2,1.1-.7,1.9-1.5,2.5s-1.7.8-2.9.8-2.5-.4-3.3-1.3-1.2-2.1-1.2-3.6.4-2.7,1.2-3.6,1.9-1.3,3.3-1.3,2,.2,2.7.7,1.2,1.2,1.5,2.2h0Z"/>
    <path d="M992.4,59.4l-2.4.4c0-.5-.3-.8-.6-1.1s-.7-.4-1.1-.4-1.1.2-1.5.6-.5,1.1-.5,2.1.2,1.9.6,2.3.9.7,1.5.7.8-.1,1.2-.4.5-.7.6-1.4l2.4.4c-.2,1.1-.7,1.9-1.5,2.5s-1.7.8-2.9.8-2.5-.4-3.3-1.3-1.2-2.1-1.2-3.6.4-2.7,1.2-3.6,1.9-1.3,3.3-1.3,2,.2,2.7.7,1.2,1.2,1.5,2.2h0Z"/>
    <path d="M999.6,63l2.5.4c-.3.9-.8,1.6-1.5,2.1s-1.5.7-2.6.7c-1.6,0-2.8-.5-3.6-1.6-.6-.8-.9-1.9-.9-3.2s.4-2.8,1.2-3.6,1.8-1.3,3.1-1.3,2.5.5,3.3,1.4c.8.9,1.2,2.3,1.2,4.2h-6.2c0,.7.2,1.3.6,1.7.4.4.9.6,1.4.6s.7-.1,1-.3.5-.6.6-1h0ZM999.8,60.5c0-.7-.2-1.3-.5-1.6-.3-.4-.8-.6-1.3-.6s-1,.2-1.3.6-.5.9-.5,1.6h3.7Z"/>
    <path d="M1004.2,65.9v-12.9h2.5v12.9h-2.5Z"/>
    <path d="M1014.7,63l2.5.4c-.3.9-.8,1.6-1.5,2.1s-1.5.7-2.6.7c-1.6,0-2.8-.5-3.6-1.6-.6-.8-.9-1.9-.9-3.2s.4-2.8,1.2-3.6,1.8-1.3,3.1-1.3,2.5.5,3.3,1.4c.8.9,1.2,2.3,1.2,4.2h-6.2c0,.7.2,1.3.6,1.7.4.4.9.6,1.4.6s.7-.1,1-.3.5-.6.6-1h0ZM1014.8,60.5c0-.7-.2-1.3-.5-1.6-.3-.4-.8-.6-1.3-.6s-1,.2-1.3.6-.5.9-.5,1.6h3.7Z"/>
    <path d="M1021.6,65.9h-2.5v-9.3h2.3v1.3c.4-.6.8-1,1.1-1.2s.7-.3,1.1-.3,1.1.2,1.6.5l-.8,2.2c-.4-.3-.8-.4-1.2-.4s-.6,0-.9.3-.4.5-.6,1-.2,1.5-.2,3.1v2.9h0Z"/>
    <path d="M1028.1,59.5l-2.2-.4c.2-.9.7-1.6,1.3-2s1.5-.7,2.7-.7,1.9.1,2.5.4c.5.3.9.6,1.1,1s.3,1.1.3,2.2v2.9c0,.8,0,1.4,0,1.8s.2.8.4,1.2h-2.4c0-.2-.1-.4-.2-.7,0-.2,0-.2,0-.3-.4.4-.9.7-1.3.9s-1,.3-1.5.3c-1,0-1.7-.3-2.3-.8s-.8-1.2-.8-2,.1-1,.4-1.4.6-.7,1.1-.9c.5-.2,1.1-.4,2-.6,1.2-.2,2-.4,2.4-.6v-.2c0-.5-.1-.8-.3-1-.2-.2-.7-.3-1.3-.3s-.8,0-1,.3c-.2.2-.5.5-.6.9h0ZM1031.4,61.5c-.3.1-.8.2-1.5.4s-1.1.3-1.3.4c-.3.2-.5.5-.5.9s.1.6.4.9.6.4,1,.4.9-.2,1.3-.4c.3-.2.5-.5.6-.8,0-.2,0-.6,0-1.2v-.5h0Z"/>
    <path d="M1040.6,56.6v2h-1.7v3.8c0,.8,0,1.2,0,1.3s.1.2.2.3.2.1.4.1.6,0,1-.2l.2,1.9c-.6.2-1.2.4-2,.4s-.8,0-1.2-.2c-.4-.2-.6-.3-.8-.6-.2-.2-.3-.6-.3-1,0-.3,0-.9,0-1.7v-4.1h-1.1v-2h1.1v-1.8l2.5-1.4v3.3h1.7Z"/>
    <path d="M1047.7,63l2.5.4c-.3.9-.8,1.6-1.5,2.1s-1.5.7-2.6.7c-1.6,0-2.8-.5-3.6-1.6-.6-.8-.9-1.9-.9-3.2s.4-2.8,1.2-3.6,1.8-1.3,3.1-1.3,2.5.5,3.3,1.4c.8.9,1.2,2.3,1.2,4.2h-6.2c0,.7.2,1.3.6,1.7.4.4.9.6,1.4.6s.7-.1,1-.3.5-.6.6-1h0ZM1047.8,60.5c0-.7-.2-1.3-.6-1.6-.3-.4-.8-.6-1.3-.6s-1,.2-1.3.6-.5.9-.5,1.6h3.7Z"/>
    <path d="M1060.8,65.9h-2.3v-1.4c-.4.5-.8.9-1.3,1.2s-1,.4-1.6.4c-1.1,0-2-.4-2.8-1.3-.8-.9-1.2-2.1-1.2-3.6s.4-2.8,1.1-3.6c.7-.8,1.7-1.2,2.8-1.2s1.9.4,2.7,1.3v-4.6h2.5v12.9h0ZM1054.2,61.1c0,1,.1,1.7.4,2.2.4.6,1,1,1.7,1s1.1-.2,1.4-.7c.4-.5.6-1.2.6-2.2s-.2-1.8-.6-2.3-.9-.7-1.5-.7-1.1.2-1.5.7c-.4.5-.6,1.2-.6,2.1h0Z"/>
    <path d="M1072.6,56.6v2h-1.7v3.8c0,.8,0,1.2,0,1.3s.1.2.2.3.2.1.4.1.6,0,1-.2l.2,1.9c-.6.2-1.2.4-1.9.4s-.8,0-1.2-.2c-.4-.2-.6-.3-.8-.6-.2-.2-.3-.6-.3-1,0-.3,0-.9,0-1.7v-4.1h-1.1v-2h1.1v-1.8l2.5-1.4v3.3h1.7,0Z"/>
    <path d="M1074.3,55.3v-2.3h2.5v2.3h-2.5ZM1074.3,65.9v-9.3h2.5v9.3h-2.5Z"/>
    <path d="M1079.1,56.6h2.3v1.3c.8-1,1.8-1.5,2.9-1.5s1.1.1,1.6.4.8.6,1.1,1.1c.4-.5.8-.9,1.3-1.1s1-.4,1.5-.4,1.3.1,1.7.4.8.7,1.1,1.2c.2.4.2,1,.2,1.9v6h-2.5v-5.3c0-.9,0-1.5-.2-1.8-.2-.3-.6-.5-1.1-.5s-.7.1-1,.3-.5.5-.7.9c-.1.4-.2,1.1-.2,1.9v4.5h-2.5v-5.1c0-.9,0-1.5-.1-1.8s-.2-.5-.4-.6-.4-.2-.8-.2-.7,0-1,.3-.5.5-.7.9-.2,1-.2,1.9v4.5h-2.5v-9.3h0Z"/>
    <path d="M1100.7,63l2.5.4c-.3.9-.8,1.6-1.5,2.1s-1.5.7-2.6.7c-1.6,0-2.8-.5-3.6-1.6-.6-.8-.9-1.9-.9-3.2s.4-2.8,1.2-3.6,1.8-1.3,3.1-1.3,2.5.5,3.3,1.4c.8.9,1.2,2.3,1.2,4.2h-6.2c0,.7.2,1.3.6,1.7.4.4.9.6,1.4.6s.7-.1,1-.3.5-.6.6-1h0ZM1100.8,60.5c0-.7-.2-1.3-.6-1.6-.3-.4-.8-.6-1.3-.6s-1,.2-1.3.6-.5.9-.5,1.6h3.7Z"/>
    <path d="M1105.3,65.9v-12.9h2.5v12.9h-2.5Z"/>
    <path d="M1110.3,55.3v-2.3h2.5v2.3h-2.5ZM1110.3,65.9v-9.3h2.5v9.3h-2.5Z"/>
    <path d="M1123.8,65.9h-2.5v-4.8c0-1,0-1.7-.2-2s-.3-.5-.5-.7-.5-.2-.9-.2-.8.1-1.2.3-.6.5-.7.9-.2,1.1-.2,2.1v4.2h-2.5v-9.3h2.3v1.4c.8-1.1,1.8-1.6,3.1-1.6s1,0,1.5.3.8.4,1,.8.4.7.5,1,.1.9.1,1.7v5.8h0Z"/>
    <path d="M1131.7,63l2.5.4c-.3.9-.8,1.6-1.5,2.1s-1.5.7-2.6.7c-1.6,0-2.8-.5-3.6-1.6-.6-.8-.9-1.9-.9-3.2s.4-2.8,1.2-3.6,1.8-1.3,3.1-1.3,2.5.5,3.3,1.4c.8.9,1.2,2.3,1.2,4.2h-6.2c0,.7.2,1.3.6,1.7.4.4.9.6,1.4.6s.7-.1,1-.3.5-.6.6-1h0ZM1131.8,60.5c0-.7-.2-1.3-.6-1.6-.3-.4-.8-.6-1.3-.6s-1,.2-1.3.6-.5.9-.5,1.6h3.7Z"/>
    <path d="M1135.4,63.3l2.5-.4c.1.5.3.8.6,1.1.3.2.8.4,1.3.4s1.1-.1,1.4-.3c.2-.2.3-.4.3-.7s0-.3-.2-.5c-.1-.1-.4-.2-.8-.3-2-.4-3.2-.8-3.8-1.2-.7-.5-1.1-1.2-1.1-2.1s.3-1.5,1-2,1.6-.8,3-.8,2.2.2,2.8.6,1.1,1,1.3,1.8l-2.3.4c0-.4-.3-.6-.6-.8s-.7-.3-1.2-.3-1.1,0-1.4.3c-.2.1-.3.3-.3.5s0,.3.2.4c.2.2,1,.4,2.3.7s2.2.7,2.8,1.1c.5.4.8,1.1.8,1.8s-.4,1.6-1.1,2.2-1.8.9-3.2.9-2.3-.3-3-.8-1.2-1.2-1.5-2.1h0Z"/>
    <path d="M1010.6,84.1l2.4-.3c0,.6.3,1.1.6,1.4s.7.5,1.2.5.9-.2,1.3-.6.5-.9.5-1.6-.2-1.1-.5-1.5-.7-.5-1.2-.5-.7,0-1.1.2l.3-2c.7,0,1.2-.1,1.5-.4.3-.3.5-.7.5-1.2s-.1-.8-.4-1-.6-.4-1-.4-.8.2-1.1.4-.5.7-.5,1.3l-2.3-.4c.2-.8.4-1.4.7-1.9.3-.5.8-.8,1.3-1.1s1.2-.4,1.9-.4c1.2,0,2.2.4,2.9,1.2.6.6.9,1.3.9,2.1,0,1.1-.6,2-1.8,2.7.7.2,1.3.5,1.8,1.1s.7,1.2.7,2c0,1.1-.4,2.1-1.2,2.9s-1.8,1.2-3.1,1.2-2.1-.3-2.9-1c-.8-.7-1.2-1.6-1.3-2.6h0Z"/>
    <path d="M1021,84.1v-2.5h4.8v2.5h-4.8Z"/>
    <path d="M1035.1,77.8l-2.4.3c0-.5-.2-.9-.5-1.1s-.6-.3-1-.3-1,.2-1.3.7-.6,1.4-.7,2.9c.6-.7,1.4-1.1,2.3-1.1s1.9.4,2.7,1.2,1.1,1.8,1.1,3-.4,2.4-1.2,3.2-1.8,1.2-3,1.2-2.4-.5-3.2-1.5c-.8-1-1.3-2.7-1.3-5s.4-4.1,1.3-5.1,2-1.6,3.4-1.6,1.8.3,2.4.8,1,1.3,1.2,2.4h0ZM1029.5,83.2c0,.8.2,1.4.5,1.9s.8.7,1.3.7.8-.2,1.1-.5.5-.9.5-1.8-.2-1.4-.5-1.8-.7-.6-1.2-.6-.9.2-1.2.6c-.3.4-.5.9-.5,1.7h0Z"/>
    <path d="M1044,87.5l-2.9-9.3h2.4l1.8,6.1,1.6-6.1h2.4l1.6,6.1,1.8-6.1h2.4l-3,9.3h-2.4l-1.6-6-1.6,6h-2.4Z"/>
    <path d="M1061.7,84.6l2.5.4c-.3.9-.8,1.6-1.5,2.1s-1.5.7-2.6.7c-1.6,0-2.8-.5-3.6-1.6-.6-.8-.9-1.9-.9-3.2s.4-2.8,1.2-3.6,1.8-1.3,3.1-1.3,2.5.5,3.3,1.4c.8.9,1.2,2.3,1.2,4.2h-6.2c0,.7.2,1.3.6,1.7.4.4.9.6,1.4.6s.7-.1,1-.3.5-.6.6-1h0ZM1061.8,82.1c0-.7-.2-1.3-.6-1.6-.3-.4-.8-.6-1.3-.6s-1,.2-1.3.6-.5.9-.5,1.6h3.7Z"/>
    <path d="M1071.7,84.6l2.5.4c-.3.9-.8,1.6-1.5,2.1s-1.5.7-2.6.7c-1.6,0-2.8-.5-3.6-1.6-.6-.8-.9-1.9-.9-3.2s.4-2.8,1.2-3.6,1.8-1.3,3.1-1.3,2.5.5,3.3,1.4c.8.9,1.2,2.3,1.2,4.2h-6.2c0,.7.2,1.3.6,1.7.4.4.9.6,1.4.6s.7-.1,1-.3.5-.6.6-1h0ZM1071.8,82.1c0-.7-.2-1.3-.6-1.6-.3-.4-.8-.6-1.3-.6s-1,.2-1.3.6-.5.9-.5,1.6h3.7Z"/>
    <path d="M1076.2,87.5v-12.9h2.5v6.8l2.9-3.3h3l-3.2,3.4,3.4,5.9h-2.7l-2.3-4.2-1.2,1.2v3h-2.5Z"/>
    <path d="M1085.4,84.9l2.5-.4c.1.5.3.8.6,1.1.3.2.8.4,1.3.4s1.1-.1,1.4-.3c.2-.2.3-.4.3-.7s0-.3-.2-.5c-.1-.1-.4-.2-.8-.3-2-.4-3.2-.8-3.8-1.2-.7-.5-1.1-1.2-1.1-2.1s.3-1.5,1-2,1.6-.8,3-.8,2.2.2,2.8.6,1.1,1,1.3,1.8l-2.3.4c0-.4-.3-.6-.6-.8s-.7-.3-1.2-.3-1.1,0-1.4.3c-.2.1-.3.3-.3.5s0,.3.2.4c.2.2,1,.4,2.3.7s2.2.7,2.8,1.1c.5.4.8,1.1.8,1.8s-.4,1.6-1.1,2.2-1.8.9-3.2.9-2.3-.3-3-.8-1.2-1.2-1.4-2.1h0Z"/>
  </g>
  <g>
    <path d="M214.7,65.9v-12.9h8.8v2.2h-6.2v3.1h5.4v2.2h-5.4v5.5h-2.6Z"/>
    <path d="M228,65.9h-2.5v-9.3h2.3v1.3c.4-.6.8-1,1.1-1.2s.7-.3,1.1-.3,1.1.2,1.6.5l-.8,2.2c-.4-.3-.8-.4-1.2-.4s-.6,0-.9.3-.4.5-.6,1-.2,1.5-.2,3.1v2.9h0Z"/>
    <path d="M232.1,61.1c0-.8.2-1.6.6-2.4s1-1.3,1.7-1.8,1.6-.6,2.5-.6c1.4,0,2.6.5,3.5,1.4s1.4,2.1,1.4,3.5-.5,2.6-1.4,3.5-2.1,1.4-3.4,1.4-1.7-.2-2.4-.6-1.4-.9-1.8-1.7c-.4-.8-.6-1.7-.6-2.7h0ZM234.6,61.3c0,.9.2,1.6.7,2.1s1,.7,1.6.7,1.2-.2,1.6-.7.6-1.2.6-2.1-.2-1.6-.6-2.1-1-.7-1.6-.7-1.2.2-1.6.7-.7,1.2-.7,2.1h0Z"/>
    <path d="M243.5,56.6h2.3v1.3c.8-1,1.8-1.5,2.9-1.5s1.1.1,1.6.4.8.6,1.1,1.1c.4-.5.9-.9,1.3-1.1s1-.4,1.5-.4,1.3.1,1.7.4.8.7,1.1,1.2c.2.4.2,1,.2,1.9v6h-2.5v-5.3c0-.9,0-1.5-.2-1.8-.2-.3-.6-.5-1.1-.5s-.7.1-1,.3-.5.5-.7.9c-.1.4-.2,1.1-.2,1.9v4.5h-2.5v-5.1c0-.9,0-1.5-.1-1.8s-.2-.5-.4-.6-.4-.2-.8-.2-.7,0-1,.3-.5.5-.6.9-.2,1-.2,1.9v4.5h-2.5v-9.3h0Z"/>
    <path d="M267.1,53.1v4.7c.8-.9,1.8-1.4,2.9-1.4s1.1.1,1.5.3.8.5,1,.8.4.7.5,1.1c0,.4.1,1,.1,1.8v5.5h-2.5v-4.9c0-1,0-1.6-.1-1.9s-.3-.5-.5-.6-.5-.2-.9-.2-.8,0-1.1.3-.6.5-.7.9-.2,1-.2,1.8v4.7h-2.5v-12.9h2.5Z"/>
    <path d="M281.8,65.9v-1.4c-.3.5-.8.9-1.3,1.2s-1.1.4-1.8.4-1.2-.1-1.7-.4-.9-.7-1.1-1.2-.3-1.2-.3-2.1v-5.9h2.5v4.3c0,1.3,0,2.1.1,2.4,0,.3.3.5.5.7s.5.3.9.3.8-.1,1.1-.3c.3-.2.6-.5.7-.9.1-.3.2-1.2.2-2.5v-3.9h2.5v9.3h-2.3Z"/>
    <path d="M286.4,56.6h2.3v1.3c.8-1,1.8-1.5,2.9-1.5s1.1.1,1.6.4.8.6,1.1,1.1c.4-.5.9-.9,1.3-1.1s1-.4,1.5-.4,1.3.1,1.7.4.8.7,1.1,1.2c.2.4.2,1,.2,1.9v6h-2.5v-5.3c0-.9,0-1.5-.2-1.8-.2-.3-.6-.5-1-.5s-.7.1-1,.3-.5.5-.7.9c-.1.4-.2,1.1-.2,1.9v4.5h-2.5v-5.1c0-.9,0-1.5-.1-1.8s-.2-.5-.4-.6-.4-.2-.8-.2-.7,0-1,.3-.5.5-.6.9-.2,1-.2,1.9v4.5h-2.5v-9.3h0Z"/>
    <path d="M304.5,59.5l-2.2-.4c.2-.9.7-1.6,1.3-2s1.5-.7,2.7-.7,1.9.1,2.5.4c.5.3.9.6,1.1,1s.3,1.1.3,2.2v2.9c0,.8,0,1.4,0,1.8s.2.8.4,1.2h-2.4c0-.2-.1-.4-.2-.7,0-.2,0-.2,0-.3-.4.4-.9.7-1.4.9s-1,.3-1.5.3c-1,0-1.7-.3-2.3-.8s-.8-1.2-.8-2,.1-1,.4-1.4.6-.7,1.1-.9c.5-.2,1.1-.4,2-.6,1.1-.2,2-.4,2.4-.6v-.2c0-.5-.1-.8-.4-1-.2-.2-.7-.3-1.3-.3s-.8,0-1,.3c-.2.2-.5.5-.6.9h0ZM307.8,61.5c-.3.1-.8.2-1.5.4s-1.1.3-1.3.4c-.3.2-.5.5-.5.9s.1.6.4.9.6.4,1,.4.9-.2,1.3-.4c.3-.2.5-.5.6-.8,0-.2.1-.6.1-1.2v-.5h0Z"/>
    <path d="M321.1,65.9h-2.5v-4.8c0-1,0-1.7-.2-2s-.3-.5-.5-.7-.5-.2-.9-.2-.8.1-1.1.3-.6.5-.7.9-.2,1.1-.2,2.1v4.2h-2.5v-9.3h2.3v1.4c.8-1.1,1.8-1.6,3.1-1.6s1,0,1.5.3.8.4,1,.8.4.7.5,1,.1.9.1,1.7v5.8h0Z"/>
    <path d="M332.9,56.6v2h-1.7v3.8c0,.8,0,1.2,0,1.3s.1.2.2.3.2.1.4.1.6,0,1-.2l.2,1.9c-.6.2-1.2.4-2,.4s-.9,0-1.2-.2c-.4-.2-.6-.3-.8-.6-.2-.2-.3-.6-.4-1,0-.3,0-.9,0-1.7v-4.1h-1.1v-2h1.1v-1.8l2.5-1.4v3.3h1.7Z"/>
    <path d="M334.1,61.1c0-.8.2-1.6.6-2.4s1-1.3,1.7-1.8,1.6-.6,2.5-.6c1.4,0,2.6.5,3.5,1.4s1.4,2.1,1.4,3.5-.5,2.6-1.4,3.5-2.1,1.4-3.4,1.4-1.7-.2-2.5-.6-1.4-.9-1.8-1.7-.6-1.7-.6-2.7h0ZM336.6,61.3c0,.9.2,1.6.7,2.1s1,.7,1.6.7,1.2-.2,1.6-.7.6-1.2.6-2.1-.2-1.6-.6-2.1-1-.7-1.6-.7-1.2.2-1.6.7-.7,1.2-.7,2.1h0Z"/>
    <path d="M353.2,65.9l-3.8-9.3h2.6l1.8,4.8.5,1.6c.1-.4.2-.7.2-.8,0-.3.2-.5.3-.8l1.8-4.8h2.5l-3.7,9.3h-2.2Z"/>
    <path d="M366.1,63l2.5.4c-.3.9-.8,1.6-1.5,2.1s-1.5.7-2.6.7c-1.6,0-2.8-.5-3.6-1.6-.6-.8-.9-1.9-.9-3.2s.4-2.8,1.2-3.6,1.8-1.3,3.1-1.3,2.5.5,3.3,1.4c.8.9,1.2,2.3,1.1,4.2h-6.2c0,.7.2,1.3.6,1.7.4.4.9.6,1.4.6s.7-.1,1-.3.5-.6.6-1h0ZM366.2,60.5c0-.7-.2-1.3-.5-1.6-.4-.4-.8-.6-1.3-.6s-1,.2-1.3.6-.5.9-.5,1.6h3.7,0Z"/>
    <path d="M374.9,56.6v2h-1.7v3.8c0,.8,0,1.2,0,1.3s.1.2.2.3.2.1.4.1.6,0,1-.2l.2,1.9c-.6.2-1.2.4-2,.4s-.9,0-1.2-.2c-.4-.2-.6-.3-.8-.6-.2-.2-.3-.6-.4-1,0-.3,0-.9,0-1.7v-4.1h-1.1v-2h1.1v-1.8l2.5-1.4v3.3h1.7Z"/>
    <path d="M382.1,63l2.5.4c-.3.9-.8,1.6-1.5,2.1s-1.5.7-2.6.7c-1.6,0-2.8-.5-3.6-1.6-.6-.8-.9-1.9-.9-3.2s.4-2.8,1.2-3.6,1.8-1.3,3.1-1.3,2.5.5,3.3,1.4c.8.9,1.2,2.3,1.1,4.2h-6.2c0,.7.2,1.3.6,1.7.4.4.9.6,1.4.6s.7-.1,1-.3.5-.6.6-1h0ZM382.2,60.5c0-.7-.2-1.3-.5-1.6-.4-.4-.8-.6-1.3-.6s-1,.2-1.3.6-.5.9-.5,1.6h3.7,0Z"/>
    <path d="M389,65.9h-2.5v-9.3h2.3v1.3c.4-.6.8-1,1.1-1.2s.7-.3,1.1-.3,1.1.2,1.6.5l-.8,2.2c-.4-.3-.8-.4-1.2-.4s-.6,0-.9.3-.4.5-.6,1-.2,1.5-.2,3.1v2.9h0Z"/>
    <path d="M402.2,65.9h-2.5v-4.8c0-1,0-1.7-.2-2s-.3-.5-.5-.7-.5-.2-.9-.2-.8.1-1.1.3-.6.5-.7.9-.2,1.1-.2,2.1v4.2h-2.5v-9.3h2.3v1.4c.8-1.1,1.8-1.6,3.1-1.6s1,0,1.5.3.8.4,1,.8.4.7.5,1,.1.9.1,1.7v5.8h0Z"/>
    <path d="M406.5,59.5l-2.2-.4c.2-.9.7-1.6,1.3-2s1.5-.7,2.7-.7,1.9.1,2.5.4c.5.3.9.6,1.1,1s.3,1.1.3,2.2v2.9c0,.8,0,1.4,0,1.8s.2.8.4,1.2h-2.4c0-.2-.1-.4-.2-.7,0-.2,0-.2,0-.3-.4.4-.9.7-1.4.9s-1,.3-1.5.3c-1,0-1.7-.3-2.3-.8s-.8-1.2-.8-2,.1-1,.4-1.4.6-.7,1.1-.9c.5-.2,1.1-.4,2-.6,1.1-.2,2-.4,2.4-.6v-.2c0-.5-.1-.8-.4-1-.2-.2-.7-.3-1.3-.3s-.8,0-1,.3c-.2.2-.5.5-.6.9h0ZM409.8,61.5c-.3.1-.8.2-1.5.4s-1.1.3-1.3.4c-.3.2-.5.5-.5.9s.1.6.4.9.6.4,1,.4.9-.2,1.3-.4c.3-.2.5-.5.6-.8,0-.2.1-.6.1-1.2v-.5h0Z"/>
    <path d="M417,65.9h-2.5v-9.3h2.3v1.3c.4-.6.8-1,1.1-1.2s.7-.3,1.1-.3,1.1.2,1.6.5l-.8,2.2c-.4-.3-.8-.4-1.2-.4s-.6,0-.9.3-.4.5-.6,1-.2,1.5-.2,3.1v2.9h0Z"/>
    <path d="M420.5,56.6h2.6l2.2,6.6,2.2-6.6h2.6l-3.3,9-.6,1.6c-.2.5-.4,1-.6,1.2s-.4.5-.7.7-.6.3-.9.4-.8.2-1.3.2-.9,0-1.4-.2l-.2-1.9c.4,0,.7.1,1,.1.6,0,1-.2,1.3-.5.3-.3.5-.8.6-1.3l-3.5-9.4h0Z"/>
    <path d="M441,56.6v2h-1.7v3.8c0,.8,0,1.2,0,1.3s.1.2.2.3.2.1.4.1.6,0,1-.2l.2,1.9c-.6.2-1.2.4-2,.4s-.9,0-1.2-.2c-.4-.2-.6-.3-.8-.6-.2-.2-.3-.6-.4-1,0-.3,0-.9,0-1.7v-4.1h-1.1v-2h1.1v-1.8l2.5-1.4v3.3h1.7Z"/>
    <path d="M444.5,59.5l-2.2-.4c.2-.9.7-1.6,1.3-2s1.5-.7,2.7-.7,1.9.1,2.5.4c.5.3.9.6,1.1,1s.3,1.1.3,2.2v2.9c0,.8,0,1.4,0,1.8s.2.8.4,1.2h-2.4c0-.2-.1-.4-.2-.7,0-.2,0-.2,0-.3-.4.4-.9.7-1.4.9s-1,.3-1.5.3c-1,0-1.7-.3-2.3-.8s-.8-1.2-.8-2,.1-1,.4-1.4.6-.7,1.1-.9c.5-.2,1.1-.4,2-.6,1.1-.2,2-.4,2.4-.6v-.2c0-.5-.1-.8-.4-1-.2-.2-.7-.3-1.3-.3s-.8,0-1,.3c-.2.2-.5.5-.6.9h0ZM447.8,61.5c-.3.1-.8.2-1.5.4s-1.1.3-1.3.4c-.3.2-.5.5-.5.9s.1.6.4.9.6.4,1,.4.9-.2,1.3-.4c.3-.2.5-.5.6-.8,0-.2.1-.6.1-1.2v-.5h0Z"/>
    <path d="M455.1,65.9h-2.5v-9.3h2.3v1.3c.4-.6.8-1,1.1-1.2s.7-.3,1.1-.3,1.1.2,1.6.5l-.8,2.2c-.4-.3-.8-.4-1.2-.4s-.6,0-.9.3-.4.5-.6,1-.2,1.5-.2,3.1v2.9h0Z"/>
    <path d="M459.5,66.6l2.8.3c0,.3.2.6.3.7.2.2.6.3,1.1.3s1.1,0,1.5-.3c.2-.1.4-.3.5-.6,0-.2.1-.6.1-1.1v-1.4c-.7,1-1.7,1.5-2.8,1.5s-2.2-.5-3-1.6c-.6-.8-.9-1.9-.9-3.1s.4-2.8,1.1-3.6,1.7-1.2,2.8-1.2,2.1.5,2.9,1.5v-1.3h2.3v8.4c0,1.1,0,1.9-.3,2.5s-.4,1-.8,1.3-.8.6-1.3.7-1.2.3-2.1.3c-1.6,0-2.7-.3-3.4-.8s-1-1.2-1-2.1v-.3h0ZM461.7,61.1c0,1,.2,1.7.6,2.2.4.5.9.7,1.4.7s1.1-.2,1.5-.7.6-1.2.6-2.1-.2-1.7-.6-2.2-.9-.7-1.5-.7-1.1.2-1.5.7-.6,1.2-.6,2.1h0Z"/>
    <path d="M476.1,63l2.5.4c-.3.9-.8,1.6-1.5,2.1s-1.5.7-2.6.7c-1.6,0-2.8-.5-3.6-1.6-.6-.8-.9-1.9-.9-3.2s.4-2.8,1.2-3.6,1.8-1.3,3.1-1.3,2.5.5,3.3,1.4c.8.9,1.2,2.3,1.1,4.2h-6.2c0,.7.2,1.3.6,1.7.4.4.9.6,1.4.6s.7-.1,1-.3.5-.6.6-1h0ZM476.2,60.5c0-.7-.2-1.3-.5-1.6-.4-.4-.8-.6-1.3-.6s-1,.2-1.3.6-.5.9-.5,1.6h3.7,0Z"/>
    <path d="M485,56.6v2h-1.7v3.8c0,.8,0,1.2,0,1.3s.1.2.2.3.2.1.4.1.6,0,1-.2l.2,1.9c-.6.2-1.2.4-2,.4s-.9,0-1.2-.2c-.4-.2-.6-.3-.8-.6-.2-.2-.3-.6-.4-1,0-.3,0-.9,0-1.7v-4.1h-1.1v-2h1.1v-1.8l2.5-1.4v3.3h1.7Z"/>
    <path d="M485.8,63.3l2.5-.4c.1.5.3.8.6,1.1.3.2.8.4,1.4.4s1.1-.1,1.4-.3c.2-.2.3-.4.3-.7s0-.3-.2-.5c-.1-.1-.4-.2-.8-.3-2-.4-3.2-.8-3.8-1.2-.7-.5-1.1-1.2-1.1-2.1s.3-1.5,1-2,1.6-.8,3-.8,2.2.2,2.9.6,1,1,1.3,1.8l-2.3.4c-.1-.4-.3-.6-.6-.8s-.7-.3-1.2-.3-1.1,0-1.4.3c-.2.1-.3.3-.3.5s0,.3.2.4c.2.2,1,.4,2.3.7s2.2.7,2.8,1.1c.5.4.8,1.1.8,1.8s-.4,1.6-1.1,2.2-1.8.9-3.2.9-2.3-.3-3-.8-1.2-1.2-1.5-2.1h0Z"/>
    <path d="M229.5,87.5v-11.4h-4.2v-1.5h10.2v1.5h-4.3v11.4h-1.7,0Z"/>
    <path d="M241.1,86.4c-.6.5-1.1.8-1.7,1.1s-1.1.3-1.7.3c-1,0-1.8-.2-2.4-.8s-.8-1.1-.8-1.9.1-.9.3-1.2c.2-.4.5-.7.8-.9s.7-.4,1.1-.5c.3,0,.8-.2,1.4-.2,1.3-.2,2.2-.3,2.8-.5v-.4c0-.6-.1-1.1-.4-1.4-.4-.4-1-.5-1.8-.5s-1.3.1-1.6.4-.6.7-.8,1.4l-1.6-.2c.1-.7.4-1.2.7-1.6.3-.4.8-.7,1.4-.9s1.3-.3,2.1-.3,1.4,0,1.9.3.9.4,1.1.7c.2.3.4.6.5,1.1,0,.3,0,.8,0,1.5v2.1c0,1.5,0,2.4.1,2.8s.2.8.4,1.1h-1.6c-.2-.3-.3-.7-.3-1.2h0ZM241,82.9c-.6.2-1.4.4-2.6.6-.6,0-1.1.2-1.4.3s-.5.3-.6.5-.2.5-.2.8c0,.4.2.8.5,1.1s.8.4,1.4.4,1.1-.1,1.6-.4.8-.6,1.1-1.1c.2-.4.2-.9.2-1.6v-.6h0Z"/>
    <path d="M245,76.5v-1.8h1.6v1.8h-1.6ZM245,87.5v-9.3h1.6v9.3h-1.6Z"/>
    <path d="M249,87.5v-12.9h1.6v12.9h-1.6Z"/>
    <path d="M252.4,82.9c0-1.7.5-3,1.4-3.8.8-.7,1.8-1,2.9-1s2.3.4,3.1,1.3,1.2,2,1.2,3.5-.2,2.2-.5,2.8c-.4.7-.9,1.2-1.6,1.6s-1.4.6-2.2.6c-1.3,0-2.4-.4-3.2-1.3s-1.2-2-1.2-3.6h0ZM254,82.9c0,1.2.3,2.1.8,2.7.5.6,1.2.9,2,.9s1.4-.3,2-.9.8-1.5.8-2.7-.3-2-.8-2.6c-.5-.6-1.2-.9-2-.9s-1.4.3-2,.9-.8,1.5-.8,2.7h0Z"/>
    <path d="M263,87.5v-9.3h1.4v1.4c.4-.7.7-1.1,1-1.3s.6-.3,1-.3c.5,0,1.1.2,1.6.5l-.5,1.5c-.4-.2-.8-.3-1.2-.3s-.7,0-.9.3-.5.5-.6.9c-.2.6-.3,1.2-.3,1.8v4.9h-1.6Z"/>
    <path d="M275.4,84.5l1.6.2c-.3,1-.7,1.7-1.4,2.2s-1.6.8-2.7.8-2.4-.4-3.2-1.3c-.8-.8-1.2-2-1.2-3.5s.4-2.8,1.2-3.7,1.9-1.3,3.1-1.3,2.3.4,3.1,1.3,1.2,2,1.2,3.6v.4h-7c0,1,.4,1.8.9,2.4s1.2.8,1.9.8,1.1-.2,1.5-.5.7-.8,1-1.5h0ZM270.2,82h5.2c0-.8-.3-1.4-.6-1.8-.5-.6-1.2-.9-2-.9s-1.3.2-1.8.7-.8,1.1-.8,1.9h0Z"/>
    <path d="M285.1,87.5v-1.2c-.6.9-1.5,1.4-2.6,1.4s-1.4-.2-2-.6-1.1-1-1.5-1.7c-.3-.7-.5-1.6-.5-2.5s.2-1.8.5-2.5.8-1.3,1.4-1.8,1.3-.6,2.1-.6,1.1.1,1.5.4.8.6,1.1.9v-4.6h1.6v12.9h-1.5ZM280.1,82.9c0,1.2.2,2.1.8,2.7s1.1.9,1.8.9,1.3-.3,1.8-.8.7-1.4.7-2.6-.2-2.2-.7-2.8-1.1-.9-1.8-.9-1.3.3-1.8.9-.7,1.5-.7,2.7h0Z"/>
    <path d="M293.4,84.8l1.6-.2c0,.6.3,1.1.7,1.4s1,.5,1.7.5,1.3-.2,1.6-.4.5-.6.5-1-.2-.6-.5-.8c-.2-.1-.8-.3-1.6-.5-1.2-.3-2-.6-2.4-.8s-.8-.5-1-.9c-.2-.4-.4-.8-.4-1.2s.1-.8.3-1.2c.2-.3.5-.7.8-.9.2-.2.6-.3,1-.5s.9-.2,1.4-.2c.7,0,1.4.1,1.9.3s1,.5,1.2.9c.3.4.5.8.5,1.4l-1.5.2c0-.5-.3-.9-.6-1.1s-.8-.4-1.4-.4-1.2.1-1.6.4-.5.5-.5.8,0,.4.2.6c.1.2.3.3.6.4.2,0,.6.2,1.4.4,1.1.3,1.9.5,2.3.7s.8.5,1,.8.4.8.4,1.3-.1,1-.5,1.5c-.3.5-.8.8-1.3,1.1-.6.3-1.2.4-2,.4-1.2,0-2.1-.2-2.8-.8s-1-1.2-1.2-2.2h0Z"/>
    <path d="M302.4,82.9c0-1.7.5-3,1.4-3.8.8-.7,1.8-1,2.9-1s2.3.4,3.1,1.3,1.2,2,1.2,3.5-.2,2.2-.5,2.8c-.4.7-.9,1.2-1.6,1.6s-1.4.6-2.2.6c-1.3,0-2.4-.4-3.2-1.3s-1.2-2-1.2-3.6h0ZM304.1,82.9c0,1.2.3,2.1.8,2.7.5.6,1.2.9,2,.9s1.4-.3,2-.9.8-1.5.8-2.7-.3-2-.8-2.6c-.5-.6-1.2-.9-2-.9s-1.5.3-2,.9-.8,1.5-.8,2.7h0Z"/>
    <path d="M313,87.5v-12.9h1.6v12.9h-1.6Z"/>
    <path d="M323.2,87.5v-1.4c-.7,1.1-1.7,1.6-3,1.6s-1.1-.1-1.5-.3-.8-.5-1.1-.8-.4-.7-.5-1.2c0-.3-.1-.8-.1-1.5v-5.8h1.6v5.2c0,.8,0,1.4.1,1.7.1.4.3.7.6,1,.3.2.7.4,1.2.4s.9-.1,1.3-.4.7-.6.9-1,.3-1,.3-1.8v-5h1.6v9.3h-1.4Z"/>
    <path d="M330.5,86.1l.2,1.4c-.5,0-.8.1-1.2.1-.6,0-1,0-1.3-.3s-.5-.4-.7-.7-.2-.9-.2-1.9v-5.4h-1.2v-1.2h1.2v-2.3l1.6-.9v3.3h1.6v1.2h-1.6v5.5c0,.4,0,.7,0,.9s.1.2.3.3.3.1.5.1.4,0,.7,0h0Z"/>
    <path d="M332.1,76.5v-1.8h1.6v1.8h-1.6ZM332.1,87.5v-9.3h1.6v9.3h-1.6Z"/>
    <path d="M335.5,82.9c0-1.7.5-3,1.4-3.8.8-.7,1.8-1,2.9-1s2.3.4,3.1,1.3,1.2,2,1.2,3.5-.2,2.2-.5,2.8c-.4.7-.9,1.2-1.6,1.6s-1.4.6-2.2.6c-1.3,0-2.4-.4-3.2-1.3s-1.2-2-1.2-3.6h0ZM337.1,82.9c0,1.2.3,2.1.8,2.7.5.6,1.2.9,2,.9s1.4-.3,2-.9.8-1.5.8-2.7-.3-2-.8-2.6c-.5-.6-1.2-.9-2-.9s-1.5.3-2,.9-.8,1.5-.8,2.7h0Z"/>
    <path d="M346.1,87.5v-9.3h1.4v1.3c.7-1,1.7-1.5,3-1.5s1.1,0,1.5.3c.5.2.8.5,1.1.8s.4.7.5,1.2c0,.3,0,.8,0,1.5v5.7h-1.6v-5.7c0-.6,0-1.1-.2-1.4s-.3-.6-.6-.8c-.3-.2-.7-.3-1.1-.3-.7,0-1.3.2-1.7.6s-.7,1.2-.7,2.4v5.1h-1.6Z"/>
    <path d="M355.4,84.8l1.6-.2c0,.6.3,1.1.7,1.4s1,.5,1.7.5,1.3-.2,1.6-.4.5-.6.5-1-.2-.6-.5-.8c-.2-.1-.8-.3-1.6-.5-1.2-.3-2-.6-2.4-.8s-.8-.5-1-.9c-.2-.4-.4-.8-.4-1.2s.1-.8.3-1.2c.2-.3.5-.7.8-.9.2-.2.6-.3,1-.5s.9-.2,1.4-.2c.7,0,1.4.1,1.9.3s1,.5,1.2.9c.3.4.5.8.5,1.4l-1.5.2c0-.5-.3-.9-.6-1.1s-.8-.4-1.4-.4-1.2.1-1.6.4-.5.5-.5.8,0,.4.2.6c.1.2.3.3.6.4.2,0,.6.2,1.4.4,1.1.3,1.9.5,2.3.7s.8.5,1,.8.4.8.4,1.3-.1,1-.5,1.5c-.3.5-.8.8-1.3,1.1-.6.3-1.2.4-2,.4-1.2,0-2.1-.2-2.8-.8s-1-1.2-1.2-2.2h0Z"/>
    <path d="M370.5,87.5v-8.1h-1.4v-1.2h1.4v-1c0-.6,0-1.1.2-1.4.1-.4.4-.7.8-1,.4-.2.9-.4,1.6-.4s.9,0,1.5.2l-.2,1.4c-.3,0-.6,0-.9,0-.5,0-.8,0-1,.3s-.3.6-.3,1.2v.9h1.8v1.2h-1.8v8.1h-1.6Z"/>
    <path d="M374.5,82.9c0-1.7.5-3,1.4-3.8.8-.7,1.8-1,2.9-1s2.3.4,3.1,1.3,1.2,2,1.2,3.5-.2,2.2-.5,2.8c-.4.7-.9,1.2-1.6,1.6s-1.4.6-2.2.6c-1.3,0-2.4-.4-3.2-1.3s-1.2-2-1.2-3.6h0ZM376.1,82.9c0,1.2.3,2.1.8,2.7.5.6,1.2.9,2,.9s1.4-.3,2-.9.8-1.5.8-2.7-.3-2-.8-2.6c-.5-.6-1.2-.9-2-.9s-1.5.3-2,.9-.8,1.5-.8,2.7h0Z"/>
    <path d="M385.1,87.5v-9.3h1.4v1.4c.4-.7.7-1.1,1-1.3s.6-.3,1-.3c.5,0,1.1.2,1.6.5l-.5,1.5c-.4-.2-.8-.3-1.2-.3s-.7,0-.9.3-.5.5-.6.9c-.2.6-.3,1.2-.3,1.8v4.9h-1.6Z"/>
    <path d="M402.5,84.5l1.6.2c-.3,1-.7,1.7-1.4,2.2s-1.6.8-2.7.8-2.5-.4-3.2-1.3c-.8-.8-1.2-2-1.2-3.5s.4-2.8,1.2-3.7,1.9-1.3,3.1-1.3,2.3.4,3.1,1.3,1.2,2,1.2,3.6v.4h-7c0,1,.4,1.8.9,2.4s1.2.8,2,.8,1.1-.2,1.5-.5.7-.8,1-1.5h0ZM397.3,82h5.2c0-.8-.3-1.4-.6-1.8-.5-.6-1.2-.9-2-.9s-1.3.2-1.8.7-.8,1.1-.8,1.9Z"/>
    <path d="M408.7,87.5l-3.5-9.3h1.7l2,5.6c.2.6.4,1.2.6,1.9.1-.5.3-1.1.6-1.8l2.1-5.7h1.6l-3.5,9.3h-1.5Z"/>
    <path d="M421.5,84.5l1.6.2c-.3,1-.7,1.7-1.4,2.2s-1.6.8-2.7.8-2.5-.4-3.2-1.3c-.8-.8-1.2-2-1.2-3.5s.4-2.8,1.2-3.7,1.9-1.3,3.1-1.3,2.3.4,3.1,1.3,1.2,2,1.2,3.6v.4h-7c0,1,.4,1.8.9,2.4s1.2.8,2,.8,1.1-.2,1.5-.5.7-.8,1-1.5h0ZM416.3,82h5.2c0-.8-.3-1.4-.6-1.8-.5-.6-1.2-.9-2-.9s-1.3.2-1.8.7-.8,1.1-.8,1.9Z"/>
    <path d="M425.1,87.5v-9.3h1.4v1.4c.4-.7.7-1.1,1-1.3s.6-.3,1-.3c.5,0,1.1.2,1.6.5l-.5,1.5c-.4-.2-.8-.3-1.2-.3s-.7,0-.9.3-.5.5-.6.9c-.2.6-.3,1.2-.3,1.8v4.9h-1.6Z"/>
    <path d="M431,91.1l-.2-1.5c.4,0,.6.1.9.1s.6,0,.8-.2.4-.3.5-.5c.1-.2.3-.6.5-1.2,0,0,0-.2.1-.4l-3.5-9.3h1.7l1.9,5.4c.2.7.5,1.4.7,2.2.2-.7.4-1.4.6-2.1l2-5.4h1.6l-3.5,9.5c-.4,1-.7,1.7-.9,2.1-.3.5-.6.9-1,1.2-.4.2-.8.4-1.3.4s-.6,0-1-.2h0Z"/>
    <path d="M445.1,87.5v-9.3h1.4v1.3c.7-1,1.7-1.5,3-1.5s1.1,0,1.5.3c.5.2.8.5,1.1.8s.4.7.5,1.2c0,.3,0,.8,0,1.5v5.7h-1.6v-5.7c0-.6,0-1.1-.2-1.4s-.3-.6-.6-.8c-.3-.2-.7-.3-1.1-.3-.7,0-1.3.2-1.7.6s-.7,1.2-.7,2.4v5.1h-1.6Z"/>
    <path d="M461.5,84.5l1.6.2c-.3,1-.7,1.7-1.4,2.2s-1.6.8-2.7.8-2.5-.4-3.2-1.3c-.8-.8-1.2-2-1.2-3.5s.4-2.8,1.2-3.7,1.9-1.3,3.1-1.3,2.3.4,3.1,1.3,1.2,2,1.2,3.6v.4h-7c0,1,.4,1.8.9,2.4s1.2.8,2,.8,1.1-.2,1.5-.5.7-.8,1-1.5h0ZM456.3,82h5.2c0-.8-.3-1.4-.6-1.8-.5-.6-1.2-.9-2-.9s-1.3.2-1.8.7-.8,1.1-.8,1.9Z"/>
    <path d="M471.5,84.5l1.6.2c-.3,1-.7,1.7-1.4,2.2s-1.6.8-2.7.8-2.5-.4-3.2-1.3c-.8-.8-1.2-2-1.2-3.5s.4-2.8,1.2-3.7,1.9-1.3,3.1-1.3,2.3.4,3.1,1.3,1.2,2,1.2,3.6v.4h-7c0,1,.4,1.8.9,2.4s1.2.8,2,.8,1.1-.2,1.5-.5.7-.8,1-1.5h0ZM466.3,82h5.2c0-.8-.3-1.4-.6-1.8-.5-.6-1.2-.9-2-.9s-1.3.2-1.8.7-.8,1.1-.8,1.9Z"/>
    <path d="M481.2,87.5v-1.2c-.6.9-1.5,1.4-2.6,1.4s-1.4-.2-2-.6-1.1-1-1.5-1.7c-.3-.7-.5-1.6-.5-2.5s.2-1.8.5-2.5.8-1.3,1.4-1.8,1.3-.6,2.1-.6,1.1.1,1.5.4.8.6,1.1.9v-4.6h1.6v12.9h-1.5ZM476.2,82.9c0,1.2.2,2.1.8,2.7s1.1.9,1.8.9,1.3-.3,1.8-.8.7-1.4.7-2.6-.2-2.2-.7-2.8-1.1-.9-1.8-.9-1.3.3-1.8.9-.7,1.5-.7,2.7h0Z"/>
  </g>
  <g>
    <line class="st2" x1="25.7" y1="101.8" x2="755.2" y2="101.8"/>
    <line class="st2" x1="26.5" y1="142.4" x2="26.5" y2="101.5"/>
    <line class="st2" x1="754.5" y1="141.8" x2="754.5" y2="100.9"/>
  </g>
  <line class="st2" x1="848.9" y1="100.9" x2="1229.1" y2="100.9"/>
  <line class="st2" x1="849.4" y1="141.8" x2="849.4" y2="100.9"/>
  <line class="st2" x1="1228.7" y1="141.8" x2="1228.7" y2="100.9"/>
</svg>