<?xml version="1.0" encoding="UTF-8"?>
<svg id="Layer_1" xmlns="http://www.w3.org/2000/svg" xmlns:xlink="http://www.w3.org/1999/xlink" version="1.1" viewBox="0 0 1246.2 397.3">
  <!-- Generator: Adobe Illustrator 29.3.0, SVG Export Plug-In . SVG Version: 2.1.0 Build 146)  -->
  <defs>
    <style>
      .st0, .st1, .st2 {
        fill: none;
      }

      .st3, .st4, .st5, .st6, .st7, .st8 {
        isolation: isolate;
      }

      .st3, .st5, .st6, .st7 {
        font-family: Arial-BoldMT, Arial;
        font-weight: 700;
      }

      .st3, .st6, .st8 {
        font-size: 18px;
      }

      .st5 {
        font-size: 14.6px;
      }

      .st5, .st9, .st6 {
        fill: #221f1f;
      }

      .st10 {
        fill: #fff;
      }

      .st1 {
        stroke: #000;
      }

      .st1, .st2 {
        stroke-miterlimit: 10;
      }

      .st2 {
        stroke: #221f1f;
        stroke-width: 2px;
      }

      .st7 {
        font-size: 28px;
      }

      .st8 {
        font-family: ArialMT, Arial;
      }
    </style>
  </defs>
  <g class="st4">
    <g class="st4">
      <g class="st4">
        <text class="st5" transform="translate(855 363.1)"><tspan x="0" y="0">Purification</tspan></text>
      </g>
    </g>
  </g>
  <rect class="st10" x="808.3" y="223.1" width="4.5" height="11.5" rx=".2" ry=".2"/>
  <g>
    <line class="st2" x1="1065.1" y1="255.7" x2="1108.8" y2="255.7"/>
    <polygon class="st9" points="1119.4 255.7 1104.4 261.8 1108 255.7 1104.4 249.6 1119.4 255.7"/>
  </g>
  <g>
    <line class="st2" x1="778.2" y1="252.6" x2="821.9" y2="252.6"/>
    <polygon class="st9" points="832.5 252.6 817.6 258.7 821.1 252.6 817.6 246.5 832.5 252.6"/>
  </g>
  <g class="st4">
    <g class="st4">
      <text class="st7" transform="translate(306.9 27.5)"><tspan x="0" y="0">CUS</tspan></text>
      <text class="st7" transform="translate(366 27.5)"><tspan x="0" y="0">T</tspan></text>
      <text class="st7" transform="translate(382.6 27.5)"><tspan x="0" y="0">OM</tspan></text>
      <text class="st7" transform="translate(427.7 27.5)"><tspan x="0" y="0"> </tspan></text>
      <text class="st7" transform="translate(434.4 27.5)"><tspan x="0" y="0">ANTIGEN SUPP</tspan></text>
      <text class="st7" transform="translate(644.5 27.5)"><tspan x="0" y="0">L</tspan></text>
      <text class="st7" transform="translate(659 27.5)"><tspan x="0" y="0">Y</tspan></text>
      <text class="st7" transform="translate(677.2 27.5)"><tspan x="0" y="0" xml:space="preserve">  -  Design to Delivery</tspan></text>
    </g>
  </g>
  <rect class="st1" x="858.2" y="269.9" width="73.9" height="70.6" rx="8.5" ry="8.5"/>
  <g class="st4">
    <g class="st4">
      <g class="st4">
        <text class="st5" transform="translate(870.8 246.9)"><tspan x="0" y="0">Design</tspan></text>
      </g>
    </g>
  </g>
  <rect class="st1" x="858.2" y="153.7" width="73.9" height="70.6" rx="8.6" ry="8.6"/>
  <g class="st4">
    <g class="st4">
      <g class="st4">
        <text class="st5" transform="translate(975.5 246.9)"><tspan x="0" y="0">Expression</tspan></text>
      </g>
    </g>
  </g>
  <image class="st4" width="112" height="164" transform="translate(989.7 166.1) scale(.4 .3)" xlink:href="Antigens-1.png"/>
  <rect class="st1" x="973" y="153.7" width="73.9" height="70.6" rx="8.6" ry="8.6"/>
  <g class="st4">
    <g class="st4">
      <g class="st4">
        <text class="st5" transform="translate(981.6 360.6)"><tspan x="0" y="0">QC test &amp;</tspan></text>
        <text class="st5" transform="translate(980.4 378)"><tspan x="0" y="0">V</tspan></text>
        <text class="st5" transform="translate(989.3 378)"><tspan x="0" y="0">alidation</tspan></text>
      </g>
    </g>
  </g>
  <rect class="st1" x="973" y="269.9" width="73.9" height="70.6" rx="8.5" ry="8.5"/>
  <image class="st4" width="179" height="154" transform="translate(864.6 161.5) scale(.3)" xlink:href="Antigens-2.png"/>
  <image class="st4" width="142" height="180" transform="translate(875.2 273.6) scale(.3)" xlink:href="Antigens-3.png"/>
  <image class="st4" width="180" height="164" transform="translate(979.3 279.4) scale(.3)" xlink:href="Antigens-4.png"/>
  <g class="st4">
    <g class="st4">
      <g class="st4">
        <text class="st5" transform="translate(1151.7 322.9)"><tspan x="0" y="0">Supply</tspan></text>
      </g>
    </g>
  </g>
  <rect class="st1" x="1126.7" y="208.7" width="98.4" height="94" rx="8.6" ry="8.6"/>
  <image class="st4" width="210" height="152" transform="translate(1135.5 222.5) scale(.4)" xlink:href="Antigens-5.png"/>
  <image class="st4" width="160" height="164" transform="translate(571.6 298.7) scale(.3)" xlink:href="Antigens-6.png"/>
  <image class="st4" width="316" height="177" transform="translate(11.4 173.6) scale(.6)" xlink:href="Antigens-7.png"/>
  <image class="st4" width="247" height="216" transform="translate(484.2 120.7) scale(.5)" xlink:href="Antigens-8.png"/>
  <g class="st4">
    <g class="st4">
      <text class="st6" transform="translate(18.8 299.3)"><tspan x="0" y="0">Recombinant</tspan></text>
      <text class="st6" transform="translate(132.8 299.3)"><tspan x="0" y="0"> </tspan></text>
      <text class="st6" transform="translate(137.1 299.3)"><tspan x="0" y="0">Antigens</tspan></text>
    </g>
  </g>
  <g class="st4">
    <g class="st4">
      <text class="st6" transform="translate(476.8 245.9)"><tspan x="0" y="0">Native</tspan></text>
      <text class="st6" transform="translate(530.8 245.9)"><tspan x="0" y="0"> </tspan></text>
      <text class="st6" transform="translate(535.2 245.9)"><tspan x="0" y="0">Antigens</tspan></text>
    </g>
  </g>
  <image class="st4" width="167" height="152" transform="translate(329.5 301.4) scale(.4)" xlink:href="Antigens-9.png"/>
  <image class="st4" width="172" height="170" transform="translate(431.6 296.5) scale(.4)" xlink:href="Antigens-10.png"/>
  <image class="st4" width="161" height="145" transform="translate(697.4 296.5) scale(.4)" xlink:href="Antigens-11.png"/>
  <g class="st4">
    <g class="st4">
      <text class="st6" transform="translate(335.6 379.7)"><tspan x="0" y="0">V</tspan></text>
      <text class="st6" transform="translate(347.3 379.7)"><tspan x="0" y="0">iral</tspan></text>
    </g>
  </g>
  <g class="st4">
    <g class="st4">
      <text class="st6" transform="translate(557.3 368.9)"><tspan x="0" y="0">Protozoan</tspan></text>
      <text class="st6" transform="translate(561.3 390.5)"><tspan x="0" y="0">/Parasitic</tspan></text>
    </g>
  </g>
  <g class="st4">
    <g class="st4">
      <text class="st6" transform="translate(430 379.7)"><tspan x="0" y="0">Bacterial</tspan></text>
    </g>
  </g>
  <g class="st4">
    <g class="st4">
      <text class="st6" transform="translate(698.9 379.7)"><tspan x="0" y="0">Fungal</tspan></text>
    </g>
  </g>
  <line class="st2" x1="362.1" y1="267.6" x2="729.6" y2="267.6"/>
  <g>
    <line class="st0" x1="728.6" y1="266.8" x2="728.6" y2="290.7"/>
    <g>
      <line class="st2" x1="728.6" y1="266.8" x2="728.6" y2="286"/>
      <polygon class="st9" points="728.6 290.7 722.3 284.1 728.6 285.7 734.9 284.1 728.6 290.7"/>
    </g>
  </g>
  <line class="st2" x1="545.9" y1="253.9" x2="545.9" y2="267.6"/>
  <g>
    <line class="st0" x1="363.1" y1="266.8" x2="363.1" y2="290.7"/>
    <g>
      <line class="st2" x1="363.1" y1="266.8" x2="363.1" y2="286"/>
      <polygon class="st9" points="363.1 290.7 356.8 284.1 363.1 285.7 369.4 284.1 363.1 290.7"/>
    </g>
  </g>
  <g class="st4">
    <text class="st3" transform="translate(954.3 61.9)"><tspan x="0" y="0">Accelerated timelines</tspan></text>
    <text class="st3" transform="translate(1004.3 83.5)"><tspan x="0" y="0">3-6 weeks</tspan></text>
  </g>
  <g class="st4">
    <text class="st3" transform="translate(207.8 61.9)"><tspan x="0" y="0">From human to veternary targets</tspan></text>
    <text class="st8" transform="translate(219.2 83.5)"><tspan x="0" y="0">T</tspan></text>
    <text class="st8" transform="translate(228.2 83.5)"><tspan x="0" y="0">ailored solutions for every need</tspan></text>
  </g>
  <g>
    <line class="st2" x1="20.1" y1="97.8" x2="749.6" y2="97.8"/>
    <line class="st2" x1="20.9" y1="138.4" x2="20.9" y2="97.5"/>
    <line class="st2" x1="748.9" y1="137.8" x2="748.9" y2="96.9"/>
  </g>
  <line class="st2" x1="843.4" y1="96.9" x2="1223.5" y2="96.9"/>
  <line class="st2" x1="843.8" y1="137.8" x2="843.8" y2="96.9"/>
  <line class="st2" x1="1223.1" y1="137.8" x2="1223.1" y2="96.9"/>
</svg>