<?xml version="1.0" encoding="UTF-8"?>
<svg id="Layer_1" xmlns="http://www.w3.org/2000/svg" xmlns:xlink="http://www.w3.org/1999/xlink" version="1.1" viewBox="0 0 1405.9 381.1">
  <!-- Generator: Adobe Illustrator 29.3.0, SVG Export Plug-In . SVG Version: 2.1.0 Build 146)  -->
  <defs>
    <style>
      .st0, .st1 {
        fill: none;
      }

      .st2, .st3 {
        isolation: isolate;
      }

      .st3 {
        font-size: 14.6px;
      }

      .st3, .st4 {
        font-family: Arial-BoldMT, Arial;
        font-weight: 700;
      }

      .st3, .st5 {
        fill: #221f1f;
      }

      .st4 {
        fill: #231f20;
        font-size: 28px;
      }

      .st6 {
        fill: #fff;
      }

      .st1 {
        stroke: #221f1f;
        stroke-miterlimit: 10;
        stroke-width: 2px;
      }
    </style>
  </defs>
  <g class="st2">
    <text class="st3" transform="translate(22.6 358.1)"><tspan x="0" y="0">Cancer Patients</tspan></text>
  </g>
  <g>
    <line class="st0" x1="103" y1="205.9" x2="141.4" y2="244.3"/>
    <g>
      <line class="st1" x1="103" y1="205.9" x2="133.9" y2="236.8"/>
      <polygon class="st5" points="141.4 244.3 126.5 238.1 133.3 236.3 135.1 229.5 141.4 244.3"/>
    </g>
  </g>
  <image class="st2" width="196" height="175" transform="translate(154.2 105.3) scale(.4)" xlink:href="Neoantigens_discovery-1.png"/>
  <image class="st2" width="195" height="173" transform="translate(150.7 218.8) scale(.4)" xlink:href="Neoantigens_discovery-2.png"/>
  <g>
    <line class="st0" x1="102.5" y1="196.2" x2="140.9" y2="157.8"/>
    <g>
      <line class="st1" x1="102.5" y1="196.2" x2="133.4" y2="165.3"/>
      <polygon class="st5" points="140.9 157.8 134.7 172.7 132.9 165.9 126 164.1 140.9 157.8"/>
    </g>
  </g>
  <g class="st2">
    <text class="st3" transform="translate(171.7 85.1)"><tspan x="0" y="0">T</tspan></text>
    <text class="st3" transform="translate(179.5 85.1)"><tspan x="0" y="0">umor</tspan></text>
    <text class="st3" transform="translate(162.3 102.6)"><tspan x="0" y="0">RNA-Seq</tspan></text>
  </g>
  <g class="st2">
    <text class="st3" transform="translate(167.9 306.6)"><tspan x="0" y="0">Control</tspan></text>
    <text class="st3" transform="translate(162.3 324.1)"><tspan x="0" y="0">RNA-Seq</tspan></text>
  </g>
  <image class="st2" width="170" height="212" transform="translate(437.3 157.4) scale(.5)" xlink:href="Neoantigens_discovery-3.png"/>
  <g>
    <line class="st0" x1="251.7" y1="159.1" x2="290.1" y2="197.4"/>
    <g>
      <line class="st1" x1="251.7" y1="159.1" x2="282.6" y2="190"/>
      <polygon class="st5" points="290.1 197.4 275.3 191.2 282.1 189.4 283.9 182.6 290.1 197.4"/>
    </g>
  </g>
  <g>
    <line class="st0" x1="252.4" y1="243.6" x2="290.8" y2="205.2"/>
    <g>
      <line class="st1" x1="252.4" y1="243.6" x2="283.3" y2="212.7"/>
      <polygon class="st5" points="290.8 205.2 284.5 220.1 282.7 213.3 275.9 211.4 290.8 205.2"/>
    </g>
  </g>
  <g class="st2">
    <text class="st3" transform="translate(408.1 280)"><tspan x="0" y="0">Neoantigen Filtering</tspan></text>
    <text class="st3" transform="translate(470 297.5)"><tspan x="0" y="0">by</tspan></text>
    <text class="st3" transform="translate(424.5 315)"><tspan x="0" y="0">HL</tspan></text>
    <text class="st3" transform="translate(443.9 315)"><tspan x="0" y="0">A</tspan></text>
    <text class="st3" transform="translate(453.9 315)"><tspan x="0" y="0" xml:space="preserve"> Interaction</tspan></text>
    <text class="st3" transform="translate(406.4 332.5)"><tspan x="0" y="0">and Expression Data</tspan></text>
  </g>
  <g class="st2">
    <text class="st3" transform="translate(588.9 278.5)"><tspan x="0" y="0">T</tspan></text>
    <text class="st3" transform="translate(597 278.5)"><tspan x="0" y="0">raining on </tspan></text>
    <text class="st3" transform="translate(577.2 296)"><tspan x="0" y="0">experimentally </tspan></text>
    <text class="st3" transform="translate(581.6 313.5)"><tspan x="0" y="0">validated data</tspan></text>
  </g>
  <image class="st2" width="144" height="151" transform="translate(587.9 169.7) scale(.6)" xlink:href="Neoantigens_discovery-4.png"/>
  <image class="st2" width="152" height="284" transform="translate(749.1 133.1) scale(.5)" xlink:href="Neoantigens_discovery-5.png"/>
  <g class="st2">
    <text class="st3" transform="translate(732.9 289.1)"><tspan x="0" y="0">T</tspan></text>
    <text class="st3" transform="translate(740.8 289.1)"><tspan x="0" y="0">umor-specific </tspan></text>
    <text class="st3" transform="translate(743.7 306.6)"><tspan x="0" y="0">neoantigen </tspan></text>
    <text class="st3" transform="translate(713 324.1)"><tspan x="0" y="0">discovery &amp; ranking</tspan></text>
  </g>
  <image class="st2" width="510" height="407" transform="translate(145.9 232.1) scale(.1)" xlink:href="Neoantigens_discovery-6.png"/>
  <rect class="st6" x="63.1" y="266.7" width="10.3" height="15.8"/>
  <image id="image" class="st2" width="226" height="272" transform="translate(43.4 210.3) scale(.2)" xlink:href="Neoantigens_discovery-7.png"/>
  <image id="image1" data-name="image" class="st2" width="226" height="272" transform="translate(43.4 277.4) scale(.2)" xlink:href="Neoantigens_discovery-8.png"/>
  <rect class="st6" x="86.3" y="234.7" width="4.5" height="7.9"/>
  <rect class="st6" x="86.3" y="301.1" width="4.5" height="7.9"/>
  <rect class="st6" x="665.6" y="168.1" width="4.5" height="11.5" rx=".2" ry=".2"/>
  <path class="st6" d="M595.7,181.2l12.8-4.5c-.2,0-.3-.1-.3-.3v-11c0-.2.1-.3.3-.3l-12.8,4.5c.2,0,.3.1.3.3v11c0,.2-.1.3-.3.3Z"/>
  <rect class="st6" x="237" y="150.6" width="7.7" height="15.3"/>
  <rect class="st6" x="234.2" y="261" width="7.7" height="15.3"/>
  <g>
    <line class="st0" x1="680" y1="211" x2="734.3" y2="211"/>
    <g>
      <line class="st1" x1="680" y1="211" x2="723.7" y2="211"/>
      <polygon class="st5" points="734.3 211 719.4 217.1 722.9 211 719.4 204.9 734.3 211"/>
    </g>
  </g>
  <g class="st2">
    <text class="st3" transform="translate(1235.6 358.1)"><tspan x="0" y="0">Combination Therapy</tspan></text>
  </g>
  <g>
    <line class="st0" x1="954.9" y1="119" x2="1034" y2="119"/>
    <g>
      <line class="st1" x1="954.9" y1="119" x2="1023.4" y2="119"/>
      <polygon class="st5" points="1034 119 1019 125.1 1022.6 119 1019 112.9 1034 119"/>
    </g>
  </g>
  <rect class="st6" x="62.4" y="130.6" width="10.3" height="15.8"/>
  <image class="st2" width="223" height="271" transform="translate(42.9 74.1) scale(.2)" xlink:href="Neoantigens_discovery-9.png"/>
  <image class="st2" width="223" height="272" transform="translate(43 141.1) scale(.2)" xlink:href="Neoantigens_discovery-10.png"/>
  <rect class="st6" x="85.7" y="98.5" width="4.5" height="7.9"/>
  <rect class="st6" x="85.7" y="164.9" width="4.5" height="7.9"/>
  <image class="st2" width="178" height="555" transform="translate(904.4 223) scale(.2)" xlink:href="Neoantigens_discovery-11.png"/>
  <image class="st2" width="453" height="450" transform="translate(1081.8 86) scale(.1)" xlink:href="Neoantigens_discovery-12.png"/>
  <image class="st2" width="175" height="554" transform="translate(901.1 94.4) scale(.2)" xlink:href="Neoantigens_discovery-13.png"/>
  <g class="st2">
    <text class="st3" transform="translate(863.3 352.7)"><tspan x="0" y="0">T</tspan></text>
    <text class="st3" transform="translate(871.1 352.7)"><tspan x="0" y="0">op Neoantigens</tspan></text>
  </g>
  <image class="st2" width="110" height="253" transform="translate(303 150.9) scale(.5)" xlink:href="Neoantigens_discovery-14.png"/>
  <g class="st2">
    <text class="st3" transform="translate(272.5 288.7)"><tspan x="0" y="0">Somatic variant </tspan></text>
    <text class="st3" transform="translate(305.7 306.2)"><tspan x="0" y="0">calling</tspan></text>
  </g>
  <g>
    <line class="st0" x1="526.4" y1="211" x2="580.7" y2="211"/>
    <g>
      <line class="st1" x1="526.4" y1="211" x2="570.1" y2="211"/>
      <polygon class="st5" points="580.7 211 565.8 217.1 569.3 211 565.8 204.9 580.7 211"/>
    </g>
  </g>
  <g>
    <line class="st0" x1="831.1" y1="211" x2="885.3" y2="211"/>
    <g>
      <line class="st1" x1="831.1" y1="211" x2="874.7" y2="211"/>
      <polygon class="st5" points="885.3 211 870.4 217.1 873.9 211 870.4 204.9 885.3 211"/>
    </g>
  </g>
  <g>
    <line class="st0" x1="366.9" y1="211" x2="421.2" y2="211"/>
    <g>
      <line class="st1" x1="366.9" y1="211" x2="410.6" y2="211"/>
      <polygon class="st5" points="421.2 211 406.3 217.1 409.8 211 406.3 204.9 421.2 211"/>
    </g>
  </g>
  <g class="st2">
    <text class="st3" transform="translate(1032.2 165.9)"><tspan x="0" y="0">Predesigned Plasmids</tspan></text>
  </g>
  <g class="st2">
    <text class="st3" transform="translate(1087.6 257.1)"><tspan x="0" y="0">mRN</tspan></text>
    <text class="st3" transform="translate(1121.6 257.1)"><tspan x="0" y="0">A</tspan></text>
  </g>
  <g class="st2">
    <text class="st3" transform="translate(1078.5 349.1)"><tspan x="0" y="0">Peptide</tspan></text>
  </g>
  <g>
    <line class="st0" x1="954.9" y1="211" x2="1034" y2="211"/>
    <g>
      <line class="st1" x1="954.9" y1="211" x2="1023.4" y2="211"/>
      <polygon class="st5" points="1034 211 1019 217.1 1022.6 211 1019 204.9 1034 211"/>
    </g>
  </g>
  <g>
    <line class="st0" x1="954.9" y1="295" x2="1034" y2="295"/>
    <g>
      <line class="st1" x1="954.9" y1="295" x2="1023.4" y2="295"/>
      <polygon class="st5" points="1034 295 1019 301.1 1022.6 295 1019 288.9 1034 295"/>
    </g>
  </g>
  <image class="st2" width="872" height="407" transform="translate(1062 283) scale(.1)" xlink:href="Neoantigens_discovery-15.png"/>
  <image class="st2" width="1138" height="468" transform="translate(1046.1 186.6) scale(.1)" xlink:href="Neoantigens_discovery-16.png"/>
  <g class="st2">
    <text class="st3" transform="translate(1201.5 238.6)"><tspan x="0" y="0">V</tspan></text>
    <text class="st3" transform="translate(1210.5 238.6)"><tspan x="0" y="0">alidated </tspan></text>
    <text class="st3" transform="translate(1206 256.1)"><tspan x="0" y="0">delivery </tspan></text>
    <text class="st3" transform="translate(1210.4 273.6)"><tspan x="0" y="0">system</tspan></text>
  </g>
  <g>
    <line class="st0" x1="1193.1" y1="211" x2="1272.1" y2="211"/>
    <g>
      <line class="st1" x1="1193.1" y1="211" x2="1261.5" y2="211"/>
      <polygon class="st5" points="1272.1 211 1257.2 217.1 1260.7 211 1257.2 204.9 1272.1 211"/>
    </g>
  </g>
  <rect class="st6" x="1305.1" y="271.2" width="10.3" height="15.8"/>
  <image class="st2" width="227" height="269" transform="translate(1285.5 215.3) scale(.2)" xlink:href="Neoantigens_discovery-17.png"/>
  <image class="st2" width="227" height="270" transform="translate(1285.5 282.2) scale(.2)" xlink:href="Neoantigens_discovery-18.png"/>
  <rect class="st6" x="1328.4" y="239.2" width="4.5" height="7.9"/>
  <rect class="st6" x="1328.4" y="305.6" width="4.5" height="7.9"/>
  <rect class="st6" x="1304.5" y="135.1" width="10.3" height="15.8"/>
  <image class="st2" width="224" height="274" transform="translate(1285.1 78.6) scale(.2)" xlink:href="Neoantigens_discovery-19.png"/>
  <image class="st2" width="224" height="273" transform="translate(1285 145.6) scale(.2)" xlink:href="Neoantigens_discovery-20.png"/>
  <rect class="st6" x="1327.7" y="103" width="4.5" height="7.9"/>
  <rect class="st6" x="1327.7" y="169.4" width="4.5" height="7.9"/>
  <text class="st4" transform="translate(107.3 31)"><tspan x="0" y="0">AI-Powered Pipeline for Cancer-Specific Neoantigen Prediction and Vaccine Development</tspan></text>
</svg>