<?xml version="1.0" encoding="UTF-8"?>
<svg id="Layer_1" xmlns="http://www.w3.org/2000/svg" version="1.1" viewBox="0 0 532.3 94.2">
  <!-- Generator: Adobe Illustrator 29.3.0, SVG Export Plug-In . SVG Version: 2.1.0 Build 146)  -->
  <defs>
    <style>
      .st0, .st1, .st2, .st3, .st4, .st5 {
        fill: none;
      }

      .st1, .st6, .st4, .st7, .st5 {
        stroke: #1b437a;
      }

      .st1, .st3, .st4, .st7 {
        stroke-miterlimit: 10;
      }

      .st1, .st4 {
        stroke-width: 6px;
      }

      .st6, .st3, .st4, .st8 {
        stroke-linecap: round;
      }

      .st6, .st7, .st9 {
        fill: #1b437a;
      }

      .st6, .st8 {
        stroke-miterlimit: 10;
        stroke-width: .3px;
      }

      .st2 {
        stroke: #f16b3b;
        stroke-width: 14.4px;
      }

      .st3 {
        stroke-width: 1.5px;
      }

      .st3, .st8 {
        stroke: #de5b26;
      }

      .st10 {
        fill: #fff;
      }

      .st11 {
        fill: #54a3da;
      }

      .st5 {
        stroke-width: 7px;
      }

      .st8 {
        fill: #de5b26;
      }
    </style>
  </defs>
  <path class="st7" d="M29.9,84.7L5.1,9h17.3l17.1,53.2h.2L57,9h17.4l-25.4,75.7h-19.1Z"/>
  <path class="st7" d="M116.8,9l28.6,75.7h-17.5l-5.8-16.8h-28.6l-6,16.8h-16.9L99.5,9h17.3ZM117.8,55.4l-9.7-27.8h-.2l-10,27.8h19.9Z"/>
  <path class="st7" d="M329.2,9l32,50.8h.2V9h15.8v75.7h-16.8l-31.9-50.7h-.2v50.7h-15.8V9h16.7,0Z"/>
  <path class="st7" d="M457.7,9h19.5l15,24.2,15.5-24.2h18.4l-24.6,36.1,26.7,39.5h-20.1l-16.7-26.2-17.1,26.2h-18.9l26.7-39.6-24.7-36h.3Z"/>
  <polyline class="st9" points="127.8 42.7 128.4 42.4 128 42.9"/>
  <polyline class="st11" points="140.1 42.8 139.7 42.3 140.3 42.6"/>
  <g>
    <line class="st3" x1="416.5" y1="39.9" x2="420.9" y2="39.9"/>
    <line class="st3" x1="416.5" y1="43.5" x2="420.9" y2="43.5"/>
    <g>
      <g>
        <line class="st1" x1="414.3" y1="39.4" x2="414.3" y2="81.6"/>
        <rect class="st8" x="400.1" y="5.7" width="5.8" height="36.6" rx="2.3" ry="2.3" transform="translate(59.5 236.1) rotate(-35.1)"/>
        <rect class="st6" x="406.5" y="23.6" width="5.8" height="18.9" transform="translate(55.4 241.4) rotate(-35.1)"/>
        <line class="st4" x1="414.3" y1="46.6" x2="414.3" y2="81.8"/>
      </g>
      <line class="st0" x1="448.2" y1="35.8" x2="449.2" y2="34.4"/>
    </g>
  </g>
  <path class="st7" d="M156.5,9h19.5l15,24.2,15.6-24.2h18.4l-24.6,36.1,26.7,39.5h-20.1l-16.7-26.2-17.1,26.2h-18.9l26.7-39.6-24.7-36h.2Z"/>
  <g>
    <path class="st9" d="M266.2,84.1c-23.5.8-41.1-20.3-36.9-44.3,2.6-14.9,14.1-27,29-29.5,24.6-4.2,45.8,15.8,43.6,40.1-1.7,18.6-17.2,33.2-35.8,33.8h0ZM267.4,24.2c-14.4-1.4-26.5,10.6-25,25,1.1,10.7,9.7,19.3,20.4,20.4,14.4,1.4,26.5-10.6,25-25-1.1-10.7-9.7-19.3-20.4-20.4Z"/>
    <path class="st2" d="M265,17c17.5-.3,30.3,14.2,30,31.5"/>
    <path class="st5" d="M264.3,13.3c4.7-.3,7.5.1,10,1.1"/>
    <path class="st5" d="M291.2,49c0-3.3-.1-5.5-.6-7.8"/>
  </g>
  <rect class="st8" x="392.6" y="11.4" width="5.8" height="36.6" rx="2.3" ry="2.3" transform="translate(54.8 232.8) rotate(-35.1)"/>
  <rect class="st10" x="388.1" y="26.5" width="28.6" height="1.7" transform="translate(55.3 232.7) rotate(-34.5)"/>
  <rect class="st6" x="399.4" y="31.5" width="5.8" height="15.7" rx="2.3" ry="2.3" transform="translate(50.5 238.5) rotate(-35.1)"/>
  <rect class="st6" x="398.1" y="30.3" width="5.8" height="14" transform="translate(51.5 237.3) rotate(-35.1)"/>
  <g>
    <g>
      <line class="st1" x1="424.4" y1="39.4" x2="424.4" y2="81.6"/>
      <rect class="st8" x="417.5" y="21.4" width="36.6" height="5.8" rx="2.3" ry="2.3" transform="translate(165.3 366.8) rotate(-54.9)"/>
      <rect class="st6" x="420" y="30.5" width="18.9" height="5.8" transform="translate(155.2 365.6) rotate(-54.9)"/>
      <line class="st4" x1="424.4" y1="46.6" x2="424.4" y2="81.8"/>
    </g>
    <rect class="st8" x="425" y="27.1" width="36.6" height="5.8" rx="2.3" ry="2.3" transform="translate(163.8 375.4) rotate(-54.9)"/>
    <rect class="st10" x="435.4" y="12.6" width="1.7" height="28.6" transform="translate(167 371.2) rotate(-55.5)"/>
    <rect class="st6" x="428.6" y="36.8" width="15.7" height="5.8" rx="2.3" ry="2.3" transform="translate(153 373.9) rotate(-54.9)"/>
    <rect class="st6" x="430.8" y="34.9" width="14" height="5.8" transform="translate(155.2 374.2) rotate(-54.9)"/>
  </g>
</svg>