<?xml version="1.0" encoding="UTF-8"?>
<svg id="Layer_1" xmlns="http://www.w3.org/2000/svg" version="1.1" viewBox="0 0 660.7 94">
  <!-- Generator: Adobe Illustrator 29.3.0, SVG Export Plug-In . SVG Version: 2.1.0 Build 146)  -->
  <defs>
    <style>
      .st0 {
        fill: #4daf4e;
      }

      .st1 {
        stroke-width: 7px;
      }

      .st1, .st2, .st3 {
        fill: none;
      }

      .st1, .st4, .st3 {
        stroke: #1b427a;
      }

      .st5 {
        fill: #fff;
      }

      .st2 {
        stroke-width: 14.4px;
      }

      .st2, .st6 {
        stroke: #f26b3b;
      }

      .st4, .st3, .st6 {
        stroke-miterlimit: 10;
      }

      .st4, .st7 {
        fill: #1b427a;
      }

      .st8 {
        fill: #54a4db;
      }

      .st3 {
        stroke-width: 5px;
      }

      .st9, .st6 {
        fill: #f26b3b;
      }
    </style>
  </defs>
  <path class="st7" d="M603.6-374.7c6.4,6.5,13.2,13.2,20.6,20.2"/>
  <path class="st7" d="M660.7-388.8c-5.5-5.2-10.6-10.1-15.5-15"/>
  <g>
    <g>
      <path class="st7" d="M258.1,84.7c-23.5.8-41.1-20.3-36.9-44.3,2.6-14.9,14.1-27,29-29.5,24.6-4.2,45.8,15.8,43.7,40.1-1.7,18.6-17.2,33.2-35.8,33.8h0ZM259.2,24.9c-14.4-1.4-26.5,10.6-25,25,1.1,10.7,9.7,19.3,20.4,20.4,14.4,1.4,26.5-10.6,25-25-1.1-10.7-9.7-19.3-20.4-20.4h0Z"/>
      <path class="st2" d="M256.9,17.7c17.5-.3,30.3,14.2,30,31.5"/>
      <path class="st1" d="M256.2,13.9c4.7-.3,7.5.1,10,1.1"/>
      <path class="st1" d="M283.1,49.7c0-3.4-.1-5.5-.6-7.8"/>
    </g>
    <g>
      <g>
        <line class="st3" x1="381.8" y1="10.6" x2="404.8" y2="44.1"/>
        <line class="st3" x1="374.5" y1="15.9" x2="397.5" y2="49.4"/>
        <line class="st3" x1="404.3" y1="42.7" x2="404.3" y2="84.8"/>
      </g>
      <g>
        <line class="st3" x1="435.8" y1="10.6" x2="412.8" y2="44.1"/>
        <line class="st3" x1="443.1" y1="15.9" x2="420.1" y2="49.4"/>
        <line class="st3" x1="413.2" y1="42.7" x2="413.2" y2="84.8"/>
      </g>
    </g>
  </g>
  <g>
    <path class="st4" d="M29.3,85.4L4.5,9.7h17.3l17.1,53.2h.2L56.3,9.7h17.4l-25.4,75.7h-19,0Z"/>
    <path class="st4" d="M116.2,9.7l28.6,75.7h-17.5l-5.8-16.8h-28.6l-6,16.8h-17L98.9,9.7h17.3ZM117.1,56.1l-9.6-27.8h-.2l-10,27.8h19.8Z"/>
    <path class="st4" d="M154.2,9.7h19.5l15,24.2,15.5-24.2h18.5l-24.6,36.1,26.7,39.5h-20.1l-16.7-26.2-17.1,26.2h-18.9l26.7-39.6-24.7-36h0Z"/>
    <path class="st4" d="M316.6,9.7l32,50.8h.2V9.7h15.8v75.7h-16.8l-31.9-50.7h-.2v50.7h-15.8V9.7h16.7Z"/>
    <path class="st4" d="M450.1,9.7h19.5l15,24.2,15.5-24.2h18.5l-24.6,36.1,26.7,39.5h-20.1l-16.7-26.2-17.1,26.2h-18.9l26.7-39.6-24.7-36h0Z"/>
    <path class="st4" d="M602,9.7l28.6,75.7h-17.5l-5.8-16.8h-28.6l-6,16.8h-17l29-75.7h17.3ZM602.9,56.1l-9.7-27.8h-.2l-10,27.8h19.8Z"/>
    <path class="st4" d="M656.8,9.7v75.7h-16.8V9.7h16.8Z"/>
  </g>
  <rect class="st5" x="31.5" y="49" width="15.3" height="12.8"/>
  <g>
    <path class="st6" d="M36.9,43.2s1.4,1,2.7,2.2c.8.7,1.4,1.2,2.2,1.9.8.7,1.1,1,1.5,1.4.7.7,1.5,1.6,1.9,2.2.3.4,1.7,2.4,1.9,5,.3,3.6-1.9,6.2-2.5,6.8.8-.4,1.9-1.2,2.8-2.4,3-4,1.5-9.2,1.3-9.8-1.3-4.2-4.7-7.2-8.8-10.7"/>
    <path class="st9" d="M44.1,63.4l.5-.5c.8-.9,2.7-3.4,2.5-6.7-.2-2.4-1.4-4.2-1.9-5-.4-.6-1.2-1.4-1.9-2.2s-.8-.7-1.5-1.4-1.4-1.2-2.2-1.9c-1.4-1.1-2.7-2.2-2.7-2.2v-.2c0,0,.4.2,1,.7.5.4,1.2.9,1.9,1.5.8.7,1.4,1.2,2.2,1.9.8.7,1.1,1,1.5,1.4.7.7,1.5,1.6,1.9,2.2.5.7,1.8,2.7,1.9,5.1.2,2.9-1.2,5.2-2.1,6.4.9-.6,1.6-1.2,2.2-2,2.9-3.8,1.6-8.8,1.3-9.7-1.2-4.1-4.8-7.1-8.8-10.6v-.2c4.2,3.5,7.8,6.5,9,10.7.3,1,1.6,6-1.3,9.9-.8,1-1.7,1.8-2.9,2.5l-.6.3h0Z"/>
  </g>
  <g>
    <path class="st0" d="M40.1,41.2s-1.4-1-2.7-2.2c-.8-.7-1.4-1.2-2.2-1.9-.8-.7-1.1-1-1.5-1.4-.7-.7-1.5-1.6-1.9-2.2-.3-.4-1.7-2.4-1.9-5-.3-3.6,1.9-6.2,2.5-6.8-.8.4-1.9,1.2-2.8,2.4-3,4-1.5,9.2-1.3,9.8,1.3,4.2,4.7,7.2,8.8,10.7"/>
    <path class="st0" d="M37,44.6c-4.1-3.5-7.6-6.5-8.9-10.7-.3-1-1.6-6,1.3-9.9.8-1,1.7-1.8,2.9-2.5l.6-.3-.5.5c-.8.9-2.7,3.4-2.5,6.7.2,2.4,1.4,4.2,1.9,5,.4.6,1.2,1.4,1.9,2.2s.8.7,1.5,1.4c.8.7,1.4,1.2,2.2,1.9,1.4,1.1,2.7,2.2,2.7,2.2v.2c0,0-.4-.2-1-.7-.5-.4-1.2-.9-1.9-1.5-.8-.7-1.4-1.2-2.2-1.9-.8-.7-1.1-1-1.5-1.4-.7-.7-1.5-1.6-1.9-2.2-.5-.7-1.8-2.6-1.9-5.1-.2-2.9,1.2-5.2,2.1-6.4-.9.6-1.6,1.2-2.2,2-2.9,3.8-1.6,8.8-1.3,9.7,1.2,4.1,4.8,7.1,8.8,10.6v.2c-.1,0-.2,0-.2,0Z"/>
  </g>
  <g>
    <rect class="st5" x="34.9" y="40.1" width="8.7" height="7" transform="translate(-18.7 34.3) rotate(-38.9)"/>
    <path class="st5" d="M38.1,49.2l-4.5-5.6,7-5.6,4.5,5.6-7,5.6ZM33.9,43.6l4.2,5.2,6.6-5.3-4.2-5.2-6.6,5.3Z"/>
  </g>
  <g>
    <g>
      <path class="st9" d="M41.7,44.4s-1.4,1-2.7,2.2c-.8.7-1.4,1.2-2.2,1.9-.8.7-1.1,1-1.5,1.4-.7.7-1.5,1.6-1.9,2.2-.3.4-1.7,2.4-1.9,5-.3,3.6,1.9,6.2,2.5,6.8-.8-.4-1.9-1.2-2.8-2.4-3-4-1.5-9.2-1.3-9.8,1.3-4.2,4.7-7.2,8.8-10.7"/>
      <path class="st9" d="M34.5,64.4l-.6-.3c-1.1-.6-2.1-1.5-2.9-2.5-2.9-3.9-1.6-9-1.3-9.9,1.3-4.2,4.8-7.2,8.9-10.7v.2c-3.9,3.5-7.4,6.5-8.6,10.6-.3,1-1.6,5.9,1.3,9.7.6.8,1.3,1.5,2.2,2-.9-1.2-2.3-3.5-2.1-6.4.2-2.4,1.4-4.4,1.9-5.1.5-.6,1.2-1.5,1.9-2.2.4-.4.8-.8,1.5-1.4s1.4-1.2,2.2-1.9c.7-.6,1.4-1.2,1.9-1.5.6-.5,1-.7,1-.7v.2s-1.4,1-2.7,2.2c-.8.7-1.4,1.2-2.2,1.9-.8.7-1.1,1-1.5,1.4-.7.7-1.4,1.6-1.9,2.2-.5.7-1.7,2.6-1.9,5-.2,3.3,1.6,5.8,2.5,6.7l.5.5h0Z"/>
    </g>
    <g>
      <path class="st9" d="M38.6,41.1s1.4-1,2.7-2.2c.8-.7,1.4-1.2,2.2-1.9.8-.7,1.1-1,1.5-1.4.7-.7,1.5-1.6,1.9-2.2.3-.4,1.7-2.4,1.9-5,.3-3.6-1.9-6.2-2.5-6.8.8.4,1.9,1.2,2.8,2.4,3,4,1.5,9.2,1.3,9.8-1.3,4.2-4.7,7.2-8.8,10.7"/>
      <path class="st9" d="M41.7,44.5v-.2c3.9-3.5,7.4-6.5,8.6-10.6.3-1,1.6-5.9-1.3-9.7-.6-.8-1.3-1.5-2.2-2,.9,1.2,2.3,3.5,2.1,6.4-.2,2.4-1.4,4.4-1.9,5.1-.5.6-1.2,1.5-1.9,2.2-.4.4-.8.7-1.5,1.4-.8.7-1.4,1.3-2.2,1.9-1.4,1.1-2.7,2.2-2.7,2.2v-.2c-.1,0,1.2-1.1,2.6-2.2.8-.7,1.4-1.2,2.2-1.9.8-.7,1.2-1,1.5-1.4.7-.7,1.4-1.6,1.9-2.2.5-.7,1.7-2.6,1.9-5,.2-3.3-1.6-5.8-2.5-6.7l-.5-.5.6.3c1.1.6,2.1,1.5,2.9,2.5,2.9,3.9,1.6,9,1.3,9.9-1.3,4.2-4.8,7.2-8.9,10.7h0Z"/>
    </g>
  </g>
  <rect class="st9" x="31.2" y="54.6" width="16.3" height="1.4"/>
  <rect class="st9" x="30.5" y="58" width="16.5" height="1.4"/>
  <rect class="st9" x="39.8" y="34.8" width="8.2" height="1.4"/>
  <rect class="st9" x="39.8" y="30.1" width="10.9" height="1.4"/>
  <rect class="st9" x="39.8" y="25.3" width="10.2" height="1.4"/>
  <rect class="st0" x="29.7" y="25.3" width="10.2" height="1.4"/>
  <rect class="st0" x="29.8" y="30.1" width="10.2" height="1.4"/>
  <rect class="st0" x="32.4" y="34.8" width="7.4" height="1.4"/>
  <rect class="st9" x="31.3" y="50" width="16.3" height="1.4"/>
  <g>
    <polyline class="st7" points="127.2 43.4 127.7 43.1 127.3 43.6"/>
    <polyline class="st8" points="139.5 43.5 139.1 43 139.6 43.3"/>
  </g>
</svg>