<?xml version="1.0" encoding="UTF-8"?>
<svg id="Layer_1" data-name="Layer 1" xmlns="http://www.w3.org/2000/svg" viewBox="0 0 923.72 588.49">
  <defs>
    <style>
      .cls-1 {
        fill: #4daf4e;
      }

      .cls-2, .cls-3, .cls-4 {
        stroke: #1b427a;
      }

      .cls-2, .cls-4, .cls-5 {
        stroke-miterlimit: 10;
      }

      .cls-2, .cls-6 {
        fill: #1b427a;
      }

      .cls-3 {
        stroke-width: 7px;
      }

      .cls-3, .cls-4, .cls-7 {
        fill: none;
      }

      .cls-4 {
        stroke-width: 5px;
      }

      .cls-5, .cls-7 {
        stroke: #f26b3b;
      }

      .cls-5, .cls-8 {
        fill: #f26b3b;
      }

      .cls-9 {
        fill: #fff;
      }

      .cls-10 {
        fill: #54a4db;
      }

      .cls-7 {
        stroke-width: 14.4px;
      }
    </style>
  </defs>
  <path class="cls-6" d="M866.64,73.31c6.36,6.46,13.22,13.18,20.63,20.2"/>
  <path class="cls-6" d="M923.72,59.15c-5.47-5.16-10.63-10.14-15.46-14.95"/>
  <g>
    <g>
      <path class="cls-6" d="M521.1,532.72c-23.5.78-41.07-20.26-36.87-44.34,2.6-14.92,14.12-26.99,29.05-29.55,24.58-4.22,45.82,15.84,43.65,40.09-1.66,18.56-17.2,33.18-35.82,33.8ZM522.23,472.87c-14.41-1.44-26.47,10.62-25.03,25.03,1.07,10.67,9.69,19.29,20.36,20.36,14.41,1.44,26.47-10.62,25.03-25.03-1.07-10.67-9.69-19.29-20.36-20.36Z"/>
      <path class="cls-7" d="M519.89,465.67c17.51-.26,30.3,14.17,29.96,31.48"/>
      <path class="cls-3" d="M519.17,461.9c4.72-.32,7.47.12,9.97,1.14"/>
      <path class="cls-3" d="M546.09,497.67c0-3.35-.13-5.53-.57-7.79"/>
    </g>
    <g>
      <g>
        <line class="cls-4" x1="644.79" y1="458.56" x2="667.78" y2="492.06"/>
        <line class="cls-4" x1="637.49" y1="463.91" x2="660.48" y2="497.41"/>
        <line class="cls-4" x1="667.33" y1="490.67" x2="667.33" y2="532.84"/>
      </g>
      <g>
        <line class="cls-4" x1="698.79" y1="458.56" x2="675.8" y2="492.06"/>
        <line class="cls-4" x1="706.09" y1="463.91" x2="683.1" y2="497.41"/>
        <line class="cls-4" x1="676.25" y1="490.67" x2="676.25" y2="532.84"/>
      </g>
    </g>
  </g>
  <g>
    <path class="cls-2" d="M292.27,533.41l-24.78-75.68h17.27l17.06,53.21h.21l17.27-53.21h17.38l-25.42,75.68h-18.99Z"/>
    <path class="cls-2" d="M379.16,457.73l28.64,75.68h-17.48l-5.79-16.85h-28.64l-6.01,16.85h-16.95l28.96-75.68h17.27ZM380.13,504.15l-9.65-27.77h-.21l-9.98,27.77h19.84Z"/>
    <path class="cls-2" d="M417.23,457.73h19.52l15.02,24.17,15.55-24.17h18.45l-24.56,36.15,26.71,39.54h-20.06l-16.73-26.18-17.06,26.18h-18.88l26.71-39.64-24.67-36.04Z"/>
    <path class="cls-2" d="M579.6,457.73l31.97,50.77h.21v-50.77h15.77v75.68h-16.84l-31.86-50.67h-.21v50.67h-15.77v-75.68h16.73Z"/>
    <path class="cls-2" d="M713.14,457.73h19.52l15.02,24.17,15.55-24.17h18.45l-24.56,36.15,26.71,39.54h-20.06l-16.73-26.18-17.06,26.18h-18.88l26.71-39.64-24.67-36.04Z"/>
    <path class="cls-2" d="M864.96,457.73l28.64,75.68h-17.49l-5.79-16.85h-28.64l-6.01,16.85h-16.95l28.96-75.68h17.27ZM865.93,504.15l-9.65-27.77h-.21l-9.98,27.77h19.84Z"/>
    <path class="cls-2" d="M919.78,457.73v75.68h-16.84v-75.68h16.84Z"/>
  </g>
  <rect class="cls-9" x="294.45" y="497.03" width="15.29" height="12.79"/>
  <g>
    <path class="cls-5" d="M299.89,491.21s1.37,1.05,2.73,2.21c.81.69,1.42,1.24,2.18,1.93.77.7,1.15,1.04,1.54,1.44.73.74,1.46,1.58,1.89,2.18.26.36,1.72,2.37,1.91,5.01.26,3.57-1.94,6.19-2.5,6.82.77-.43,1.88-1.19,2.82-2.43,2.99-3.96,1.5-9.21,1.31-9.83-1.26-4.19-4.73-7.16-8.84-10.68"/>
    <path class="cls-8" d="M307.1,511.44l.45-.51c.82-.93,2.71-3.44,2.47-6.73-.17-2.35-1.38-4.24-1.89-4.95-.44-.61-1.16-1.44-1.88-2.16-.39-.39-.77-.74-1.53-1.43-.76-.69-1.37-1.24-2.18-1.93-1.36-1.15-2.72-2.2-2.73-2.21v-.17q.06-.08,1,.66c.47.37,1.17.94,1.88,1.54.82.69,1.42,1.24,2.18,1.94.77.7,1.15,1.05,1.54,1.44.73.73,1.45,1.57,1.9,2.19.52.72,1.76,2.66,1.93,5.07.21,2.88-1.16,5.17-2.09,6.37.86-.57,1.6-1.25,2.2-2.05,2.87-3.8,1.58-8.77,1.29-9.73-1.25-4.15-4.75-7.15-8.8-10.62l.15-.18c4.08,3.5,7.6,6.51,8.87,10.73.29.98,1.61,6.04-1.33,9.94-.75.99-1.71,1.82-2.86,2.46l-.6.33Z"/>
  </g>
  <g>
    <path class="cls-1" d="M303.14,489.18s-1.37-1.05-2.73-2.21c-.81-.69-1.42-1.24-2.18-1.93-.77-.7-1.15-1.04-1.54-1.44-.73-.74-1.46-1.58-1.89-2.18-.26-.36-1.72-2.37-1.91-5.01-.26-3.57,1.94-6.19,2.5-6.82-.77.43-1.88,1.19-2.82,2.43-2.99,3.96-1.5,9.21-1.31,9.83,1.26,4.19,4.73,7.16,8.84,10.68"/>
    <path class="cls-1" d="M300.02,492.63c-4.08-3.5-7.6-6.51-8.87-10.73-.29-.98-1.61-6.04,1.33-9.94.75-.99,1.71-1.82,2.86-2.46l.6-.33-.45.51c-.82.93-2.71,3.44-2.47,6.73.17,2.35,1.38,4.24,1.89,4.95.44.61,1.16,1.44,1.88,2.16.39.39.77.74,1.53,1.43.77.7,1.37,1.25,2.18,1.94,1.35,1.14,2.72,2.2,2.73,2.21l-.02.2q-.07.03-.98-.69c-.47-.37-1.17-.94-1.88-1.54-.81-.69-1.42-1.24-2.18-1.93-.77-.7-1.15-1.05-1.54-1.44-.73-.73-1.45-1.57-1.9-2.19-.52-.72-1.76-2.65-1.93-5.07-.21-2.88,1.16-5.17,2.09-6.37-.87.57-1.6,1.25-2.2,2.05-2.87,3.8-1.58,8.77-1.3,9.73,1.25,4.15,4.75,7.15,8.8,10.62l-.15.18Z"/>
  </g>
  <g>
    <rect class="cls-9" x="297.93" y="488.1" width="8.71" height="6.96" transform="translate(-241.57 298.57) rotate(-38.87)"/>
    <path class="cls-9" d="M301.07,497.19l-4.51-5.6,6.96-5.61,4.51,5.6-6.96,5.61ZM296.88,491.62l4.22,5.24,6.6-5.32-4.22-5.24-6.6,5.32Z"/>
  </g>
  <g>
    <g>
      <path class="cls-8" d="M304.7,492.43s-1.37,1.05-2.73,2.21c-.81.69-1.42,1.24-2.18,1.93-.77.7-1.15,1.04-1.54,1.44-.73.74-1.46,1.58-1.89,2.18-.26.36-1.72,2.37-1.91,5.01-.26,3.57,1.94,6.19,2.5,6.82-.77-.43-1.88-1.19-2.82-2.43-2.99-3.96-1.5-9.21-1.31-9.83,1.26-4.19,4.73-7.16,8.84-10.68"/>
      <path class="cls-8" d="M297.49,512.44l-.6-.33c-1.15-.64-2.11-1.47-2.86-2.46-2.94-3.89-1.63-8.96-1.33-9.94,1.27-4.22,4.79-7.24,8.87-10.73l.15.18c-4.05,3.47-7.55,6.47-8.8,10.62-.29.96-1.58,5.93,1.3,9.73.6.79,1.34,1.48,2.2,2.05-.93-1.2-2.3-3.5-2.09-6.37.18-2.41,1.41-4.35,1.93-5.07.45-.62,1.18-1.46,1.9-2.19.39-.4.78-.75,1.54-1.44.76-.69,1.36-1.24,2.18-1.94.71-.6,1.41-1.17,1.88-1.54q.93-.74,1.01-.66v.17s-1.38,1.05-2.74,2.21c-.82.69-1.42,1.24-2.18,1.93-.76.69-1.14,1.04-1.53,1.43-.72.73-1.44,1.56-1.88,2.16-.51.7-1.72,2.6-1.89,4.95-.24,3.29,1.65,5.81,2.47,6.73l.45.51Z"/>
    </g>
    <g>
      <path class="cls-8" d="M301.58,489.1s1.37-1.05,2.73-2.21c.81-.69,1.42-1.24,2.18-1.93.77-.7,1.15-1.04,1.54-1.44.73-.74,1.46-1.58,1.89-2.18.26-.36,1.72-2.37,1.91-5.01.26-3.57-1.94-6.19-2.5-6.82.77.43,1.88,1.19,2.82,2.43,2.99,3.96,1.5,9.21,1.31,9.83-1.26,4.19-4.73,7.16-8.84,10.68"/>
      <path class="cls-8" d="M304.71,492.55l-.15-.17c4.05-3.47,7.55-6.47,8.8-10.62.29-.96,1.58-5.93-1.3-9.73-.6-.79-1.34-1.48-2.2-2.05.93,1.2,2.3,3.5,2.09,6.37-.18,2.42-1.41,4.35-1.93,5.07-.45.62-1.18,1.46-1.9,2.19-.39.39-.77.74-1.53,1.44-.78.71-1.38,1.26-2.19,1.94-1.35,1.15-2.72,2.2-2.74,2.21l-.14-.18s1.38-1.06,2.73-2.21c.81-.68,1.41-1.23,2.17-1.92.78-.71,1.16-1.05,1.54-1.44.72-.73,1.44-1.56,1.88-2.16.51-.7,1.72-2.59,1.89-4.95.24-3.29-1.65-5.81-2.47-6.73l-.45-.51.6.33c1.15.64,2.11,1.47,2.86,2.46,2.94,3.89,1.63,8.96,1.33,9.94-1.27,4.22-4.79,7.24-8.87,10.73Z"/>
    </g>
  </g>
  <rect class="cls-8" x="294.17" y="502.58" width="16.26" height="1.39"/>
  <rect class="cls-8" x="293.53" y="505.97" width="16.49" height="1.39"/>
  <rect class="cls-8" x="302.78" y="482.82" width="8.25" height="1.39"/>
  <rect class="cls-8" x="302.78" y="478.06" width="10.93" height="1.39"/>
  <rect class="cls-8" x="302.78" y="473.3" width="10.18" height="1.39"/>
  <rect class="cls-1" x="292.66" y="473.3" width="10.18" height="1.39"/>
  <rect class="cls-1" x="292.81" y="478.06" width="10.18" height="1.39"/>
  <rect class="cls-1" x="295.4" y="482.82" width="7.44" height="1.39"/>
  <rect class="cls-8" x="294.34" y="498.05" width="16.26" height="1.39"/>
  <g>
    <polyline class="cls-6" points="390.18 491.41 390.7 491.11 390.3 491.56"/>
    <polyline class="cls-10" points="402.48 491.5 402.08 491.04 402.61 491.34"/>
  </g>
</svg>